<svg xmlns="http://www.w3.org/2000/svg" viewBox="0 0 500 500"><g id="freepik--background-complete--inject-175"><rect x="416.78" y="398.49" width="33.12" height="0.25" style="fill:#ebebeb"></rect><rect x="322.53" y="401.21" width="8.69" height="0.25" style="fill:#ebebeb"></rect><rect x="396.59" y="389.21" width="19.19" height="0.25" style="fill:#ebebeb"></rect><rect x="52.46" y="390.89" width="43.19" height="0.25" style="fill:#ebebeb"></rect><rect x="104.56" y="390.89" width="6.33" height="0.25" style="fill:#ebebeb"></rect><rect x="131.47" y="395.11" width="93.68" height="0.25" style="fill:#ebebeb"></rect><path d="M238.4,337.8H45.3a5.71,5.71,0,0,1-5.71-5.71V60.66A5.71,5.71,0,0,1,45.3,55H238.4a5.71,5.71,0,0,1,5.71,5.71V332.09A5.71,5.71,0,0,1,238.4,337.8ZM45.3,55.2a5.47,5.47,0,0,0-5.46,5.46V332.09a5.47,5.47,0,0,0,5.46,5.46H238.4a5.47,5.47,0,0,0,5.46-5.46V60.66a5.47,5.47,0,0,0-5.46-5.46Z" style="fill:#ebebeb"></path><path d="M454.7,337.8H261.6a5.71,5.71,0,0,1-5.71-5.71V60.66A5.71,5.71,0,0,1,261.6,55H454.7a5.71,5.71,0,0,1,5.71,5.71V332.09A5.71,5.71,0,0,1,454.7,337.8ZM261.6,55.2a5.47,5.47,0,0,0-5.46,5.46V332.09a5.47,5.47,0,0,0,5.46,5.46H454.7a5.47,5.47,0,0,0,5.46-5.46V60.66a5.47,5.47,0,0,0-5.46-5.46Z" style="fill:#ebebeb"></path><rect y="382.4" width="500" height="0.25" style="fill:#ebebeb"></rect><path d="M108.09,382.65H41.71l-.71-4a6.22,6.22,0,0,1,6.12-7.3h55.55a6.23,6.23,0,0,1,6.13,7.3Z" style="fill:#f0f0f0"></path><path d="M243.52,382.65H177.14l-.81-4.58a5.74,5.74,0,0,1,5.65-6.74h56.7a5.74,5.74,0,0,1,5.65,6.74Z" style="fill:#ebebeb"></path><path d="M297.38,382.65h-56.6l-.75-4.2a4.65,4.65,0,0,1,4.58-5.45h48.94a4.64,4.64,0,0,1,4.57,5.45Z" style="fill:#f5f5f5"></path><path d="M360.55,382.65H294.17l-.81-4.58a5.74,5.74,0,0,1,5.65-6.74h56.7a5.74,5.74,0,0,1,5.65,6.74Z" style="fill:#e6e6e6"></path><path d="M414.41,382.65H357.8l-.74-4.2a4.65,4.65,0,0,1,4.57-5.45h48.95a4.65,4.65,0,0,1,4.57,5.45Z" style="fill:#f5f5f5"></path><path d="M458.28,382.65h-56.6l-.74-4.2a4.64,4.64,0,0,1,4.57-5.45h48.94a4.65,4.65,0,0,1,4.58,5.45Z" style="fill:#ebebeb"></path><path d="M177.21,382.65h-72l-1-5.76a5.56,5.56,0,0,1,5.47-6.52h63.1a5.55,5.55,0,0,1,5.47,6.52Z" style="fill:#f5f5f5"></path><rect x="126.89" y="348.41" width="135.49" height="31.31" style="fill:#f0f0f0"></rect><path d="M262.89,378.45H126.37a2.13,2.13,0,0,0-2.13,2.14h0a2.13,2.13,0,0,0,2.13,2.13H262.89a2.13,2.13,0,0,0,2.14-2.13h0A2.14,2.14,0,0,0,262.89,378.45Z" style="fill:#e0e0e0"></path><path d="M139.86,359.64h7.34a8.34,8.34,0,0,0-7.34-7.85Z" style="fill:#fafafa"></path><rect x="139.86" y="361.63" width="7.36" height="6.92" style="fill:#fafafa"></rect><rect x="130.51" y="361.63" width="7.36" height="6.92" style="fill:#fafafa"></rect><rect x="139.86" y="370.54" width="7.36" height="7.92" style="fill:#fafafa"></rect><path d="M137.87,359.64v-7.85a8.34,8.34,0,0,0-7.34,7.85Z" style="fill:#fafafa"></path><rect x="130.51" y="370.54" width="7.36" height="7.92" style="fill:#fafafa"></rect><path d="M177,359.64h7.34a8.34,8.34,0,0,0-7.34-7.85Z" style="fill:#fafafa"></path><rect x="177.04" y="361.63" width="7.36" height="6.92" style="fill:#fafafa"></rect><rect x="167.69" y="361.63" width="7.36" height="6.92" style="fill:#fafafa"></rect><rect x="177.04" y="370.54" width="7.36" height="7.92" style="fill:#fafafa"></rect><path d="M175.05,359.64v-7.85a8.34,8.34,0,0,0-7.34,7.85Z" style="fill:#fafafa"></path><rect x="167.69" y="370.54" width="7.36" height="7.92" style="fill:#fafafa"></rect><path d="M214.22,359.64h7.34a8.35,8.35,0,0,0-7.34-7.85Z" style="fill:#fafafa"></path><rect x="214.22" y="361.63" width="7.36" height="6.92" style="fill:#fafafa"></rect><rect x="204.86" y="361.63" width="7.36" height="6.92" style="fill:#fafafa"></rect><rect x="214.22" y="370.54" width="7.36" height="7.92" style="fill:#fafafa"></rect><path d="M212.23,359.64v-7.85a8.34,8.34,0,0,0-7.34,7.85Z" style="fill:#fafafa"></path><rect x="204.86" y="370.54" width="7.36" height="7.92" style="fill:#fafafa"></rect><path d="M251.39,359.64h7.35a8.35,8.35,0,0,0-7.35-7.85Z" style="fill:#fafafa"></path><rect x="251.39" y="361.63" width="7.36" height="6.92" style="fill:#fafafa"></rect><rect x="242.04" y="361.63" width="7.36" height="6.92" style="fill:#fafafa"></rect><rect x="251.39" y="370.54" width="7.36" height="7.92" style="fill:#fafafa"></rect><path d="M249.41,359.64v-7.85a8.35,8.35,0,0,0-7.35,7.85Z" style="fill:#fafafa"></path><rect x="242.04" y="370.54" width="7.36" height="7.92" style="fill:#fafafa"></rect><rect x="152.63" y="348.41" width="10.43" height="4.95" style="fill:#ebebeb"></rect><rect x="152.63" y="354.68" width="10.43" height="4.95" style="fill:#ebebeb"></rect><rect x="152.63" y="360.95" width="10.43" height="4.95" style="fill:#ebebeb"></rect><rect x="152.63" y="367.23" width="10.43" height="4.95" style="fill:#ebebeb"></rect><rect x="152.63" y="373.5" width="10.43" height="4.95" style="fill:#ebebeb"></rect><rect x="189.42" y="348.41" width="10.43" height="4.95" style="fill:#ebebeb"></rect><rect x="189.42" y="354.68" width="10.43" height="4.95" style="fill:#ebebeb"></rect><rect x="189.42" y="360.95" width="10.43" height="4.95" style="fill:#ebebeb"></rect><rect x="189.42" y="367.23" width="10.43" height="4.95" style="fill:#ebebeb"></rect><rect x="189.42" y="373.5" width="10.43" height="4.95" style="fill:#ebebeb"></rect><rect x="226.82" y="348.41" width="10.43" height="4.95" style="fill:#ebebeb"></rect><rect x="226.82" y="354.68" width="10.43" height="4.95" style="fill:#ebebeb"></rect><rect x="226.82" y="360.95" width="10.43" height="4.95" style="fill:#ebebeb"></rect><rect x="226.82" y="367.23" width="10.43" height="4.95" style="fill:#ebebeb"></rect><rect x="226.82" y="373.5" width="10.43" height="4.95" style="fill:#ebebeb"></rect><rect x="126.89" y="315.57" width="135.49" height="31.31" style="fill:#f0f0f0"></rect><path d="M262.89,345.62H126.37a2.13,2.13,0,0,0-2.13,2.13h0a2.13,2.13,0,0,0,2.13,2.14H262.89a2.14,2.14,0,0,0,2.14-2.14h0A2.13,2.13,0,0,0,262.89,345.62Z" style="fill:#e0e0e0"></path><path d="M139.86,326.81h7.34a8.36,8.36,0,0,0-7.34-7.86Z" style="fill:#fafafa"></path><rect x="139.86" y="328.79" width="7.36" height="6.92" style="fill:#fafafa"></rect><rect x="130.51" y="328.79" width="7.36" height="6.92" style="fill:#fafafa"></rect><rect x="139.86" y="337.7" width="7.36" height="7.92" style="fill:#fafafa"></rect><path d="M137.87,326.81V319a8.36,8.36,0,0,0-7.34,7.86Z" style="fill:#fafafa"></path><rect x="130.51" y="337.7" width="7.36" height="7.92" style="fill:#fafafa"></rect><path d="M177,326.81h7.34A8.36,8.36,0,0,0,177,319Z" style="fill:#fafafa"></path><rect x="177.04" y="328.79" width="7.36" height="6.92" style="fill:#fafafa"></rect><rect x="167.69" y="328.79" width="7.36" height="6.92" style="fill:#fafafa"></rect><rect x="177.04" y="337.7" width="7.36" height="7.92" style="fill:#fafafa"></rect><path d="M175.05,326.81V319a8.36,8.36,0,0,0-7.34,7.86Z" style="fill:#fafafa"></path><rect x="167.69" y="337.7" width="7.36" height="7.92" style="fill:#fafafa"></rect><path d="M214.22,326.81h7.34a8.36,8.36,0,0,0-7.34-7.86Z" style="fill:#fafafa"></path><rect x="214.22" y="328.79" width="7.36" height="6.92" style="fill:#fafafa"></rect><rect x="204.86" y="328.79" width="7.36" height="6.92" style="fill:#fafafa"></rect><rect x="214.22" y="337.7" width="7.36" height="7.92" style="fill:#fafafa"></rect><path d="M212.23,326.81V319a8.36,8.36,0,0,0-7.34,7.86Z" style="fill:#fafafa"></path><rect x="204.86" y="337.7" width="7.36" height="7.92" style="fill:#fafafa"></rect><path d="M251.39,326.81h7.35a8.36,8.36,0,0,0-7.35-7.86Z" style="fill:#fafafa"></path><rect x="251.39" y="328.79" width="7.36" height="6.92" style="fill:#fafafa"></rect><rect x="242.04" y="328.79" width="7.36" height="6.92" style="fill:#fafafa"></rect><rect x="251.39" y="337.7" width="7.36" height="7.92" style="fill:#fafafa"></rect><path d="M249.41,326.81V319a8.36,8.36,0,0,0-7.35,7.86Z" style="fill:#fafafa"></path><rect x="242.04" y="337.7" width="7.36" height="7.92" style="fill:#fafafa"></rect><rect x="152.63" y="315.57" width="10.43" height="4.95" style="fill:#ebebeb"></rect><rect x="152.63" y="321.84" width="10.43" height="4.95" style="fill:#ebebeb"></rect><rect x="152.63" y="328.12" width="10.43" height="4.95" style="fill:#ebebeb"></rect><rect x="152.63" y="334.39" width="10.43" height="4.95" style="fill:#ebebeb"></rect><rect x="152.63" y="340.67" width="10.43" height="4.95" style="fill:#ebebeb"></rect><rect x="189.42" y="315.57" width="10.43" height="4.95" style="fill:#ebebeb"></rect><rect x="189.42" y="321.84" width="10.43" height="4.95" style="fill:#ebebeb"></rect><rect x="189.42" y="328.12" width="10.43" height="4.95" style="fill:#ebebeb"></rect><rect x="189.42" y="334.39" width="10.43" height="4.95" style="fill:#ebebeb"></rect><rect x="189.42" y="340.67" width="10.43" height="4.95" style="fill:#ebebeb"></rect><rect x="226.82" y="315.57" width="10.43" height="4.95" style="fill:#ebebeb"></rect><rect x="226.82" y="321.84" width="10.43" height="4.95" style="fill:#ebebeb"></rect><rect x="226.82" y="328.12" width="10.43" height="4.95" style="fill:#ebebeb"></rect><rect x="226.82" y="334.39" width="10.43" height="4.95" style="fill:#ebebeb"></rect><rect x="226.82" y="340.67" width="10.43" height="4.95" style="fill:#ebebeb"></rect><rect x="126.89" y="282.73" width="135.49" height="31.31" style="fill:#f0f0f0"></rect><path d="M262.89,312.78H126.37a2.13,2.13,0,0,0-2.13,2.14h0a2.13,2.13,0,0,0,2.13,2.13H262.89a2.14,2.14,0,0,0,2.14-2.13h0A2.14,2.14,0,0,0,262.89,312.78Z" style="fill:#e0e0e0"></path><path d="M139.86,294h7.34a8.34,8.34,0,0,0-7.34-7.85Z" style="fill:#fafafa"></path><rect x="139.86" y="295.95" width="7.36" height="6.92" style="fill:#fafafa"></rect><rect x="130.51" y="295.95" width="7.36" height="6.92" style="fill:#fafafa"></rect><rect x="139.86" y="304.86" width="7.36" height="7.92" style="fill:#fafafa"></rect><path d="M137.87,294v-7.85a8.34,8.34,0,0,0-7.34,7.85Z" style="fill:#fafafa"></path><rect x="130.51" y="304.86" width="7.36" height="7.92" style="fill:#fafafa"></rect><path d="M177,294h7.34a8.34,8.34,0,0,0-7.34-7.85Z" style="fill:#fafafa"></path><rect x="177.04" y="295.95" width="7.36" height="6.92" style="fill:#fafafa"></rect><rect x="167.69" y="295.95" width="7.36" height="6.92" style="fill:#fafafa"></rect><rect x="177.04" y="304.86" width="7.36" height="7.92" style="fill:#fafafa"></rect><path d="M175.05,294v-7.85a8.34,8.34,0,0,0-7.34,7.85Z" style="fill:#fafafa"></path><rect x="167.69" y="304.86" width="7.36" height="7.92" style="fill:#fafafa"></rect><path d="M214.22,294h7.34a8.35,8.35,0,0,0-7.34-7.85Z" style="fill:#fafafa"></path><rect x="214.22" y="295.95" width="7.36" height="6.92" style="fill:#fafafa"></rect><rect x="204.86" y="295.95" width="7.36" height="6.92" style="fill:#fafafa"></rect><rect x="214.22" y="304.86" width="7.36" height="7.92" style="fill:#fafafa"></rect><path d="M212.23,294v-7.85a8.34,8.34,0,0,0-7.34,7.85Z" style="fill:#fafafa"></path><rect x="204.86" y="304.86" width="7.36" height="7.92" style="fill:#fafafa"></rect><path d="M251.39,294h7.35a8.35,8.35,0,0,0-7.35-7.85Z" style="fill:#fafafa"></path><rect x="251.39" y="295.95" width="7.36" height="6.92" style="fill:#fafafa"></rect><rect x="242.04" y="295.95" width="7.36" height="6.92" style="fill:#fafafa"></rect><rect x="251.39" y="304.86" width="7.36" height="7.92" style="fill:#fafafa"></rect><path d="M249.41,294v-7.85a8.35,8.35,0,0,0-7.35,7.85Z" style="fill:#fafafa"></path><rect x="242.04" y="304.86" width="7.36" height="7.92" style="fill:#fafafa"></rect><rect x="152.63" y="282.73" width="10.43" height="4.95" style="fill:#ebebeb"></rect><rect x="152.63" y="289.01" width="10.43" height="4.95" style="fill:#ebebeb"></rect><rect x="152.63" y="295.28" width="10.43" height="4.95" style="fill:#ebebeb"></rect><rect x="152.63" y="301.56" width="10.43" height="4.95" style="fill:#ebebeb"></rect><rect x="152.63" y="307.83" width="10.43" height="4.95" style="fill:#ebebeb"></rect><rect x="189.42" y="282.73" width="10.43" height="4.95" style="fill:#ebebeb"></rect><rect x="189.42" y="289.01" width="10.43" height="4.95" style="fill:#ebebeb"></rect><rect x="189.42" y="295.28" width="10.43" height="4.95" style="fill:#ebebeb"></rect><rect x="189.42" y="301.56" width="10.43" height="4.95" style="fill:#ebebeb"></rect><rect x="189.42" y="307.83" width="10.43" height="4.95" style="fill:#ebebeb"></rect><rect x="226.82" y="282.73" width="10.43" height="4.95" style="fill:#ebebeb"></rect><rect x="226.82" y="289.01" width="10.43" height="4.95" style="fill:#ebebeb"></rect><rect x="226.82" y="295.28" width="10.43" height="4.95" style="fill:#ebebeb"></rect><rect x="226.82" y="301.56" width="10.43" height="4.95" style="fill:#ebebeb"></rect><rect x="226.82" y="307.83" width="10.43" height="4.95" style="fill:#ebebeb"></rect><rect x="126.89" y="249.9" width="135.49" height="31.31" style="fill:#f0f0f0"></rect><path d="M262.89,279.94H126.37a2.13,2.13,0,0,0-2.13,2.14h0a2.13,2.13,0,0,0,2.13,2.13H262.89a2.13,2.13,0,0,0,2.14-2.13h0A2.14,2.14,0,0,0,262.89,279.94Z" style="fill:#e0e0e0"></path><path d="M139.86,261.13h7.34a8.35,8.35,0,0,0-7.34-7.85Z" style="fill:#fafafa"></path><rect x="139.86" y="263.12" width="7.36" height="6.92" style="fill:#fafafa"></rect><rect x="130.51" y="263.12" width="7.36" height="6.92" style="fill:#fafafa"></rect><rect x="139.86" y="272.03" width="7.36" height="7.92" style="fill:#fafafa"></rect><path d="M137.87,261.13v-7.85a8.35,8.35,0,0,0-7.34,7.85Z" style="fill:#fafafa"></path><rect x="130.51" y="272.03" width="7.36" height="7.92" style="fill:#fafafa"></rect><path d="M177,261.13h7.34a8.35,8.35,0,0,0-7.34-7.85Z" style="fill:#fafafa"></path><rect x="177.04" y="263.12" width="7.36" height="6.92" style="fill:#fafafa"></rect><rect x="167.69" y="263.12" width="7.36" height="6.92" style="fill:#fafafa"></rect><rect x="177.04" y="272.03" width="7.36" height="7.92" style="fill:#fafafa"></rect><path d="M175.05,261.13v-7.85a8.35,8.35,0,0,0-7.34,7.85Z" style="fill:#fafafa"></path><rect x="167.69" y="272.03" width="7.36" height="7.92" style="fill:#fafafa"></rect><path d="M214.22,261.13h7.34a8.35,8.35,0,0,0-7.34-7.85Z" style="fill:#fafafa"></path><rect x="214.22" y="263.12" width="7.36" height="6.92" style="fill:#fafafa"></rect><rect x="204.86" y="263.12" width="7.36" height="6.92" style="fill:#fafafa"></rect><rect x="214.22" y="272.03" width="7.36" height="7.92" style="fill:#fafafa"></rect><path d="M212.23,261.13v-7.85a8.35,8.35,0,0,0-7.34,7.85Z" style="fill:#fafafa"></path><rect x="204.86" y="272.03" width="7.36" height="7.92" style="fill:#fafafa"></rect><path d="M251.39,261.13h7.35a8.35,8.35,0,0,0-7.35-7.85Z" style="fill:#fafafa"></path><rect x="251.39" y="263.12" width="7.36" height="6.92" style="fill:#fafafa"></rect><rect x="242.04" y="263.12" width="7.36" height="6.92" style="fill:#fafafa"></rect><rect x="251.39" y="272.03" width="7.36" height="7.92" style="fill:#fafafa"></rect><path d="M249.41,261.13v-7.85a8.35,8.35,0,0,0-7.35,7.85Z" style="fill:#fafafa"></path><rect x="242.04" y="272.03" width="7.36" height="7.92" style="fill:#fafafa"></rect><rect x="152.63" y="249.9" width="10.43" height="4.95" style="fill:#ebebeb"></rect><rect x="152.63" y="256.17" width="10.43" height="4.95" style="fill:#ebebeb"></rect><rect x="152.63" y="262.45" width="10.43" height="4.95" style="fill:#ebebeb"></rect><rect x="152.63" y="268.72" width="10.43" height="4.95" style="fill:#ebebeb"></rect><rect x="152.63" y="274.99" width="10.43" height="4.95" style="fill:#ebebeb"></rect><rect x="189.42" y="249.9" width="10.43" height="4.95" style="fill:#ebebeb"></rect><rect x="189.42" y="256.17" width="10.43" height="4.95" style="fill:#ebebeb"></rect><rect x="189.42" y="262.45" width="10.43" height="4.95" style="fill:#ebebeb"></rect><rect x="189.42" y="268.72" width="10.43" height="4.95" style="fill:#ebebeb"></rect><rect x="189.42" y="274.99" width="10.43" height="4.95" style="fill:#ebebeb"></rect><rect x="226.82" y="249.9" width="10.43" height="4.95" style="fill:#ebebeb"></rect><rect x="226.82" y="256.17" width="10.43" height="4.95" style="fill:#ebebeb"></rect><rect x="226.82" y="262.45" width="10.43" height="4.95" style="fill:#ebebeb"></rect><rect x="226.82" y="268.72" width="10.43" height="4.95" style="fill:#ebebeb"></rect><rect x="226.82" y="274.99" width="10.43" height="4.95" style="fill:#ebebeb"></rect><rect x="126.89" y="217.06" width="135.49" height="31.31" style="fill:#f0f0f0"></rect><path d="M262.89,247.11H126.37a2.13,2.13,0,0,0-2.13,2.13h0a2.13,2.13,0,0,0,2.13,2.14H262.89a2.14,2.14,0,0,0,2.14-2.14h0A2.13,2.13,0,0,0,262.89,247.11Z" style="fill:#e0e0e0"></path><path d="M139.86,228.3h7.34a8.36,8.36,0,0,0-7.34-7.86Z" style="fill:#fafafa"></path><rect x="139.86" y="230.28" width="7.36" height="6.92" style="fill:#fafafa"></rect><rect x="130.51" y="230.28" width="7.36" height="6.92" style="fill:#fafafa"></rect><rect x="139.86" y="239.19" width="7.36" height="7.92" style="fill:#fafafa"></rect><path d="M137.87,228.3v-7.86a8.36,8.36,0,0,0-7.34,7.86Z" style="fill:#fafafa"></path><rect x="130.51" y="239.19" width="7.36" height="7.92" style="fill:#fafafa"></rect><path d="M177,228.3h7.34a8.36,8.36,0,0,0-7.34-7.86Z" style="fill:#fafafa"></path><rect x="177.04" y="230.28" width="7.36" height="6.92" style="fill:#fafafa"></rect><rect x="167.69" y="230.28" width="7.36" height="6.92" style="fill:#fafafa"></rect><rect x="177.04" y="239.19" width="7.36" height="7.92" style="fill:#fafafa"></rect><path d="M175.05,228.3v-7.86a8.36,8.36,0,0,0-7.34,7.86Z" style="fill:#fafafa"></path><rect x="167.69" y="239.19" width="7.36" height="7.92" style="fill:#fafafa"></rect><path d="M214.22,228.3h7.34a8.36,8.36,0,0,0-7.34-7.86Z" style="fill:#fafafa"></path><rect x="214.22" y="230.28" width="7.36" height="6.92" style="fill:#fafafa"></rect><rect x="204.86" y="230.28" width="7.36" height="6.92" style="fill:#fafafa"></rect><rect x="214.22" y="239.19" width="7.36" height="7.92" style="fill:#fafafa"></rect><path d="M212.23,228.3v-7.86a8.36,8.36,0,0,0-7.34,7.86Z" style="fill:#fafafa"></path><rect x="204.86" y="239.19" width="7.36" height="7.92" style="fill:#fafafa"></rect><path d="M251.39,228.3h7.35a8.36,8.36,0,0,0-7.35-7.86Z" style="fill:#fafafa"></path><rect x="251.39" y="230.28" width="7.36" height="6.92" style="fill:#fafafa"></rect><rect x="242.04" y="230.28" width="7.36" height="6.92" style="fill:#fafafa"></rect><rect x="251.39" y="239.19" width="7.36" height="7.92" style="fill:#fafafa"></rect><path d="M249.41,228.3v-7.86a8.36,8.36,0,0,0-7.35,7.86Z" style="fill:#fafafa"></path><rect x="242.04" y="239.19" width="7.36" height="7.92" style="fill:#fafafa"></rect><rect x="152.63" y="217.06" width="10.43" height="4.95" style="fill:#ebebeb"></rect><rect x="152.63" y="223.33" width="10.43" height="4.95" style="fill:#ebebeb"></rect><rect x="152.63" y="229.61" width="10.43" height="4.95" style="fill:#ebebeb"></rect><rect x="152.63" y="235.88" width="10.43" height="4.95" style="fill:#ebebeb"></rect><rect x="152.63" y="242.16" width="10.43" height="4.95" style="fill:#ebebeb"></rect><rect x="189.42" y="217.06" width="10.43" height="4.95" style="fill:#ebebeb"></rect><rect x="189.42" y="223.33" width="10.43" height="4.95" style="fill:#ebebeb"></rect><rect x="189.42" y="229.61" width="10.43" height="4.95" style="fill:#ebebeb"></rect><rect x="189.42" y="235.88" width="10.43" height="4.95" style="fill:#ebebeb"></rect><rect x="189.42" y="242.16" width="10.43" height="4.95" style="fill:#ebebeb"></rect><rect x="226.82" y="217.06" width="10.43" height="4.95" style="fill:#ebebeb"></rect><rect x="226.82" y="223.33" width="10.43" height="4.95" style="fill:#ebebeb"></rect><rect x="226.82" y="229.61" width="10.43" height="4.95" style="fill:#ebebeb"></rect><rect x="226.82" y="235.88" width="10.43" height="4.95" style="fill:#ebebeb"></rect><rect x="226.82" y="242.16" width="10.43" height="4.95" style="fill:#ebebeb"></rect><polygon points="265.03 219.28 124.24 219.28 168.96 170.31 227.14 170.31 265.03 219.28" style="fill:#e0e0e0"></polygon><rect x="237.62" y="348.41" width="135.49" height="31.31" style="fill:#f0f0f0"></rect><path d="M373.63,378.45H237.11a2.14,2.14,0,0,0-2.14,2.14h0a2.13,2.13,0,0,0,2.14,2.13H373.63a2.13,2.13,0,0,0,2.13-2.13h0A2.13,2.13,0,0,0,373.63,378.45Z" style="fill:#e0e0e0"></path><path d="M250.59,359.64h7.35a8.35,8.35,0,0,0-7.35-7.85Z" style="fill:#fafafa"></path><rect x="250.59" y="361.63" width="7.36" height="6.92" style="fill:#fafafa"></rect><rect x="241.24" y="361.63" width="7.36" height="6.92" style="fill:#fafafa"></rect><rect x="250.59" y="370.54" width="7.36" height="7.92" style="fill:#fafafa"></rect><path d="M248.61,359.64v-7.85a8.35,8.35,0,0,0-7.35,7.85Z" style="fill:#fafafa"></path><rect x="241.24" y="370.54" width="7.36" height="7.92" style="fill:#fafafa"></rect><path d="M287.77,359.64h7.34a8.34,8.34,0,0,0-7.34-7.85Z" style="fill:#fafafa"></path><rect x="287.77" y="361.63" width="7.36" height="6.92" style="fill:#fafafa"></rect><rect x="278.42" y="361.63" width="7.36" height="6.92" style="fill:#fafafa"></rect><rect x="287.77" y="370.54" width="7.36" height="7.92" style="fill:#fafafa"></rect><path d="M285.78,359.64v-7.85a8.35,8.35,0,0,0-7.34,7.85Z" style="fill:#fafafa"></path><rect x="278.42" y="370.54" width="7.36" height="7.92" style="fill:#fafafa"></rect><path d="M325,359.64h7.34a8.34,8.34,0,0,0-7.34-7.85Z" style="fill:#fafafa"></path><rect x="324.95" y="361.63" width="7.36" height="6.92" style="fill:#fafafa"></rect><rect x="315.6" y="361.63" width="7.36" height="6.92" style="fill:#fafafa"></rect><rect x="324.95" y="370.54" width="7.36" height="7.92" style="fill:#fafafa"></rect><path d="M323,359.64v-7.85a8.34,8.34,0,0,0-7.34,7.85Z" style="fill:#fafafa"></path><rect x="315.6" y="370.54" width="7.36" height="7.92" style="fill:#fafafa"></rect><path d="M362.13,359.64h7.34a8.34,8.34,0,0,0-7.34-7.85Z" style="fill:#fafafa"></path><rect x="362.13" y="361.63" width="7.36" height="6.92" style="fill:#fafafa"></rect><rect x="352.78" y="361.63" width="7.36" height="6.92" style="fill:#fafafa"></rect><rect x="362.13" y="370.54" width="7.36" height="7.92" style="fill:#fafafa"></rect><path d="M360.14,359.64v-7.85a8.34,8.34,0,0,0-7.34,7.85Z" style="fill:#fafafa"></path><rect x="352.78" y="370.54" width="7.36" height="7.92" style="fill:#fafafa"></rect><rect x="263.36" y="348.41" width="10.43" height="4.95" style="fill:#ebebeb"></rect><rect x="263.36" y="354.68" width="10.43" height="4.95" style="fill:#ebebeb"></rect><rect x="263.36" y="360.95" width="10.43" height="4.95" style="fill:#ebebeb"></rect><rect x="263.36" y="367.23" width="10.43" height="4.95" style="fill:#ebebeb"></rect><rect x="263.36" y="373.5" width="10.43" height="4.95" style="fill:#ebebeb"></rect><rect x="300.15" y="348.41" width="10.43" height="4.95" style="fill:#ebebeb"></rect><rect x="300.15" y="354.68" width="10.43" height="4.95" style="fill:#ebebeb"></rect><rect x="300.15" y="360.95" width="10.43" height="4.95" style="fill:#ebebeb"></rect><rect x="300.15" y="367.23" width="10.43" height="4.95" style="fill:#ebebeb"></rect><rect x="300.15" y="373.5" width="10.43" height="4.95" style="fill:#ebebeb"></rect><rect x="337.56" y="348.41" width="10.43" height="4.95" style="fill:#ebebeb"></rect><rect x="337.56" y="354.68" width="10.43" height="4.95" style="fill:#ebebeb"></rect><rect x="337.56" y="360.95" width="10.43" height="4.95" style="fill:#ebebeb"></rect><rect x="337.56" y="367.23" width="10.43" height="4.95" style="fill:#ebebeb"></rect><rect x="337.56" y="373.5" width="10.43" height="4.95" style="fill:#ebebeb"></rect><rect x="237.62" y="315.57" width="135.49" height="31.31" style="fill:#f0f0f0"></rect><path d="M373.63,345.62H237.11a2.13,2.13,0,0,0-2.14,2.13h0a2.14,2.14,0,0,0,2.14,2.14H373.63a2.13,2.13,0,0,0,2.13-2.14h0A2.13,2.13,0,0,0,373.63,345.62Z" style="fill:#e0e0e0"></path><path d="M250.59,326.81h7.35a8.36,8.36,0,0,0-7.35-7.86Z" style="fill:#fafafa"></path><rect x="250.59" y="328.79" width="7.36" height="6.92" style="fill:#fafafa"></rect><rect x="241.24" y="328.79" width="7.36" height="6.92" style="fill:#fafafa"></rect><rect x="250.59" y="337.7" width="7.36" height="7.92" style="fill:#fafafa"></rect><path d="M248.61,326.81V319a8.36,8.36,0,0,0-7.35,7.86Z" style="fill:#fafafa"></path><rect x="241.24" y="337.7" width="7.36" height="7.92" style="fill:#fafafa"></rect><path d="M287.77,326.81h7.34a8.36,8.36,0,0,0-7.34-7.86Z" style="fill:#fafafa"></path><rect x="287.77" y="328.79" width="7.36" height="6.92" style="fill:#fafafa"></rect><rect x="278.42" y="328.79" width="7.36" height="6.92" style="fill:#fafafa"></rect><rect x="287.77" y="337.7" width="7.36" height="7.92" style="fill:#fafafa"></rect><path d="M285.78,326.81V319a8.36,8.36,0,0,0-7.34,7.86Z" style="fill:#fafafa"></path><rect x="278.42" y="337.7" width="7.36" height="7.92" style="fill:#fafafa"></rect><path d="M325,326.81h7.34A8.36,8.36,0,0,0,325,319Z" style="fill:#fafafa"></path><rect x="324.95" y="328.79" width="7.36" height="6.92" style="fill:#fafafa"></rect><rect x="315.6" y="328.79" width="7.36" height="6.92" style="fill:#fafafa"></rect><rect x="324.95" y="337.7" width="7.36" height="7.92" style="fill:#fafafa"></rect><path d="M323,326.81V319a8.36,8.36,0,0,0-7.34,7.86Z" style="fill:#fafafa"></path><rect x="315.6" y="337.7" width="7.36" height="7.92" style="fill:#fafafa"></rect><path d="M362.13,326.81h7.34a8.36,8.36,0,0,0-7.34-7.86Z" style="fill:#fafafa"></path><rect x="362.13" y="328.79" width="7.36" height="6.92" style="fill:#fafafa"></rect><rect x="352.78" y="328.79" width="7.36" height="6.92" style="fill:#fafafa"></rect><rect x="362.13" y="337.7" width="7.36" height="7.92" style="fill:#fafafa"></rect><path d="M360.14,326.81V319a8.36,8.36,0,0,0-7.34,7.86Z" style="fill:#fafafa"></path><rect x="352.78" y="337.7" width="7.36" height="7.92" style="fill:#fafafa"></rect><rect x="263.36" y="315.57" width="10.43" height="4.95" style="fill:#ebebeb"></rect><rect x="263.36" y="321.84" width="10.43" height="4.95" style="fill:#ebebeb"></rect><rect x="263.36" y="328.12" width="10.43" height="4.95" style="fill:#ebebeb"></rect><rect x="263.36" y="334.39" width="10.43" height="4.95" style="fill:#ebebeb"></rect><rect x="263.36" y="340.67" width="10.43" height="4.95" style="fill:#ebebeb"></rect><rect x="300.15" y="315.57" width="10.43" height="4.95" style="fill:#ebebeb"></rect><rect x="300.15" y="321.84" width="10.43" height="4.95" style="fill:#ebebeb"></rect><rect x="300.15" y="328.12" width="10.43" height="4.95" style="fill:#ebebeb"></rect><rect x="300.15" y="334.39" width="10.43" height="4.95" style="fill:#ebebeb"></rect><rect x="300.15" y="340.67" width="10.43" height="4.95" style="fill:#ebebeb"></rect><rect x="337.56" y="315.57" width="10.43" height="4.95" style="fill:#ebebeb"></rect><rect x="337.56" y="321.84" width="10.43" height="4.95" style="fill:#ebebeb"></rect><rect x="337.56" y="328.12" width="10.43" height="4.95" style="fill:#ebebeb"></rect><rect x="337.56" y="334.39" width="10.43" height="4.95" style="fill:#ebebeb"></rect><rect x="337.56" y="340.67" width="10.43" height="4.95" style="fill:#ebebeb"></rect><rect x="237.62" y="282.73" width="135.49" height="31.31" style="fill:#f0f0f0"></rect><path d="M373.63,312.78H237.11a2.14,2.14,0,0,0-2.14,2.14h0a2.14,2.14,0,0,0,2.14,2.13H373.63a2.13,2.13,0,0,0,2.13-2.13h0A2.13,2.13,0,0,0,373.63,312.78Z" style="fill:#e0e0e0"></path><path d="M250.59,294h7.35a8.35,8.35,0,0,0-7.35-7.85Z" style="fill:#fafafa"></path><rect x="250.59" y="295.95" width="7.36" height="6.92" style="fill:#fafafa"></rect><rect x="241.24" y="295.95" width="7.36" height="6.92" style="fill:#fafafa"></rect><rect x="250.59" y="304.86" width="7.36" height="7.92" style="fill:#fafafa"></rect><path d="M248.61,294v-7.85a8.35,8.35,0,0,0-7.35,7.85Z" style="fill:#fafafa"></path><rect x="241.24" y="304.86" width="7.36" height="7.92" style="fill:#fafafa"></rect><path d="M287.77,294h7.34a8.34,8.34,0,0,0-7.34-7.85Z" style="fill:#fafafa"></path><rect x="287.77" y="295.95" width="7.36" height="6.92" style="fill:#fafafa"></rect><rect x="278.42" y="295.95" width="7.36" height="6.92" style="fill:#fafafa"></rect><rect x="287.77" y="304.86" width="7.36" height="7.92" style="fill:#fafafa"></rect><path d="M285.78,294v-7.85a8.35,8.35,0,0,0-7.34,7.85Z" style="fill:#fafafa"></path><rect x="278.42" y="304.86" width="7.36" height="7.92" style="fill:#fafafa"></rect><path d="M325,294h7.34a8.34,8.34,0,0,0-7.34-7.85Z" style="fill:#fafafa"></path><rect x="324.95" y="295.95" width="7.36" height="6.92" style="fill:#fafafa"></rect><rect x="315.6" y="295.95" width="7.36" height="6.92" style="fill:#fafafa"></rect><rect x="324.95" y="304.86" width="7.36" height="7.92" style="fill:#fafafa"></rect><path d="M323,294v-7.85a8.34,8.34,0,0,0-7.34,7.85Z" style="fill:#fafafa"></path><rect x="315.6" y="304.86" width="7.36" height="7.92" style="fill:#fafafa"></rect><path d="M362.13,294h7.34a8.34,8.34,0,0,0-7.34-7.85Z" style="fill:#fafafa"></path><rect x="362.13" y="295.95" width="7.36" height="6.92" style="fill:#fafafa"></rect><rect x="352.78" y="295.95" width="7.36" height="6.92" style="fill:#fafafa"></rect><rect x="362.13" y="304.86" width="7.36" height="7.92" style="fill:#fafafa"></rect><path d="M360.14,294v-7.85A8.34,8.34,0,0,0,352.8,294Z" style="fill:#fafafa"></path><rect x="352.78" y="304.86" width="7.36" height="7.92" style="fill:#fafafa"></rect><rect x="263.36" y="282.73" width="10.43" height="4.95" style="fill:#ebebeb"></rect><rect x="263.36" y="289.01" width="10.43" height="4.95" style="fill:#ebebeb"></rect><rect x="263.36" y="295.28" width="10.43" height="4.95" style="fill:#ebebeb"></rect><rect x="263.36" y="301.56" width="10.43" height="4.95" style="fill:#ebebeb"></rect><rect x="263.36" y="307.83" width="10.43" height="4.95" style="fill:#ebebeb"></rect><rect x="300.15" y="282.73" width="10.43" height="4.95" style="fill:#ebebeb"></rect><rect x="300.15" y="289.01" width="10.43" height="4.95" style="fill:#ebebeb"></rect><rect x="300.15" y="295.28" width="10.43" height="4.95" style="fill:#ebebeb"></rect><rect x="300.15" y="301.56" width="10.43" height="4.95" style="fill:#ebebeb"></rect><rect x="300.15" y="307.83" width="10.43" height="4.95" style="fill:#ebebeb"></rect><rect x="337.56" y="282.73" width="10.43" height="4.95" style="fill:#ebebeb"></rect><rect x="337.56" y="289.01" width="10.43" height="4.95" style="fill:#ebebeb"></rect><rect x="337.56" y="295.28" width="10.43" height="4.95" style="fill:#ebebeb"></rect><rect x="337.56" y="301.56" width="10.43" height="4.95" style="fill:#ebebeb"></rect><rect x="337.56" y="307.83" width="10.43" height="4.95" style="fill:#ebebeb"></rect><rect x="237.62" y="249.9" width="135.49" height="31.31" style="fill:#f0f0f0"></rect><path d="M373.63,279.94H237.11a2.14,2.14,0,0,0-2.14,2.14h0a2.13,2.13,0,0,0,2.14,2.13H373.63a2.13,2.13,0,0,0,2.13-2.13h0A2.13,2.13,0,0,0,373.63,279.94Z" style="fill:#e0e0e0"></path><path d="M250.59,261.13h7.35a8.35,8.35,0,0,0-7.35-7.85Z" style="fill:#fafafa"></path><rect x="250.59" y="263.12" width="7.36" height="6.92" style="fill:#fafafa"></rect><rect x="241.24" y="263.12" width="7.36" height="6.92" style="fill:#fafafa"></rect><rect x="250.59" y="272.03" width="7.36" height="7.92" style="fill:#fafafa"></rect><path d="M248.61,261.13v-7.85a8.35,8.35,0,0,0-7.35,7.85Z" style="fill:#fafafa"></path><rect x="241.24" y="272.03" width="7.36" height="7.92" style="fill:#fafafa"></rect><path d="M287.77,261.13h7.34a8.35,8.35,0,0,0-7.34-7.85Z" style="fill:#fafafa"></path><rect x="287.77" y="263.12" width="7.36" height="6.92" style="fill:#fafafa"></rect><rect x="278.42" y="263.12" width="7.36" height="6.92" style="fill:#fafafa"></rect><rect x="287.77" y="272.03" width="7.36" height="7.92" style="fill:#fafafa"></rect><path d="M285.78,261.13v-7.85a8.35,8.35,0,0,0-7.34,7.85Z" style="fill:#fafafa"></path><rect x="278.42" y="272.03" width="7.36" height="7.92" style="fill:#fafafa"></rect><path d="M325,261.13h7.34a8.35,8.35,0,0,0-7.34-7.85Z" style="fill:#fafafa"></path><rect x="324.95" y="263.12" width="7.36" height="6.92" style="fill:#fafafa"></rect><rect x="315.6" y="263.12" width="7.36" height="6.92" style="fill:#fafafa"></rect><rect x="324.95" y="272.03" width="7.36" height="7.92" style="fill:#fafafa"></rect><path d="M323,261.13v-7.85a8.35,8.35,0,0,0-7.34,7.85Z" style="fill:#fafafa"></path><rect x="315.6" y="272.03" width="7.36" height="7.92" style="fill:#fafafa"></rect><path d="M362.13,261.13h7.34a8.35,8.35,0,0,0-7.34-7.85Z" style="fill:#fafafa"></path><rect x="362.13" y="263.12" width="7.36" height="6.92" style="fill:#fafafa"></rect><rect x="352.78" y="263.12" width="7.36" height="6.92" style="fill:#fafafa"></rect><rect x="362.13" y="272.03" width="7.36" height="7.92" style="fill:#fafafa"></rect><path d="M360.14,261.13v-7.85a8.35,8.35,0,0,0-7.34,7.85Z" style="fill:#fafafa"></path><rect x="352.78" y="272.03" width="7.36" height="7.92" style="fill:#fafafa"></rect><rect x="263.36" y="249.9" width="10.43" height="4.95" style="fill:#ebebeb"></rect><rect x="263.36" y="256.17" width="10.43" height="4.95" style="fill:#ebebeb"></rect><rect x="263.36" y="262.45" width="10.43" height="4.95" style="fill:#ebebeb"></rect><rect x="263.36" y="268.72" width="10.43" height="4.95" style="fill:#ebebeb"></rect><rect x="263.36" y="274.99" width="10.43" height="4.95" style="fill:#ebebeb"></rect><rect x="300.15" y="249.9" width="10.43" height="4.95" style="fill:#ebebeb"></rect><rect x="300.15" y="256.17" width="10.43" height="4.95" style="fill:#ebebeb"></rect><rect x="300.15" y="262.45" width="10.43" height="4.95" style="fill:#ebebeb"></rect><rect x="300.15" y="268.72" width="10.43" height="4.95" style="fill:#ebebeb"></rect><rect x="300.15" y="274.99" width="10.43" height="4.95" style="fill:#ebebeb"></rect><rect x="337.56" y="249.9" width="10.43" height="4.95" style="fill:#ebebeb"></rect><rect x="337.56" y="256.17" width="10.43" height="4.95" style="fill:#ebebeb"></rect><rect x="337.56" y="262.45" width="10.43" height="4.95" style="fill:#ebebeb"></rect><rect x="337.56" y="268.72" width="10.43" height="4.95" style="fill:#ebebeb"></rect><rect x="337.56" y="274.99" width="10.43" height="4.95" style="fill:#ebebeb"></rect><rect x="237.62" y="217.06" width="135.49" height="31.31" style="fill:#f0f0f0"></rect><path d="M373.63,247.11H237.11a2.13,2.13,0,0,0-2.14,2.13h0a2.14,2.14,0,0,0,2.14,2.14H373.63a2.13,2.13,0,0,0,2.13-2.14h0A2.13,2.13,0,0,0,373.63,247.11Z" style="fill:#e0e0e0"></path><path d="M250.59,228.3h7.35a8.36,8.36,0,0,0-7.35-7.86Z" style="fill:#fafafa"></path><rect x="250.59" y="230.28" width="7.36" height="6.92" style="fill:#fafafa"></rect><rect x="241.24" y="230.28" width="7.36" height="6.92" style="fill:#fafafa"></rect><rect x="250.59" y="239.19" width="7.36" height="7.92" style="fill:#fafafa"></rect><path d="M248.61,228.3v-7.86a8.36,8.36,0,0,0-7.35,7.86Z" style="fill:#fafafa"></path><rect x="241.24" y="239.19" width="7.36" height="7.92" style="fill:#fafafa"></rect><path d="M287.77,228.3h7.34a8.36,8.36,0,0,0-7.34-7.86Z" style="fill:#fafafa"></path><rect x="287.77" y="230.28" width="7.36" height="6.92" style="fill:#fafafa"></rect><rect x="278.42" y="230.28" width="7.36" height="6.92" style="fill:#fafafa"></rect><rect x="287.77" y="239.19" width="7.36" height="7.92" style="fill:#fafafa"></rect><path d="M285.78,228.3v-7.86a8.36,8.36,0,0,0-7.34,7.86Z" style="fill:#fafafa"></path><rect x="278.42" y="239.19" width="7.36" height="7.92" style="fill:#fafafa"></rect><path d="M325,228.3h7.34a8.36,8.36,0,0,0-7.34-7.86Z" style="fill:#fafafa"></path><rect x="324.95" y="230.28" width="7.36" height="6.92" style="fill:#fafafa"></rect><rect x="315.6" y="230.28" width="7.36" height="6.92" style="fill:#fafafa"></rect><rect x="324.95" y="239.19" width="7.36" height="7.92" style="fill:#fafafa"></rect><path d="M323,228.3v-7.86a8.36,8.36,0,0,0-7.34,7.86Z" style="fill:#fafafa"></path><rect x="315.6" y="239.19" width="7.36" height="7.92" style="fill:#fafafa"></rect><path d="M362.13,228.3h7.34a8.36,8.36,0,0,0-7.34-7.86Z" style="fill:#fafafa"></path><rect x="362.13" y="230.28" width="7.36" height="6.92" style="fill:#fafafa"></rect><rect x="352.78" y="230.28" width="7.36" height="6.92" style="fill:#fafafa"></rect><rect x="362.13" y="239.19" width="7.36" height="7.92" style="fill:#fafafa"></rect><path d="M360.14,228.3v-7.86a8.36,8.36,0,0,0-7.34,7.86Z" style="fill:#fafafa"></path><rect x="352.78" y="239.19" width="7.36" height="7.92" style="fill:#fafafa"></rect><rect x="263.36" y="217.06" width="10.43" height="4.95" style="fill:#ebebeb"></rect><rect x="263.36" y="223.33" width="10.43" height="4.95" style="fill:#ebebeb"></rect><rect x="263.36" y="229.61" width="10.43" height="4.95" style="fill:#ebebeb"></rect><rect x="263.36" y="235.88" width="10.43" height="4.95" style="fill:#ebebeb"></rect><rect x="263.36" y="242.16" width="10.43" height="4.95" style="fill:#ebebeb"></rect><rect x="300.15" y="217.06" width="10.43" height="4.95" style="fill:#ebebeb"></rect><rect x="300.15" y="223.33" width="10.43" height="4.95" style="fill:#ebebeb"></rect><rect x="300.15" y="229.61" width="10.43" height="4.95" style="fill:#ebebeb"></rect><rect x="300.15" y="235.88" width="10.43" height="4.95" style="fill:#ebebeb"></rect><rect x="300.15" y="242.16" width="10.43" height="4.95" style="fill:#ebebeb"></rect><rect x="337.56" y="217.06" width="10.43" height="4.95" style="fill:#ebebeb"></rect><rect x="337.56" y="223.33" width="10.43" height="4.95" style="fill:#ebebeb"></rect><rect x="337.56" y="229.61" width="10.43" height="4.95" style="fill:#ebebeb"></rect><rect x="337.56" y="235.88" width="10.43" height="4.95" style="fill:#ebebeb"></rect><rect x="337.56" y="242.16" width="10.43" height="4.95" style="fill:#ebebeb"></rect><polygon points="375.76 219.28 234.97 219.28 279.7 170.31 337.87 170.31 375.76 219.28" style="fill:#e0e0e0"></polygon><polygon points="301.64 175.3 300.82 204.59 300.64 211.06 299.57 248.78 299.5 251.36 299.28 259.52 299.12 264.69 299.12 264.74 298.55 285.52 298.55 285.56 298.1 301.53 298.03 304.13 297.8 311.86 297.74 314.45 297.62 318.44 277.79 318.44 277.79 175.3 301.64 175.3" style="fill:#e0e0e0"></polygon><polygon points="301.64 175.3 300.82 204.59 300.64 211.06 299.57 248.78 299.5 251.36 299.28 259.52 299.12 264.69 299.12 264.74 298.55 285.52 298.55 285.56 298.1 301.53 298.03 304.13 297.8 311.86 297.74 314.45 297.62 318.44 277.79 318.44 277.79 175.3 301.64 175.3" style="fill:#fafafa"></polygon><polygon points="222.3 175.3 222.3 318.44 202.46 318.44 202.35 314.45 202.28 311.86 202.05 304.13 201.99 301.53 201.53 285.21 200.96 264.74 200.96 264.69 200.81 259.52 200.58 251.36 200.51 248.78 199.44 211.06 199.26 204.59 198.44 175.3 222.3 175.3" style="fill:#e0e0e0"></polygon><polygon points="222.3 175.3 222.3 318.44 202.46 318.44 202.35 314.45 202.28 311.86 202.05 304.13 201.99 301.53 201.53 285.21 200.96 264.74 200.96 264.69 200.81 259.52 200.58 251.36 200.51 248.78 199.44 211.06 199.26 204.59 198.44 175.3 222.3 175.3" style="fill:#fafafa"></polygon><rect x="221.98" y="196.1" width="55.81" height="122.35" style="fill:#e0e0e0"></rect><rect x="221.98" y="196.1" width="55.81" height="122.35" style="fill:#ebebeb"></rect><polygon points="277.77 175.14 301.61 175.14 304.1 171.49 275.29 171.49 277.77 175.14" style="fill:#e0e0e0"></polygon><polygon points="275.18 171.46 304.2 171.46 289.54 127.85 275.18 171.46" style="fill:#e0e0e0"></polygon><rect x="288.14" y="116.44" width="2.75" height="16.75" transform="translate(579.03 249.64) rotate(180)" style="fill:#e0e0e0"></rect><rect x="288.57" y="117.45" width="2.25" height="11.94" transform="translate(166.27 413.11) rotate(-90)" style="fill:#e0e0e0"></rect><polygon points="198.45 175.14 222.28 175.14 224.77 171.49 195.96 171.49 198.45 175.14" style="fill:#e0e0e0"></polygon><polygon points="195.85 171.46 224.88 171.46 210.22 127.85 195.85 171.46" style="fill:#e0e0e0"></polygon><rect x="208.82" y="116.44" width="2.75" height="16.75" transform="translate(420.38 249.64) rotate(180)" style="fill:#e0e0e0"></rect><rect x="209.24" y="117.45" width="2.25" height="11.94" transform="translate(86.95 333.79) rotate(-90)" style="fill:#e0e0e0"></rect><polygon points="275.69 264.74 275.69 269.24 277.91 285.56 281.4 272.24 286.69 283.29 288.23 286.51 289.77 283.29 295.06 272.24 298.56 285.56 300.3 269.24 300.3 264.74 275.69 264.74" style="fill:#e0e0e0"></polygon><g style="opacity:0.4"><polygon points="275.69 264.74 275.69 269.24 277.91 285.56 281.4 272.24 286.69 283.29 288.23 286.51 289.77 283.29 295.06 272.24 298.56 285.56 300.3 269.24 300.3 264.74 275.69 264.74" style="fill:#fafafa"></polygon></g><polygon points="199.22 264.74 199.22 269.24 201.44 285.56 204.93 272.24 210.22 283.29 211.75 286.51 213.3 283.29 218.59 272.24 222.08 285.56 223.82 269.24 223.82 264.74 199.22 264.74" style="fill:#e0e0e0"></polygon><g style="opacity:0.4"><polygon points="199.22 264.74 199.22 269.24 201.44 285.56 204.93 272.24 210.22 283.29 211.75 286.51 213.3 283.29 218.59 272.24 222.08 285.56 223.82 269.24 223.82 264.74 199.22 264.74" style="fill:#fafafa"></polygon></g><polygon points="198.99 211.06 301.01 211.06 304.4 204.59 195.6 204.59 198.99 211.06" style="fill:#e0e0e0"></polygon><polygon points="199.22 264.69 300.2 264.69 303.81 259.52 195.61 259.52 199.22 264.69" style="fill:#e0e0e0"></polygon><polygon points="200.5 251.36 300.2 251.36 303.81 248.77 196.89 248.77 200.5 251.36" style="fill:#e0e0e0"></polygon><polygon points="200.96 304.12 298.85 304.12 302.46 301.54 197.35 301.54 200.96 304.12" style="fill:#e0e0e0"></polygon><polygon points="200.96 314.44 298.85 314.44 302.46 311.86 197.35 311.86 200.96 314.44" style="fill:#e0e0e0"></polygon><rect x="261.3" y="284.98" width="9.75" height="18.43" transform="translate(532.35 588.39) rotate(180)" style="fill:#e0e0e0"></rect><path d="M262.26,285v.79h7.83V285Zm-1.93-.79v20H272v-20Zm9.76,18.43h-7.83V285.77h7.83Z" style="fill:#fafafa"></path><rect x="261.3" y="292.51" width="9.75" height="1.58" style="fill:#fafafa"></rect><polygon points="257.28 290.55 262.26 290.55 262.26 282.25 270.08 282.25 270.08 290.55 275.38 290.55 275.38 288.97 272.01 288.97 272.01 280.67 260.33 280.67 260.33 288.97 257.28 288.97 257.28 290.55" style="fill:#fafafa"></polygon><rect x="244.5" y="284.98" width="9.75" height="18.43" transform="translate(498.75 588.39) rotate(180)" style="fill:#e0e0e0"></rect><path d="M243.54,284.19v20H255.2v-20Zm9.74,18.43h-7.81V285.77h7.81Z" style="fill:#fafafa"></path><rect x="244.5" y="292.51" width="9.75" height="1.58" style="fill:#fafafa"></rect><polygon points="240.48 290.55 245.46 290.55 245.46 282.25 253.28 282.25 253.28 290.55 260.98 290.55 260.98 288.97 255.21 288.97 255.21 280.67 243.53 280.67 243.53 288.97 240.48 288.97 240.48 290.55" style="fill:#fafafa"></polygon><rect x="227.7" y="284.98" width="9.75" height="18.43" transform="translate(465.14 588.39) rotate(180)" style="fill:#e0e0e0"></rect><path d="M226.72,284.19v20h11.69v-20Zm9.76,18.43h-7.83V285.77h7.83Z" style="fill:#fafafa"></path><rect x="227.7" y="292.51" width="9.75" height="1.58" style="fill:#fafafa"></rect><polygon points="223.68 290.55 228.66 290.55 228.66 282.25 236.48 282.25 236.48 290.55 244.18 290.55 244.18 288.97 238.41 288.97 238.41 280.67 226.73 280.67 226.73 288.97 223.68 288.97 223.68 290.55" style="fill:#fafafa"></polygon><rect x="264.81" y="212.35" width="9.75" height="18.43" transform="translate(539.38 443.12) rotate(180)" style="fill:#e0e0e0"></rect><path d="M263.85,211.56v20h11.67v-20ZM273.61,230h-7.83V213.14h7.83Z" style="fill:#fafafa"></path><rect x="264.81" y="219.88" width="9.75" height="1.58" style="fill:#fafafa"></rect><polygon points="260.8 217.92 265.78 217.92 265.78 209.62 273.6 209.62 273.6 217.92 278.89 217.92 278.89 216.34 275.53 216.34 275.53 208.04 263.85 208.04 263.85 216.34 260.8 216.34 260.8 217.92" style="fill:#fafafa"></polygon><rect x="225.12" y="212.35" width="9.75" height="18.43" transform="translate(459.99 443.12) rotate(180)" style="fill:#e0e0e0"></rect><path d="M224.16,211.56v20h11.66v-20ZM233.92,230h-7.83V213.14h7.83Z" style="fill:#fafafa"></path><rect x="225.12" y="219.88" width="9.75" height="1.58" style="fill:#fafafa"></rect><polygon points="221.1 217.92 226.08 217.92 226.08 209.62 233.91 209.62 233.91 217.92 241.22 217.92 241.22 216.34 235.83 216.34 235.83 208.04 224.16 208.04 224.16 216.34 221.1 216.34 221.1 217.92" style="fill:#fafafa"></polygon><rect x="240.29" y="212.35" width="20.32" height="18.43" transform="translate(500.9 443.12) rotate(180)" style="fill:#e0e0e0"></rect><path d="M239.32,211.56v20h22.24v-20Zm1.93,1.58h18.4V230h-18.4Z" style="fill:#fafafa"></path><rect x="252.81" y="212.34" width="1.93" height="18.44" style="fill:#fafafa"></rect><rect x="245.95" y="212.34" width="1.93" height="18.44" style="fill:#fafafa"></rect><rect x="240.29" y="219.88" width="20.32" height="1.58" style="fill:#fafafa"></rect><path d="M259.78,217.53l1.65-.81-2.15-2.93a2.83,2.83,0,0,0-4.33,0l-2,2.91,1.68.78,2-2.91a.62.62,0,0,1,.5-.24.63.63,0,0,1,.5.23Z" style="fill:#fafafa"></path><path d="M253,217.53l1.65-.81-2.15-2.93a2.83,2.83,0,0,0-4.33,0l-2,2.91,1.68.78,2-2.91a.62.62,0,0,1,.5-.24.63.63,0,0,1,.5.23Z" style="fill:#fafafa"></path><path d="M246.3,217.53l1.65-.81-2.15-2.93a2.65,2.65,0,0,0-2.15-1h0a2.6,2.6,0,0,0-2.15,1l-2,2.91,1.68.78,2-2.91a.64.64,0,0,1,.5-.24.63.63,0,0,1,.5.23Z" style="fill:#fafafa"></path><rect x="249.86" y="86.55" width="2.75" height="15.4" transform="translate(502.47 188.49) rotate(180)" style="fill:#e0e0e0"></rect><rect x="250.29" y="88.5" width="2.25" height="11.94" transform="translate(156.95 345.88) rotate(-90)" style="fill:#e0e0e0"></rect><polygon points="247.11 113.64 254.46 113.64 254.99 101.85 246.58 101.85 247.11 113.64" style="fill:#e0e0e0"></polygon><polygon points="254.7 113.64 247.35 113.64 216.53 196.09 285.52 196.09 254.7 113.64" style="fill:#e0e0e0"></polygon><polygon points="230.91 184.26 234.46 186.88 234.46 196.09 250.94 196.09 267.1 196.09 267.1 186.88 270.67 184.26 266.75 180.67 266.75 170.2 264.06 168.07 264.06 162.32 265.79 160.63 258.45 160.63 260.54 162.61 260.54 165.05 251.45 153.42 250.79 152.56 250.12 153.42 241.04 165.05 241.04 162.61 243.12 160.63 235.78 160.63 237.52 162.32 237.52 168.07 234.83 170.2 234.83 180.67 230.91 184.26" style="fill:#fafafa"></polygon><rect x="240.58" y="175.14" width="20.31" height="18.43" transform="translate(501.47 368.72) rotate(180)" style="fill:#e0e0e0"></rect><path d="M239.61,174.35v20h22.24v-20Zm20.32,18.44H241.54V175.93h18.39Z" style="fill:#fafafa"></path><rect x="253.09" y="175.14" width="1.93" height="18.43" style="fill:#fafafa"></rect><rect x="246.24" y="175.14" width="1.93" height="18.43" style="fill:#fafafa"></rect><rect x="240.58" y="182.67" width="20.31" height="1.58" style="fill:#fafafa"></rect><path d="M260.07,180.33l1.65-.81-2.15-2.93a2.65,2.65,0,0,0-2.18-1,2.62,2.62,0,0,0-2.15,1l-2,2.9,1.67.79,2-2.91a.66.66,0,0,1,1,0Z" style="fill:#fafafa"></path><path d="M253.33,180.33l1.65-.81-2.15-2.93a2.66,2.66,0,0,0-2.18-1,2.62,2.62,0,0,0-2.15,1l-2,2.9,1.67.79,2-2.91a.62.62,0,0,1,.51-.24.65.65,0,0,1,.5.23Z" style="fill:#fafafa"></path><path d="M246.59,180.33l1.65-.81-2.15-2.93a2.69,2.69,0,0,0-2.18-1,2.62,2.62,0,0,0-2.15,1l-2,2.9,1.67.79,2-2.91a.6.6,0,0,1,.51-.24.65.65,0,0,1,.5.23Z" style="fill:#fafafa"></path><polygon points="224.11 231.77 224.11 248.51 230.3 248.51 230.3 241.43 236.91 241.43 236.91 250.29 239.46 250.29 239.46 247.14 261.89 247.14 261.89 250.29 264.45 250.29 264.45 241.43 271.05 241.43 271.05 248.51 275.69 248.51 275.69 231.77 224.11 231.77" style="fill:#e0e0e0"></polygon><g style="opacity:0.7000000000000001"><rect x="270.86" y="233.23" width="3.51" height="6.05" transform="translate(545.23 472.51) rotate(180)" style="fill:#fafafa"></rect><rect x="270.86" y="241.11" width="3.51" height="6.05" transform="translate(545.23 488.26) rotate(180)" style="fill:#fafafa"></rect><rect x="225.17" y="233.23" width="3.51" height="6.05" transform="translate(453.85 472.51) rotate(180)" style="fill:#fafafa"></rect><rect x="225.17" y="241.11" width="3.51" height="6.05" transform="translate(453.85 488.26) rotate(180)" style="fill:#fafafa"></rect><rect x="259.37" y="231.54" width="3.51" height="6.05" transform="translate(522.26 469.13) rotate(180)" style="fill:#fafafa"></rect><rect x="238.08" y="231.54" width="3.51" height="6.05" transform="translate(479.67 469.13) rotate(180)" style="fill:#fafafa"></rect><rect x="259.37" y="241.11" width="3.51" height="6.05" style="fill:#fafafa"></rect><rect x="252.28" y="241.11" width="3.51" height="6.05" style="fill:#fafafa"></rect><rect x="245.18" y="241.11" width="3.51" height="6.05" style="fill:#fafafa"></rect><rect x="238.09" y="241.11" width="3.51" height="6.05" style="fill:#fafafa"></rect><rect x="235.99" y="237.59" width="29.94" height="1.69" transform="translate(501.93 476.87) rotate(180)" style="fill:#fafafa"></rect><polygon points="236.86 241.03 265.07 241.03 265.58 240.63 236.35 240.63 236.86 241.03" style="fill:#fafafa"></polygon></g><g style="opacity:0.2"><rect x="237.34" y="193.58" width="26.89" height="11.01" transform="translate(501.57 398.17) rotate(180)" style="fill:#fafafa"></rect></g><rect x="80.65" y="318.95" width="6.34" height="63.84" style="fill:#f0f0f0"></rect><path d="M90.66,334.39H78.06a9.73,9.73,0,0,1-9.7-10.58L74.67,252a9.73,9.73,0,0,1,9.69-8.88h0a9.74,9.74,0,0,1,9.7,8.88l6.3,71.78A9.73,9.73,0,0,1,90.66,334.39Z" style="fill:#ebebeb"></path><rect x="411.93" y="318.95" width="6.34" height="63.84" style="fill:#f0f0f0"></rect><path d="M421.94,334.39h-12.6a9.73,9.73,0,0,1-9.7-10.58l6.3-71.78a9.74,9.74,0,0,1,9.7-8.88h0a9.73,9.73,0,0,1,9.69,8.88l6.31,71.78A9.73,9.73,0,0,1,421.94,334.39Z" style="fill:#ebebeb"></path><path d="M87.66,132.85c9.58,0,36.43,4.43,36.43-11.85,0-13.83-13.12-12.81-13.12-12.81s.38-12-11.31-13.58c-12-1.63-13.81,11.31-13.81,11.31S65,97.68,68.2,118.37c0,0-11.54-2.3-11.54,7C56.66,135.79,78.39,132.82,87.66,132.85Z" style="fill:#f0f0f0"></path><path d="M363.3,147.2c12.68,0,48.24,5.86,48.24-15.69,0-18.31-17.38-17-17.38-17s.5-15.86-15-18c-15.88-2.17-18.27,15-18.27,15S333.34,100.63,337.54,128c0,0-15.28-3-15.28,9.28C322.26,151.09,351,147.16,363.3,147.2Z" style="fill:#f5f5f5"></path><path d="M401.26,152.85c-7,0-26.68,3.24-26.68-8.68,0-10.13,9.61-9.38,9.61-9.38s-.28-8.78,8.29-9.95c8.78-1.2,10.11,8.29,10.11,8.29s15.25-6,12.93,9.11c0,0,8.45-1.68,8.45,5.14C424,155,408.06,152.83,401.26,152.85Z" style="fill:#ebebeb"></path></g><g id="freepik--Shadow--inject-175"><ellipse id="freepik--path--inject-175" cx="250" cy="412.39" rx="193.89" ry="11.32" style="fill:#f5f5f5"></ellipse></g><g id="freepik--Limousine--inject-175"><path d="M450.43,395.3l-360,2.44a102.61,102.61,0,0,1-38.9-7.37l-4.34-1.73c-2.69-1.08-4.47-2.45-5.23-5.27a9.68,9.68,0,0,1,.51-6.23l6.94-16.67c8.75-16.55,17.14-18,31-18l288.74,2.64,58.56,3.36a21.62,21.62,0,0,1,17.18,10.29l8.39,13.71Z" style="fill:#407BFF"></path><path d="M453.29,372.52l-2.86,22.78-360,2.44a102.7,102.7,0,0,1-38.91-7.37l-4.33-1.73a13.39,13.39,0,0,1-1.86-.89,6.93,6.93,0,0,1-2.42-2.23,2.13,2.13,0,0,1-.16-.25,7,7,0,0,1-.71-1.62,11.38,11.38,0,0,1,.43-1.24l6.93-16.66c8.76-16.55,17.15-17.95,31-17.95l292.34,2.64,58.56,3.36a21.61,21.61,0,0,1,15,7.34l6.28,10.26Z" style="opacity:0.1"></path><path d="M453.29,372.52l-2.86,22.78-360,2.44a102.7,102.7,0,0,1-38.91-7.37l-4.33-1.73a13.39,13.39,0,0,1-1.86-.89l-2.42-2.23-.2-.18,0-.07c8.74-16.49,17.13-19.88,31-19.88L389,368l63.56,3.36h.09Z" style="opacity:0.1"></path><path d="M446.32,361.14a21.61,21.61,0,0,0-15-7.34l-58.56-3.36L80.42,347.8c-13.89,0-22.28,1.4-31,17.95l-6.93,16.66a11.38,11.38,0,0,0-.43,1.24c0-.09-.06-.19-.09-.28a9.68,9.68,0,0,1,.52-6.23l6.93-16.67c8.76-16.55,17.15-18,31-18l288.74,2.64,58.56,3.36a21.62,21.62,0,0,1,17.18,10.29Z" style="fill:#fff;opacity:0.5"></path><path d="M80.42,342.52s15.23-3.26,50-17.67c12.76-5.29,26.1-9.11,39.9-9.84l42.1-2.25a339.57,339.57,0,0,1,40.73.28L281.59,315a109.5,109.5,0,0,1,34.93,8.22l52.64,22Z" style="fill:#407BFF"></path><path d="M80.42,342.52s15.23-3.26,50-17.67c12.76-5.29,26.1-9.11,39.9-9.84l42.1-2.25a339.57,339.57,0,0,1,40.73.28L281.59,315a109.5,109.5,0,0,1,34.93,8.22l52.64,22Z" style="opacity:0.30000000000000004"></path><path d="M366.09,367.28H51.21c-1.7,0-3.07.49-3.07,1.08h0c0,.6,1.37,1.08,3.07,1.08H366.09c1.7,0,3.07-.48,3.07-1.08h0C369.16,367.77,367.79,367.28,366.09,367.28Z" style="fill:#fff"></path><path d="M97.19,397.7v-6.91a25.81,25.81,0,0,1,7.32-18l1.83-1.89a25.87,25.87,0,0,1,18.53-7.83h4.69a25.86,25.86,0,0,1,20.73,10.41h0a25.88,25.88,0,0,1,5.12,15.45v8.79Z"></path><circle cx="127.51" cy="388.26" r="23.2" transform="translate(-237.19 203.88) rotate(-45)" style="fill:#263238"></circle><circle cx="127.57" cy="388.27" r="14.96" transform="translate(-85.79 39.7) rotate(-13.28)" style="fill:#fff;opacity:0.5"></circle><path d="M141.06,388.26a13,13,0,0,1-.14,1.88,13.39,13.39,0,0,1-2.51,6.16,12.85,12.85,0,0,1-2.69,2.72,13.64,13.64,0,0,1-8.22,2.79,13.8,13.8,0,0,1-1.82-.13,13.4,13.4,0,0,1-6.16-2.48,13.1,13.1,0,0,1-2.85-2.81,13.41,13.41,0,0,1-2.56-6.14,13.14,13.14,0,0,1-.16-2,13.79,13.79,0,0,1,2.73-8.16,13.75,13.75,0,0,1,2.85-2.8,13.52,13.52,0,0,1,8-2.59,13.1,13.1,0,0,1,2.09.16,13.33,13.33,0,0,1,6.13,2.61,13.76,13.76,0,0,1,2.68,2.71,13.55,13.55,0,0,1,2.52,6.17A13.17,13.17,0,0,1,141.06,388.26Z" style="fill:#fff;opacity:0.30000000000000004"></path><circle cx="127.48" cy="388.38" r="10.6" transform="translate(-279.8 423.22) rotate(-76.72)" style="fill:#fff;opacity:0.4"></circle><circle cx="127.48" cy="388.49" r="6.78" style="opacity:0.2"></circle><path d="M130.71,388.4a3.31,3.31,0,1,1-3.31-3.31A3.31,3.31,0,0,1,130.71,388.4Z" style="fill:#fff"></path><path d="M129.59,374.87a2.1,2.1,0,0,1-1.93,1.24,2.14,2.14,0,0,1-2-1.28,13.53,13.53,0,0,1,1.81-.12A13.1,13.1,0,0,1,129.59,374.87Z" style="fill:#263238"></path><path d="M129.6,401.64a13.22,13.22,0,0,1-2.1.17,13.8,13.8,0,0,1-1.82-.13,2.14,2.14,0,0,1,3.92,0Z" style="fill:#263238"></path><path d="M119.07,379.67a2.11,2.11,0,0,1-2.39.43,13.75,13.75,0,0,1,2.85-2.8A2.13,2.13,0,0,1,119.07,379.67Z" style="fill:#263238"></path><path d="M138.41,396.3a12.85,12.85,0,0,1-2.69,2.72,2.15,2.15,0,0,1,2.69-2.72Z" style="fill:#263238"></path><path d="M115.52,388.25a2.11,2.11,0,0,1-1.41,2,13.14,13.14,0,0,1-.16-2,13.43,13.43,0,0,1,.16-2A2.12,2.12,0,0,1,115.52,388.25Z" style="fill:#263238"></path><path d="M141.06,388.26a13,13,0,0,1-.14,1.88,2.15,2.15,0,0,1,0-3.78A13.17,13.17,0,0,1,141.06,388.26Z" style="fill:#263238"></path><path d="M119.52,399.2a13.1,13.1,0,0,1-2.85-2.81,2.13,2.13,0,0,1,2.4.44A2.11,2.11,0,0,1,119.52,399.2Z" style="fill:#263238"></path><path d="M138.4,380.19a2.14,2.14,0,0,1-2.68-2.71A13.76,13.76,0,0,1,138.4,380.19Z" style="fill:#263238"></path><path d="M374.7,395.41V388.5a25.85,25.85,0,0,1,7.32-18l1.84-1.89a25.86,25.86,0,0,1,18.53-7.83h4.68a25.85,25.85,0,0,1,20.73,10.41h0a25.82,25.82,0,0,1,5.12,15.45v8.79Z"></path><circle cx="405.02" cy="385.97" r="23.2" style="fill:#263238"></circle><circle cx="405.09" cy="385.97" r="14.96" transform="translate(-154.28 399.49) rotate(-45)" style="fill:#fff;opacity:0.5"></circle><path d="M418.57,386a13,13,0,0,1-.13,1.89,13.52,13.52,0,0,1-2.52,6.16,13.63,13.63,0,0,1-10.9,5.51,13.68,13.68,0,0,1-1.82-.13,13.35,13.35,0,0,1-6.16-2.48,12.88,12.88,0,0,1-2.85-2.81,13.36,13.36,0,0,1-2.57-6.14,13.17,13.17,0,0,1-.15-2A13.62,13.62,0,0,1,405,372.41a14.6,14.6,0,0,1,2.09.16A13.52,13.52,0,0,1,418.57,386Z" style="fill:#fff;opacity:0.30000000000000004"></path><circle cx="405" cy="386.09" r="10.6" transform="translate(-63.81 691.55) rotate(-76.72)" style="fill:#fff;opacity:0.4"></circle><path d="M411.78,386.2a6.79,6.79,0,1,1-6.78-6.78A6.79,6.79,0,0,1,411.78,386.2Z" style="opacity:0.2"></path><path d="M408.23,386.11a3.31,3.31,0,1,1-3.31-3.31A3.31,3.31,0,0,1,408.23,386.11Z" style="fill:#fff"></path><path d="M407.11,372.57a2.1,2.1,0,0,1-1.94,1.25,2.14,2.14,0,0,1-2-1.28,13.41,13.41,0,0,1,1.81-.13A14.6,14.6,0,0,1,407.11,372.57Z" style="fill:#263238"></path><path d="M407.12,399.35a13.32,13.32,0,0,1-2.1.17,13.68,13.68,0,0,1-1.82-.13,2.14,2.14,0,0,1,3.92,0Z" style="fill:#263238"></path><path d="M396.59,377.37a2.1,2.1,0,0,1-2.39.44A13.46,13.46,0,0,1,397,375,2.13,2.13,0,0,1,396.59,377.37Z" style="fill:#263238"></path><path d="M415.92,394a13.29,13.29,0,0,1-2.68,2.72,2.14,2.14,0,0,1,2.68-2.72Z" style="fill:#263238"></path><path d="M393,386a2.13,2.13,0,0,1-1.42,2,13.17,13.17,0,0,1-.15-2,13.4,13.4,0,0,1,.15-2A2.13,2.13,0,0,1,393,386Z" style="fill:#263238"></path><path d="M418.57,386a13,13,0,0,1-.13,1.89,2.15,2.15,0,0,1,0-3.79A13.38,13.38,0,0,1,418.57,386Z" style="fill:#263238"></path><path d="M397,396.91a12.88,12.88,0,0,1-2.85-2.81,2.15,2.15,0,0,1,2.85,2.81Z" style="fill:#263238"></path><path d="M415.91,377.9a2.13,2.13,0,0,1-2.67-2.71A13.45,13.45,0,0,1,415.91,377.9Z" style="fill:#263238"></path><path d="M427.8,371.17h24.47a3,3,0,0,1,2.92,3.12v4.11a3,3,0,0,1-2.89,3.12l-19.32.19h0a24.69,24.69,0,0,0-4.21-9.24Z" style="fill:#407BFF"></path><polygon points="432.93 391 450.86 391 451.5 395.41 432.93 395.41 432.93 391" style="fill:#407BFF"></polygon><path d="M148.69,338.9S163,321.28,181,319c14.28-1.81,41.74-3,66.37-2.48,6.9.15,54.54,0,65.14,9.15l32,15.84Z"></path><g style="opacity:0.30000000000000004"><path d="M217.89,392.53c-28.07,0-50.07-.08-53.08-.32-9.13-.72-15.88-47.87-16.61-53.24l0-.24.17-.17c18-18.76,32-20,32.64-20.07,24.68-5.24,109.42-.94,121.31,2.07,3.08.78,24.78,11.61,42.45,20.56a17.44,17.44,0,0,1,9.56,15.63v31.67a3.82,3.82,0,0,1-3.8,3.81C331.82,392.3,266,392.53,217.89,392.53Zm-68.67-53.46c2,14.56,8.66,51.59,15.67,52.15,8.12.64,156,.12,185.6,0a2.82,2.82,0,0,0,2.8-2.81V356.75a16.39,16.39,0,0,0-9-14.7c-25-12.66-40-19.93-42.3-20.52-11.85-3-96.28-7.28-120.93-2C180.91,319.5,166.87,320.8,149.22,339.07Z"></path></g><g style="opacity:0.30000000000000004"><rect x="223.28" y="317.9" width="1" height="73.82"></rect><rect x="271.98" y="317.9" width="1" height="73.82"></rect></g><path d="M290.63,350.31a1.45,1.45,0,0,1-.65,1.1c-1.19,1-3.9,1.66-7.07,1.66s-5.88-.68-7.07-1.66a1.45,1.45,0,0,1-.65-1.1,1.52,1.52,0,0,1,.69-1.14c1.22-.95,3.91-1.61,7-1.61s5.81.66,7,1.61A1.49,1.49,0,0,1,290.63,350.31Z" style="fill:#fff;opacity:0.30000000000000004"></path><path d="M290.63,350.31a1.45,1.45,0,0,1-.65,1.1H275.84a1.45,1.45,0,0,1-.65-1.1,1.52,1.52,0,0,1,.69-1.14h14.06A1.49,1.49,0,0,1,290.63,350.31Z" style="fill:#fff"></path><path d="M171.37,349.71a1.45,1.45,0,0,1-.65,1.1c-1.19,1-3.91,1.66-7.07,1.66s-5.88-.68-7.07-1.66a1.46,1.46,0,0,1-.66-1.1,1.5,1.5,0,0,1,.7-1.14c1.22-.95,3.91-1.61,7-1.61s5.81.66,7,1.61A1.5,1.5,0,0,1,171.37,349.71Z" style="fill:#fff;opacity:0.30000000000000004"></path><path d="M171.37,349.71a1.45,1.45,0,0,1-.65,1.1H156.58a1.46,1.46,0,0,1-.66-1.1,1.5,1.5,0,0,1,.7-1.14h14A1.5,1.5,0,0,1,171.37,349.71Z" style="fill:#fff"></path><path d="M331.22,340.71v.87a2,2,0,0,0,2,2h0a2,2,0,0,0,2-2v-1.73Z" style="fill:#407BFF"></path><path d="M331.22,340.71v.87a2,2,0,0,0,2,2h0a2,2,0,0,0,2-2v-1.73Z" style="opacity:0.1"></path><path d="M334,341.3h-6.73v-8.78l2.93,1.61a11.66,11.66,0,0,1,5,5.32h0A1.3,1.3,0,0,1,334,341.3Z" style="fill:#407BFF"></path><path d="M74.05,347.81l-.23.18L48.37,368.18l-.23.18s3.92-19.19,13.19-20.55S74.05,347.81,74.05,347.81Z" style="fill:#fff;opacity:0.7000000000000001"></path><path d="M441.81,364.85c-3.95-6.6-5.79-7.65-10.19-9.81l-1.83-.9,1.13.06a21.61,21.61,0,0,1,15,7.34l5.67,9.26C451.7,371.29,443.75,368.07,441.81,364.85Z" style="fill:#fff;opacity:0.8"></path><path d="M445.92,361.54s-5.39,1-3.71,3.85,8.34,3.71,8.34,3.71Z" style="fill:#fff"></path></g><g id="freepik--Character--inject-175"><polygon points="257.88 399.9 258.71 407.69 262.81 407.69 262.55 398.75 257.88 399.9" style="fill:#dd8c6a"></polygon><polygon points="262.59 400.32 258 400.87 258.32 404.01 262.68 403.42 262.59 400.32" style="opacity:0.2"></polygon><path d="M263.29,406.66h-4.85a.38.38,0,0,0-.37.31l-.74,3.94a.68.68,0,0,0,.67.79c1.75,0,4.27-.13,6.47-.13,2.57,0,2.58.14,5.6.14,1.82,0,2.26-1.84,1.49-2-3.5-.76-4.12-.84-7.19-2.69A2.13,2.13,0,0,0,263.29,406.66Z" style="fill:#263238"></path><path d="M265.13,407.4c.57,0,1.11-.07,1.29-.33a.4.4,0,0,0,0-.46.61.61,0,0,0-.35-.25c-.74-.2-2.26.69-2.33.73a.12.12,0,0,0-.05.1.12.12,0,0,0,.09.09A7.7,7.7,0,0,0,265.13,407.4Zm.67-.86.21,0a.34.34,0,0,1,.21.14c.08.13,0,.2,0,.24-.19.28-1.31.29-2.14.17A4.57,4.57,0,0,1,265.8,406.54Z" style="fill:#407BFF"></path><path d="M263.78,407.28h0c.53-.24,1.56-1.2,1.46-1.7,0-.12-.11-.26-.4-.29a.69.69,0,0,0-.58.18,2.94,2.94,0,0,0-.63,1.71.12.12,0,0,0,.05.09Zm1-1.8h.06c.19,0,.21.09.21.11.06.3-.63,1.06-1.17,1.39a2.41,2.41,0,0,1,.54-1.37A.56.56,0,0,1,264.8,405.48Z" style="fill:#407BFF"></path><path d="M263.86,402l-6.76.72L253,363.23l-5.74-27.85-2.72-13.21-1.2-5.79,3.14-2.07,1.73-1.15,4.85-.79,2.62,4.23c.14,1.2.39,2.87.73,4.93,1.44,8.72,4.34,24.36,5.75,39.52C264.06,381.8,263.86,402,263.86,402Z" style="fill:#263238"></path><polygon points="250.66 351.19 244.36 321.43 248.19 323.78 250.66 351.19" style="opacity:0.2"></polygon><polygon points="237.06 399.39 237.24 407.23 241.52 407.14 241.81 398.64 237.06 399.39" style="fill:#dd8c6a"></polygon><path d="M242.19,407.25a.12.12,0,0,1-.08-.09.09.09,0,0,1,0-.1c.07,0,1.58-.89,2.3-.68a.49.49,0,0,1,.32.24.39.39,0,0,1,0,.45,1.83,1.83,0,0,1-1.28.31A7.38,7.38,0,0,1,242.19,407.25Zm.34-.14c.8.11,1.89.11,2.09-.17,0,0,.06-.09,0-.22a.25.25,0,0,0-.2-.14.63.63,0,0,0-.19,0A4.76,4.76,0,0,0,242.53,407.11Z" style="fill:#407BFF"></path><path d="M242.14,407.24a.12.12,0,0,1,0-.09,3,3,0,0,1,.69-1.67.79.79,0,0,1,.57-.17c.28,0,.37.18.38.3.09.48-1,1.41-1.48,1.63h-.11Zm1.14-1.73a.5.5,0,0,0-.35.12,2.41,2.41,0,0,0-.59,1.32c.54-.31,1.23-1,1.2-1.33,0,0,0-.1-.2-.12Z" style="fill:#407BFF"></path><path d="M241.76,406.64l-4.72-.05a.37.37,0,0,0-.37.3l-.89,3.82a.65.65,0,0,0,.47.77h.13c1.7,0,3.21-.09,5.33-.07,2.49,0,1.86.32,4.79.39,1.77,0,2.12-2,1.37-2.07-3.43-.47-3.78-1.51-5.09-2.75A1.53,1.53,0,0,0,241.76,406.64Z" style="fill:#263238"></path><polygon points="241.7 401.48 237.12 401.81 237.17 404.12 241.62 404.07 241.7 401.48" style="opacity:0.2"></polygon><path d="M248.19,318.7c0,.54-.05,1.17-.09,1.9-.18,3.35-.48,8.56-.86,14.78-1.55,25.48-4.34,67.82-4.34,67.82h-6.4l0-81.16v-5.56l5.12-2.41h4.71l.09.24Z" style="fill:#263238"></path><path d="M243.63,305.41a40.24,40.24,0,0,0,4.43-1.43,10.43,10.43,0,0,0,1.79-1.22l1.55.7s2.4,2.19.94,3.58-8.32.74-8.32.74Z" style="fill:#263238"></path><path d="M241.4,305.08a6.94,6.94,0,0,1,3-.32,5.34,5.34,0,0,0,.64,3.38l-3,.33Z" style="fill:#407BFF"></path><path d="M241.4,305.08a6.94,6.94,0,0,1,3-.32,5.34,5.34,0,0,0,.64,3.38l-3,.33Z" style="fill:#fff;opacity:0.8"></path><path d="M232.41,283.23s-5.17,1.78-4.87,17.24c.06,3.15-.49,10.27,8.18,9.55l8.61-1.39a6.78,6.78,0,0,1-.76-4.11s-6.7-.46-10.15-.94c0,0,.25-10.86,1.73-12.19C235.15,291.39,235,285.9,232.41,283.23Z" style="fill:#263238"></path><path d="M233.58,297.66l-.82-6.68s0,12.34-.8,13.1,1.46-.5,1.46-.5Z" style="opacity:0.2"></path><path d="M256.39,321.53c-.81.13-2,.27-3.65.39a5.67,5.67,0,0,1-4.15-1.08,1.13,1.13,0,0,0-.49-.24,1.17,1.17,0,0,0-1.21.36,4.29,4.29,0,0,1-2.37,1.21,24,24,0,0,1-8-.13v-5.56l5.12-2.41h4.71l.09.24,1.73-1.15,4.85-.79,2.62,4.23C255.8,317.8,256.05,319.47,256.39,321.53Z" style="opacity:0.2"></path><path d="M256.76,312.66a27.81,27.81,0,0,1-.34-5.08c.74-16.19.05-20.71-.19-23.55a1.23,1.23,0,0,0-.88-1.08,36.68,36.68,0,0,0-22.55.08,1.25,1.25,0,0,0-.83,1.31c.5,4.77,2.73,20.56,3.09,28.32.05,1.13,0,5.12,0,6.64a1.24,1.24,0,0,0,1,1.24c2.53.43,8.85,1.23,10.78-1a1.22,1.22,0,0,1,1.7-.12,5.7,5.7,0,0,0,4.14,1.08c2-.14,3.26-.31,4.08-.45a1.25,1.25,0,0,0,1-1.54C257.44,317.11,256.89,313.66,256.76,312.66Z" style="fill:#263238"></path><path d="M247.79,307a.72.72,0,0,1-.72.72.72.72,0,1,1,0-1.44A.72.72,0,0,1,247.79,307Z" style="fill:#fff"></path><path d="M248.24,313a.73.73,0,0,1-.73.73.73.73,0,0,1-.72-.73.72.72,0,0,1,.72-.72A.73.73,0,0,1,248.24,313Z" style="fill:#fff"></path><path d="M246.15,281.55,245,274.83l-4.85-1.5v8.28l2.27,2,2.56-.11,1.73-1.88Z" style="fill:#dd8c6a"></path><path d="M247.68,281.39c0,.35-.36,9.25-1.1,21.89h0l-7.38-21.79.36-.08,4.17,2.07H245l2.36-2.15h0Z" style="fill:#fff"></path><polygon points="243 285.07 243.9 286.5 245.08 286.5 245.82 284.87 244.37 283.5 243 285.07" style="fill:#407BFF"></polygon><path d="M244.57,297.38c-.18-.27-.67-10.88-.67-10.88h1.18L247,296.68l-.38,6.6Z" style="fill:#407BFF"></path><polygon points="240.16 281.27 244.57 283.5 242.72 285.94 239.19 281.49 240.16 281.27" style="fill:#407BFF"></polygon><polygon points="240.16 281.27 244.57 283.5 242.72 285.94 239.19 281.49 240.16 281.27" style="fill:#fff;opacity:0.7000000000000001"></polygon><polygon points="247.68 281.38 247.68 281.39 246.22 285.95 244.47 283.63 244.36 283.49 244.43 283.42 246.78 281.24 247.35 281.33 247.39 281.34 247.68 281.38" style="fill:#407BFF"></polygon><polygon points="247.68 281.38 247.68 281.39 246.22 285.95 244.47 283.63 244.36 283.49 244.43 283.42 246.78 281.24 247.35 281.33 247.39 281.34 247.68 281.38" style="fill:#fff;opacity:0.7000000000000001"></polygon><path d="M240.17,275.27a7.55,7.55,0,0,0,5.37,3.18l-.52-3.62-4.85-1.5Z" style="opacity:0.1"></path><path d="M274.88,303.38a6,6,0,0,1,4.3,0,6.57,6.57,0,0,1,2.81.07l.61,2.5s-2.77,1.94-5.1.6l-3-1Z" style="fill:#263238"></path><path d="M273.67,302l2,.19a5,5,0,0,1-.35,4.15l-2.16-.82Z" style="fill:#407BFF"></path><path d="M273.67,302l2,.19a5,5,0,0,1-.35,4.15l-2.16-.82Z" style="fill:#fff;opacity:0.8"></path><path d="M275.08,302a46.58,46.58,0,0,1-13.53-4.14s-3.92-12-5.17-14.11a1.09,1.09,0,0,0-1.81-.09L252.11,287a1.06,1.06,0,0,0-.18.91c.5,2,3.38,11.6,5.91,14.21,2.33,2.41,13,3.7,16.8,4A9.18,9.18,0,0,0,275.08,302Z" style="fill:#263238"></path><path d="M237.88,269.11c.39,3.71.49,5.28,2.45,7.09,2.95,2.74,7.41,1.43,8.13-2.31.64-3.37-.13-8.88-3.83-10.16a5.07,5.07,0,0,0-6.49,3.06A5,5,0,0,0,237.88,269.11Z" style="fill:#dd8c6a"></path><path d="M246.22,270.31a8,8,0,0,0,1.45,1.67,1.37,1.37,0,0,1-1,.42Z" style="fill:#c13b37"></path><path d="M242.39,269.14a.18.18,0,0,0,.19-.1,2.13,2.13,0,0,1,1.43-.89.18.18,0,0,0,0-.35h0a2.43,2.43,0,0,0-1.7,1.09.17.17,0,0,0,.08.23h0Z" style="fill:#263238"></path><path d="M248.21,268.18a.19.19,0,0,0,.17-.07.19.19,0,0,0,0-.25,1.76,1.76,0,0,0-1.6-.38.17.17,0,0,0-.12.21h0a.18.18,0,0,0,.22.12h0a1.4,1.4,0,0,1,1.24.31A.19.19,0,0,0,248.21,268.18Z" style="fill:#263238"></path><path d="M246.74,273.27a13.3,13.3,0,0,0-.32,1.76l-.31,0c-1.43.06-2.11-.39-2.43-.89a1.81,1.81,0,0,1-.26-.83,1.64,1.64,0,0,1,0-.5,6.77,6.77,0,0,0,2.82.46C246.56,273.29,246.74,273.27,246.74,273.27Z" style="fill:#263238"></path><path d="M246.26,273.29l-.11.51a4.26,4.26,0,0,1-2.73-.47,1.64,1.64,0,0,1,0-.5A6.77,6.77,0,0,0,246.26,273.29Z" style="fill:#fff"></path><path d="M246.11,275.05c-1.43.06-2.11-.39-2.43-.89a4.49,4.49,0,0,1,1.59.24A1.73,1.73,0,0,1,246.11,275.05Z" style="fill:#de5753"></path><path d="M248.24,269.61a1.66,1.66,0,0,0,.3-.22.08.08,0,0,0,0-.11h0a.07.07,0,0,0-.1,0,1.79,1.79,0,0,1-1.73.4.06.06,0,0,0-.09,0,.09.09,0,0,0,0,.1A1.83,1.83,0,0,0,248.24,269.61Z" style="fill:#263238"></path><path d="M244.6,270.23a2.53,2.53,0,0,0,.37-.18.09.09,0,0,0,0-.11h0a.1.1,0,0,0-.12,0,2.18,2.18,0,0,1-2,.18.07.07,0,0,0-.1,0,.08.08,0,0,0,0,.11A2.28,2.28,0,0,0,244.6,270.23Z" style="fill:#263238"></path><path d="M238.79,274.12s2.59-5,1.38-6.28,0-1.56,0-1.56c8-.24,7.57-2.8,6.51-4.4a3.57,3.57,0,0,0-2.72-1.62h0a1.66,1.66,0,0,0-1.72,1.48v0s-8.51-.71-6.06,7.31A40.57,40.57,0,0,0,238.79,274.12Z" style="fill:#263238"></path><path d="M237,272a2.66,2.66,0,0,0,1.42,1.45c.87.36,1.42-.39,1.27-1.27s-.75-1.93-1.66-1.93a1.2,1.2,0,0,0-1.16,1.24A1.14,1.14,0,0,0,237,272Z" style="fill:#dd8c6a"></path><path d="M247.29,265c-4.33,0-8.21-.33-11.37,2.63-1-.51-1.1-1-1-2.09a3.52,3.52,0,0,1,.82-2.3,7.39,7.39,0,0,1,2.14-1.33l5.18-2.46a5.06,5.06,0,0,1,2.85-.72,2.59,2.59,0,0,1,1.94,1.49A9.52,9.52,0,0,1,247.29,265Z" style="fill:#263238"></path><path d="M239.19,265.23s5,1.66,6.63,1.37,1.9-3.6,1.9-3.6-4-1.65-8.53,2.23" style="fill:#263238"></path><path d="M247.74,263.53a4.69,4.69,0,0,1-.46,1.47c-2.32-1-5-.25-8.52.8l.52-.52c4.49-3.87,8.54-2.31,8.54-2.31A2,2,0,0,0,247.74,263.53Z" style="fill:#fff;opacity:0.30000000000000004"></path><path d="M238.76,266a.46.46,0,1,1-.92,0,.46.46,0,1,1,.92,0Z" style="fill:#fff"></path></g></svg>