<svg xmlns="http://www.w3.org/2000/svg" viewBox="0 0 500 500"><g id="freepik--background-complete--inject-150"><rect x="416.78" y="398.49" width="33.12" height="0.25" style="fill:#ebebeb"></rect><rect x="322.53" y="401.21" width="8.69" height="0.25" style="fill:#ebebeb"></rect><rect x="396.59" y="389.21" width="19.19" height="0.25" style="fill:#ebebeb"></rect><rect x="52.46" y="390.89" width="43.19" height="0.25" style="fill:#ebebeb"></rect><rect x="104.56" y="390.89" width="6.33" height="0.25" style="fill:#ebebeb"></rect><rect x="131.47" y="395.11" width="93.68" height="0.25" style="fill:#ebebeb"></rect><path d="M238.4,337.8H45.3a5.71,5.71,0,0,1-5.71-5.71V60.66A5.71,5.71,0,0,1,45.3,55H238.4a5.71,5.71,0,0,1,5.71,5.71V332.09A5.71,5.71,0,0,1,238.4,337.8ZM45.3,55.2a5.47,5.47,0,0,0-5.46,5.46V332.09a5.47,5.47,0,0,0,5.46,5.46H238.4a5.47,5.47,0,0,0,5.46-5.46V60.66a5.47,5.47,0,0,0-5.46-5.46Z" style="fill:#ebebeb"></path><path d="M454.7,337.8H261.6a5.71,5.71,0,0,1-5.71-5.71V60.66A5.71,5.71,0,0,1,261.6,55H454.7a5.71,5.71,0,0,1,5.71,5.71V332.09A5.71,5.71,0,0,1,454.7,337.8ZM261.6,55.2a5.47,5.47,0,0,0-5.46,5.46V332.09a5.47,5.47,0,0,0,5.46,5.46H454.7a5.47,5.47,0,0,0,5.46-5.46V60.66a5.47,5.47,0,0,0-5.46-5.46Z" style="fill:#ebebeb"></path><rect y="382.4" width="500" height="0.25" style="fill:#ebebeb"></rect><path d="M134.16,372.91l-5.3-6.1,5.3-6.1.52.59v-4.15l-.52.6-5.3-6.11,5.3-6.1.52.6V342l-.52.59-5.3-6.1,5.3-6.1.52.59v-4.15l-.52.6-5.3-6.11,5.3-6.1.52.6v-4.16l-.52.6-5.3-6.1,5.3-6.1.52.6v-4.16l-.52.6-5.3-6.1,5.3-6.11.52.6v-4.15l-.52.59-5.3-6.1,5.3-6.1.52.6v-4.16l-.52.6-5.3-6.1,5.3-6.11.52.6V251l-.52.59-5.3-6.1,5.3-6.1.52.6v-4.16l-.52.6-4.11-4.73h-5L121,236.43l-4.11-4.73h-4.95l-4.11,4.73-4.11-4.73H98.76l-4.11,4.73-4.11-4.73h-5l-4.11,4.73-4.11-4.73h-5l-4.11,4.73-4.11-4.73H59.24l-4.11,4.73L51,231.7h-5L42,236.43l-.52-.6V240l.52-.6,5.3,6.1-5.3,6.1-.52-.59v4.15l.52-.6,5.3,6.11-5.3,6.1-.52-.6v4.16l.52-.6,5.3,6.1-5.3,6.1-.52-.59v4.15l.52-.6,5.3,6.11-5.3,6.1-.52-.6v4.16l.52-.6,5.3,6.1-5.3,6.1-.52-.6v4.16l.52-.6,5.3,6.1L42,327.42l-.52-.6V331l.52-.6,5.3,6.1-5.3,6.1-.52-.6v4.16l.52-.6,5.3,6.1L42,357.75l-.52-.6v4.15l.52-.59,5.3,6.1-5.3,6.1-.52-.6v4.16l.52-.6,4.11,4.73h5l4.11-4.73,4.11,4.73h4.95l4.11-4.73,4.11,4.73h5l4.11-4.73,4.11,4.73h5l4.11-4.73,4.11,4.73h4.95l4.11-4.73,4.11,4.73h4.95l4.11-4.73,4.11,4.73h5l4.11-4.73.52.6v-4.15Zm-1.28-13.68-5.3,6.1-5.3-6.1,5.3-6.11Zm-52.69-45.5-5.3,6.11-5.3-6.11,5.3-6.1Zm-10.6-15.16,5.3-6.11,5.3,6.11-5.3,6.1Zm6.58,7.58,5.3-6.1,5.31,6.1-5.31,6.1Zm6.59-7.58,5.3-6.11,5.3,6.11-5.3,6.1Zm5.3,9.06,5.3,6.1-5.3,6.11-5.3-6.11Zm1.28-1.48,5.31-6.1,5.3,6.1-5.3,6.1Zm6.59-7.58,5.3-6.11,5.3,6.11-5.3,6.1Zm5.3,9.06,5.3,6.1-5.3,6.11-5.3-6.11Zm1.29-1.48,5.3-6.1,5.3,6.1-5.3,6.1Zm0-15.16,5.3-6.11,5.3,6.11-5.3,6.1Zm-1.29-1.48-5.3-6.11,5.3-6.1,5.3,6.1ZM100,291l-5.3,6.1L89.34,291l5.31-6.11Zm-11.89-1.48-5.3-6.11,5.3-6.1,5.3,6.1ZM86.78,291l-5.31,6.1-5.3-6.1,5.3-6.11Zm-11.89-1.48-5.3-6.11,5.3-6.1,5.3,6.1ZM73.6,291l-5.3,6.1L63,291l5.3-6.11Zm0,15.16-5.3,6.1-5.3-6.1,5.3-6.1Zm0,15.17-5.3,6.1-5.3-6.1,5.3-6.11Zm1.29,1.47,5.3,6.11-5.3,6.1-5.3-6.1Zm1.28-1.47,5.3-6.11,5.31,6.1-5.31,6.11Zm11.89,1.47,5.3,6.11-5.3,6.1-5.3-6.1Zm1.28-1.48,5.31-6.1,5.3,6.11-5.3,6.1Zm11.89,1.48,5.3,6.11-5.3,6.1-5.3-6.1Zm1.29-1.47,5.3-6.11,5.3,6.11-5.3,6.1Zm11.88,1.47,5.31,6.11L114.4,335l-5.3-6.1Zm-5.3-9.06,5.31-6.1,5.3,6.1-5.31,6.11Zm0-15.16,5.3-6.11,5.31,6.11-5.3,6.1Zm0-15.17,5.3-6.1,5.31,6.1-5.31,6.11Zm0-15.16,5.31-6.11,5.3,6.11-5.31,6.1Zm4,7.58-5.3,6.1-5.3-6.1,5.3-6.1Zm-11.89-1.48-5.3-6.1,5.3-6.11,5.3,6.11ZM100,275.82l-5.3,6.1-5.31-6.1,5.31-6.1Zm-11.89-1.48-5.3-6.1,5.3-6.11,5.3,6.11Zm-1.28,1.48-5.31,6.1-5.3-6.1,5.3-6.1Zm-11.89-1.48-5.3-6.1,5.3-6.11,5.3,6.11Zm-1.29,1.48-5.3,6.1-5.3-6.1,5.3-6.1Zm-11.88-1.48-5.31-6.1,5.3-6.11L67,268.24ZM67,283.4l-5.3,6.11-5.31-6.11,5.31-6.1Zm0,15.17-5.31,6.1-5.3-6.1,5.31-6.11Zm0,15.16-5.3,6.11-5.31-6.11,5.3-6.1Zm0,15.17-5.3,6.1-5.31-6.1,5.31-6.11Zm0,15.16-5.31,6.11-5.3-6.11,5.31-6.1Zm-4-7.58,5.3-6.1,5.3,6.1-5.3,6.1ZM74.89,338l5.3,6.1-5.3,6.11-5.3-6.11Zm1.28-1.48,5.3-6.1,5.31,6.1-5.31,6.1ZM88.06,338l5.3,6.1-5.3,6.11-5.3-6.11Zm1.28-1.48,5.31-6.1,5.3,6.1-5.3,6.1ZM101.23,338l5.3,6.1-5.3,6.11-5.3-6.11Zm1.29-1.48,5.3-6.1,5.3,6.1-5.3,6.1ZM114.4,338l5.31,6.1-5.3,6.11-5.31-6.11Zm1.29-1.48,5.3-6.1,5.3,6.1-5.3,6.1Zm0-15.16,5.3-6.11,5.3,6.1-5.3,6.11Zm0-15.17,5.3-6.1,5.3,6.1-5.3,6.1Zm0-15.16,5.3-6.11,5.3,6.11-5.3,6.1Zm0-15.17,5.3-6.1,5.3,6.1-5.3,6.1Zm0-15.16,5.3-6.11,5.3,6.11-5.3,6.1Zm-1.28-1.48-5.31-6.11,5.3-6.1,5.31,6.1Zm-1.29,1.48-5.3,6.1-5.3-6.1,5.3-6.11Zm-11.89-1.48-5.3-6.11,5.3-6.1,5.3,6.1ZM100,260.66l-5.3,6.1-5.31-6.1,5.31-6.11Zm-11.89-1.48-5.3-6.11,5.3-6.1,5.3,6.1Zm-1.28,1.48-5.31,6.1-5.3-6.1,5.3-6.11Zm-11.89-1.48-5.3-6.11,5.3-6.1,5.3,6.1Zm-1.29,1.48-5.3,6.1-5.3-6.1,5.3-6.11Zm-11.89-1.48-5.3-6.11,5.31-6.1,5.3,6.1Zm-1.28,1.48-5.3,6.1-5.3-6.1,5.3-6.11Zm0,15.16-5.3,6.1-5.3-6.1,5.3-6.1Zm0,15.17-5.3,6.1-5.3-6.1,5.3-6.11Zm0,15.16-5.3,6.1-5.3-6.1,5.3-6.1Zm0,15.16-5.3,6.11-5.3-6.11,5.3-6.1Zm0,15.17-5.3,6.1-5.3-6.1,5.3-6.1Zm0,15.16-5.3,6.11-5.3-6.11,5.3-6.1Zm1.28,1.48L67,359.23l-5.3,6.1-5.31-6.1ZM63,351.64l5.3-6.1,5.3,6.1-5.3,6.11Zm11.89,1.48,5.3,6.11-5.3,6.1-5.3-6.1Zm1.28-1.48,5.3-6.1,5.31,6.1-5.31,6.11Zm11.89,1.48,5.3,6.11-5.3,6.1-5.3-6.1Zm1.28-1.48,5.31-6.1,5.3,6.1-5.3,6.11Zm11.89,1.48,5.3,6.11-5.3,6.1-5.3-6.1Zm1.29-1.48,5.3-6.1,5.3,6.1-5.3,6.11Zm11.89,1.48,5.3,6.11-5.31,6.1-5.3-6.1Zm1.28-1.48,5.3-6.1,5.3,6.1-5.3,6.11Zm17.19-7.58-5.3,6.11-5.3-6.11,5.3-6.1Zm0-15.16-5.3,6.1-5.3-6.1,5.3-6.11Zm0-15.17-5.3,6.11-5.3-6.11,5.3-6.1Zm0-15.16-5.3,6.1-5.3-6.1,5.3-6.11Zm0-15.17-5.3,6.11-5.3-6.11,5.3-6.1Zm0-15.16-5.3,6.1-5.3-6.1,5.3-6.11Zm0-15.17-5.3,6.11-5.3-6.11,5.3-6.1Zm-5.3-21.27,5.3,6.11-5.3,6.1-5.3-6.1Zm-1.29,13.69-5.3,6.1-5.3-6.1,5.3-6.1ZM114.41,231.8l5.3,6.11L114.4,244l-5.3-6.1Zm-1.29,13.69-5.3,6.1-5.3-6.1,5.3-6.1Zm-11.89-13.68,5.3,6.1-5.3,6.1-5.3-6.1ZM100,245.49l-5.3,6.1-5.31-6.1,5.31-6.1ZM88.06,231.8l5.3,6.11-5.3,6.1-5.3-6.1Zm-1.28,13.69-5.31,6.1-5.3-6.1,5.3-6.1ZM74.89,231.81l5.3,6.1-5.3,6.1-5.3-6.1ZM73.6,245.49l-5.3,6.1-5.3-6.1,5.3-6.1ZM61.71,231.8,67,237.91l-5.3,6.1-5.31-6.1Zm-1.28,13.69-5.3,6.1-5.3-6.1,5.3-6.1Zm-17.19-7.58,5.3-6.11,5.3,6.11-5.3,6.1Zm0,15.16,5.3-6.1,5.3,6.1-5.3,6.11Zm0,15.17,5.3-6.11,5.3,6.11-5.3,6.1Zm0,15.16,5.3-6.1,5.3,6.1-5.3,6.11Zm0,15.17,5.3-6.11,5.3,6.11-5.3,6.1Zm0,15.16,5.3-6.1,5.3,6.1-5.3,6.11Zm0,15.17,5.3-6.11,5.3,6.11-5.3,6.1Zm0,15.16,5.3-6.1,5.3,6.1-5.3,6.11Zm0,15.17,5.3-6.11,5.3,6.11-5.3,6.1Zm5.3,21.27-5.3-6.11,5.3-6.1,5.3,6.1Zm1.29-13.69,5.3-6.1,5.3,6.1-5.3,6.1ZM61.71,380.5l-5.3-6.11,5.31-6.1,5.3,6.1ZM63,366.81l5.3-6.1,5.3,6.1-5.3,6.1ZM74.89,380.5l-5.3-6.11,5.3-6.1,5.3,6.1Zm1.28-13.69,5.3-6.1,5.31,6.1-5.31,6.1ZM88.06,380.5l-5.3-6.11,5.3-6.1,5.3,6.1Zm1.28-13.69,5.31-6.1,5.3,6.1-5.3,6.1Zm11.89,13.69-5.3-6.11,5.3-6.1,5.3,6.1Zm1.29-13.69,5.3-6.1,5.3,6.1-5.3,6.1Zm11.89,13.69-5.31-6.11,5.3-6.1,5.31,6.1Zm1.28-13.69,5.3-6.1,5.3,6.1-5.3,6.1Zm11.89,13.69-5.3-6.11,5.3-6.1,5.3,6.1Z" style="fill:#f5f5f5"></path><path d="M135.59,381.65H40.53v-151h95.06Zm-93.25-2.09h91.44V232.74H42.34Z" style="fill:#e6e6e6"></path><path d="M242.31,372.91l-5.31-6.1,5.31-6.1.52.59v-4.15l-.52.6L237,351.64l5.31-6.1.52.6V342l-.52.59-5.31-6.1,5.31-6.1.52.59v-4.15l-.52.6L237,321.31l5.31-6.1.52.6v-4.16l-.52.6-5.31-6.1,5.31-6.1.52.6v-4.16l-.52.6L237,291l5.31-6.11.52.6v-4.15l-.52.59-5.31-6.1,5.31-6.1.52.6v-4.16l-.52.6-5.31-6.1,5.31-6.11.52.6V251l-.52.59-5.31-6.1,5.31-6.1.52.6v-4.16l-.52.6-4.11-4.73h-5l-4.11,4.73L225,231.7h-5L216,236.43l-4.11-4.73H206.9l-4.11,4.73-4.11-4.73h-5l-4.11,4.73-4.11-4.73h-5l-4.11,4.73-4.11-4.73h-5l-4.11,4.73-4.11-4.73h-4.95l-4.11,4.73-.52-.6V240l.52-.6,5.3,6.1-5.3,6.1-.52-.59v4.15l.52-.6,5.3,6.11-5.3,6.1-.52-.6v4.16l.52-.6,5.3,6.1-5.3,6.1-.52-.59v4.15l.52-.6,5.3,6.11-5.3,6.1-.52-.6v4.16l.52-.6,5.3,6.1-5.3,6.1-.52-.6v4.16l.52-.6,5.3,6.1-5.3,6.11-.52-.6V331l.52-.6,5.3,6.1-5.3,6.1-.52-.6v4.16l.52-.6,5.3,6.1-5.3,6.11-.52-.6v4.15l.52-.59,5.3,6.1-5.3,6.1-.52-.6v4.16l.52-.6,4.11,4.73h4.95l4.11-4.73,4.11,4.73h5l4.11-4.73,4.11,4.73h5l4.11-4.73,4.11,4.73h5l4.11-4.73,4.11,4.73h4.95l4.11-4.73,4.11,4.73h5l4.11-4.73,4.11,4.73h5l4.11-4.73.52.6v-4.15ZM241,359.23l-5.3,6.1-5.3-6.1,5.3-6.11Zm-52.69-45.5-5.3,6.11-5.3-6.11,5.3-6.1Zm-10.6-15.16,5.3-6.11,5.3,6.11-5.3,6.1Zm6.58,7.58,5.31-6.1,5.3,6.1-5.3,6.1Zm6.59-7.58,5.3-6.11,5.3,6.11-5.3,6.1Zm5.3,9.06,5.3,6.1-5.3,6.11-5.3-6.11Zm1.29-1.48,5.3-6.1,5.3,6.1-5.3,6.1Zm6.58-7.58,5.3-6.11,5.31,6.11-5.31,6.1Zm5.3,9.06,5.31,6.1-5.31,6.11-5.3-6.11Zm1.29-1.48,5.3-6.1,5.3,6.1-5.3,6.1Zm0-15.16,5.3-6.11,5.3,6.11-5.3,6.1Zm-1.29-1.48-5.3-6.11,5.31-6.1,5.3,6.1ZM208.09,291l-5.3,6.1-5.3-6.1,5.3-6.11Zm-11.89-1.48-5.3-6.11,5.3-6.1,5.3,6.1ZM194.92,291l-5.3,6.1-5.31-6.1,5.31-6.11ZM183,289.51l-5.3-6.11,5.3-6.1,5.3,6.1ZM181.75,291l-5.31,6.1-5.3-6.1,5.3-6.11Zm0,15.16-5.31,6.1-5.3-6.1,5.3-6.1Zm0,15.17-5.31,6.1-5.3-6.1,5.3-6.11Zm1.28,1.47,5.3,6.11L183,335l-5.3-6.1Zm1.28-1.47,5.31-6.11,5.3,6.1-5.3,6.11Zm11.89,1.47,5.3,6.11-5.3,6.1-5.3-6.1Zm1.29-1.48,5.3-6.1,5.3,6.11-5.3,6.1Zm11.88,1.48,5.31,6.11-5.3,6.1-5.31-6.1Zm1.29-1.47,5.3-6.11,5.3,6.11-5.3,6.1Zm11.89,1.47,5.3,6.11-5.3,6.1-5.3-6.1Zm-5.3-9.06,5.3-6.1,5.3,6.1-5.3,6.11Zm0-15.16,5.3-6.11,5.3,6.11-5.3,6.1Zm0-15.17,5.3-6.1,5.3,6.1-5.3,6.11Zm0-15.16,5.3-6.11,5.3,6.11-5.3,6.1Zm4,7.58-5.3,6.1-5.3-6.1,5.3-6.1Zm-11.88-1.48-5.31-6.1,5.3-6.11,5.31,6.11Zm-1.29,1.48-5.3,6.1-5.3-6.1,5.3-6.1Zm-11.89-1.48-5.3-6.1,5.3-6.11,5.3,6.11Zm-1.28,1.48-5.3,6.1-5.31-6.1,5.31-6.1ZM183,274.34l-5.3-6.1,5.3-6.11,5.3,6.11Zm-1.28,1.48-5.31,6.1-5.3-6.1,5.3-6.1Zm-11.89-1.48-5.3-6.1,5.3-6.11,5.3,6.11Zm5.3,9.06-5.3,6.11-5.3-6.11,5.3-6.1Zm0,15.17-5.3,6.1-5.3-6.1,5.3-6.11Zm0,15.16-5.3,6.11-5.3-6.11,5.3-6.1Zm0,15.17-5.3,6.1-5.3-6.1,5.3-6.11Zm0,15.16-5.3,6.11-5.3-6.11,5.3-6.1Zm-4-7.58,5.3-6.1,5.31,6.1-5.31,6.1ZM183,338l5.3,6.1-5.3,6.11-5.3-6.11Zm1.28-1.48,5.31-6.1,5.3,6.1-5.3,6.1ZM196.2,338l5.3,6.1-5.3,6.11-5.3-6.11Zm1.29-1.48,5.3-6.1,5.3,6.1-5.3,6.1ZM209.38,338l5.3,6.1-5.31,6.11-5.3-6.11Zm1.28-1.48,5.3-6.1,5.3,6.1-5.3,6.1ZM222.55,338l5.3,6.1-5.3,6.11-5.3-6.11Zm1.28-1.48,5.3-6.1,5.31,6.1-5.31,6.1Zm0-15.16,5.3-6.11,5.3,6.1-5.3,6.11Zm0-15.17,5.3-6.1,5.31,6.1-5.31,6.1Zm0-15.16,5.3-6.11,5.3,6.11-5.3,6.1Zm0-15.17,5.3-6.1,5.31,6.1-5.31,6.1Zm0-15.16,5.3-6.11,5.31,6.11-5.31,6.1Zm-1.28-1.48-5.3-6.11,5.3-6.1,5.3,6.1Zm-1.29,1.48-5.3,6.1-5.3-6.1,5.3-6.11Zm-11.89-1.48-5.3-6.11,5.3-6.1,5.31,6.1Zm-1.28,1.48-5.3,6.1-5.3-6.1,5.3-6.11Zm-11.89-1.48-5.3-6.11,5.3-6.1,5.3,6.1Zm-1.28,1.48-5.3,6.1-5.31-6.1,5.31-6.11ZM183,259.18l-5.3-6.11L183,247l5.3,6.1Zm-1.28,1.48-5.31,6.1-5.3-6.1,5.3-6.11Zm-11.89-1.48-5.3-6.11,5.3-6.1,5.3,6.1Zm-1.29,1.48-5.3,6.1-5.3-6.1,5.3-6.11Zm0,15.16-5.3,6.1-5.3-6.1,5.3-6.1Zm0,15.17-5.3,6.1L158,291l5.3-6.11Zm0,15.16-5.3,6.1-5.3-6.1,5.3-6.1Zm0,15.16-5.3,6.11-5.3-6.11,5.3-6.1Zm0,15.17-5.3,6.1-5.3-6.1,5.3-6.1Zm0,15.16-5.3,6.11-5.3-6.11,5.3-6.1Zm1.29,1.48,5.3,6.11-5.3,6.1-5.3-6.1Zm1.28-1.48,5.3-6.1,5.31,6.1-5.31,6.11ZM183,353.12l5.3,6.11-5.3,6.1-5.3-6.1Zm1.28-1.48,5.31-6.1,5.3,6.1-5.3,6.11Zm11.89,1.48,5.3,6.11-5.3,6.1-5.3-6.1Zm1.29-1.48,5.3-6.1,5.3,6.1-5.3,6.11Zm11.88,1.48,5.31,6.11-5.31,6.1-5.3-6.1Zm1.29-1.48,5.3-6.1,5.3,6.1-5.3,6.11Zm11.89,1.48,5.3,6.11-5.3,6.1-5.3-6.1Zm1.28-1.48,5.3-6.1,5.31,6.1-5.31,6.11ZM241,344.06l-5.3,6.11-5.3-6.11,5.3-6.1Zm0-15.16-5.3,6.1-5.3-6.1,5.3-6.11Zm0-15.17-5.3,6.11-5.3-6.11,5.3-6.1Zm0-15.16-5.3,6.1-5.3-6.1,5.3-6.11Zm0-15.17-5.3,6.11-5.3-6.11,5.3-6.1Zm0-15.16-5.3,6.1-5.3-6.1,5.3-6.11Zm0-15.17-5.3,6.11-5.3-6.11,5.3-6.1Zm-5.3-21.27,5.3,6.11-5.3,6.1-5.3-6.1Zm-1.28,13.69-5.31,6.1-5.3-6.1,5.3-6.1ZM222.55,231.8l5.3,6.11-5.3,6.1-5.3-6.1Zm-1.29,13.69-5.3,6.1-5.3-6.1,5.3-6.1Zm-11.89-13.68,5.31,6.1-5.31,6.1-5.3-6.1Zm-1.28,13.68-5.3,6.1-5.3-6.1,5.3-6.1ZM196.2,231.8l5.3,6.11-5.3,6.1-5.3-6.1Zm-1.28,13.69-5.3,6.1-5.31-6.1,5.31-6.1ZM183,231.81l5.3,6.1L183,244l-5.3-6.1Zm-1.28,13.68-5.31,6.1-5.3-6.1,5.3-6.1ZM169.86,231.8l5.3,6.11-5.3,6.1-5.3-6.1Zm-1.29,13.69-5.3,6.1-5.3-6.1,5.3-6.1Zm-17.19-7.58,5.3-6.11,5.31,6.11-5.31,6.1Zm0,15.16,5.3-6.1,5.31,6.1-5.31,6.11Zm0,15.17,5.3-6.11,5.31,6.11-5.31,6.1Zm0,15.16,5.3-6.1,5.31,6.1-5.31,6.11Zm0,15.17,5.3-6.11,5.31,6.11-5.31,6.1Zm0,15.16,5.3-6.1,5.31,6.1-5.31,6.11Zm0,15.17,5.3-6.11L162,328.9l-5.31,6.1Zm0,15.16,5.3-6.1,5.31,6.1-5.31,6.11Zm0,15.17,5.3-6.11,5.31,6.11-5.31,6.1Zm5.3,21.27-5.3-6.11,5.3-6.1,5.31,6.1ZM158,366.81l5.3-6.1,5.3,6.1-5.3,6.1Zm11.89,13.69-5.3-6.11,5.3-6.1,5.3,6.1Zm1.28-13.69,5.3-6.1,5.31,6.1-5.31,6.1ZM183,380.5l-5.3-6.11,5.3-6.1,5.3,6.1Zm1.28-13.69,5.31-6.1,5.3,6.1-5.3,6.1ZM196.2,380.5l-5.3-6.11,5.3-6.1,5.3,6.1Zm1.29-13.69,5.3-6.1,5.3,6.1-5.3,6.1Zm11.88,13.69-5.3-6.11,5.3-6.1,5.31,6.1Zm1.29-13.69,5.3-6.1,5.3,6.1-5.3,6.1Zm11.89,13.69-5.3-6.11,5.3-6.1,5.3,6.1Zm1.28-13.69,5.3-6.1,5.31,6.1-5.31,6.1Zm11.89,13.69-5.3-6.11,5.3-6.1,5.3,6.1Z" style="fill:#f5f5f5"></path><path d="M243.73,381.65H148.67v-151h95.06Zm-93.24-2.09h91.43V232.74H150.49Z" style="fill:#e6e6e6"></path><path d="M140.21,230.65h3.85a.41.41,0,0,1,.41.41V381.65a0,0,0,0,1,0,0H139.8a0,0,0,0,1,0,0V231.06A.41.41,0,0,1,140.21,230.65Z" style="fill:#e6e6e6"></path><path d="M350.12,372.91l-5.3-6.1,5.3-6.1.52.59v-4.15l-.52.6-5.3-6.11,5.3-6.1.52.6V342l-.52.59-5.3-6.1,5.3-6.1.52.59v-4.15l-.52.6-5.3-6.11,5.3-6.1.52.6v-4.16l-.52.6-5.3-6.1,5.3-6.1.52.6v-4.16l-.52.6-5.3-6.1,5.3-6.11.52.6v-4.15l-.52.59-5.3-6.1,5.3-6.1.52.6v-4.16l-.52.6-5.3-6.1,5.3-6.11.52.6V251l-.52.59-5.3-6.1,5.3-6.1.52.6v-4.16l-.52.6L346,231.7h-4.95L337,236.43l-4.11-4.73h-4.95l-4.11,4.73-4.12-4.73h-5l-4.11,4.73-4.11-4.73h-4.95l-4.11,4.73-4.11-4.73h-4.95l-4.11,4.73-4.11-4.73h-5l-4.11,4.73L267,231.7h-5l-4.11,4.73-.52-.6V240l.52-.6,5.3,6.1-5.3,6.1-.52-.59v4.15l.52-.6,5.3,6.11-5.3,6.1-.52-.6v4.16l.52-.6,5.3,6.1-5.3,6.1-.52-.59v4.15l.52-.6,5.3,6.11-5.3,6.1-.52-.6v4.16l.52-.6,5.3,6.1-5.3,6.1-.52-.6v4.16l.52-.6,5.3,6.1-5.3,6.11-.52-.6V331l.52-.6,5.3,6.1-5.3,6.1-.52-.6v4.16l.52-.6,5.3,6.1-5.3,6.11-.52-.6v4.15l.52-.59,5.3,6.1-5.3,6.1-.52-.6v4.16l.52-.6L262,380.6h5l4.11-4.73,4.11,4.73h5l4.11-4.73,4.11,4.73h4.95l4.11-4.73,4.11,4.73h4.95l4.11-4.73,4.11,4.73h5l4.12-4.73,4.11,4.73h4.95l4.11-4.73,4.11,4.73H346l4.11-4.73.52.6v-4.15Zm-1.28-13.68-5.31,6.1-5.3-6.1,5.3-6.11Zm-52.69-45.5-5.31,6.11-5.3-6.11,5.3-6.1Zm-10.61-15.16,5.3-6.11,5.31,6.11-5.31,6.1Zm6.59,7.58,5.3-6.1,5.3,6.1-5.3,6.1Zm6.58-7.58,5.31-6.11,5.3,6.11-5.3,6.1Zm5.31,9.06,5.3,6.1-5.3,6.11-5.31-6.11Zm1.28-1.48,5.3-6.1,5.3,6.1-5.3,6.1Zm6.59-7.58,5.3-6.11,5.3,6.11-5.3,6.1Zm5.3,9.06,5.3,6.1-5.3,6.11-5.3-6.11Zm1.28-1.48,5.31-6.1,5.3,6.1-5.3,6.1Zm0-15.16,5.31-6.11,5.3,6.11-5.3,6.1Zm-1.28-1.48-5.3-6.11,5.3-6.1,5.3,6.1ZM315.9,291l-5.3,6.1-5.3-6.1,5.3-6.11ZM304,289.51l-5.31-6.11,5.31-6.1,5.3,6.1ZM302.73,291l-5.3,6.1-5.3-6.1,5.3-6.11Zm-11.89-1.48-5.3-6.11,5.3-6.1,5.31,6.1ZM289.56,291l-5.3,6.1L279,291l5.3-6.11Zm0,15.16-5.3,6.1-5.3-6.1,5.3-6.1Zm0,15.17-5.3,6.1-5.3-6.1,5.3-6.11Zm1.28,1.47,5.31,6.11-5.31,6.1-5.3-6.1Zm1.29-1.47,5.3-6.11,5.3,6.1-5.3,6.11ZM304,322.79l5.3,6.11L304,335l-5.31-6.1Zm1.28-1.48,5.3-6.1,5.3,6.11-5.3,6.1Zm11.89,1.48,5.3,6.11-5.3,6.1-5.3-6.1Zm1.28-1.47,5.31-6.11,5.3,6.11-5.3,6.1Zm11.89,1.47,5.3,6.11-5.3,6.1-5.3-6.1Zm-5.3-9.06,5.3-6.1,5.3,6.1-5.3,6.11Zm0-15.16,5.3-6.11,5.3,6.11-5.3,6.1Zm0-15.17,5.3-6.1,5.3,6.1-5.3,6.11Zm0-15.16,5.3-6.11,5.3,6.11-5.3,6.1Zm4,7.58-5.3,6.1-5.31-6.1,5.31-6.1Zm-11.89-1.48-5.3-6.1,5.3-6.11,5.3,6.11Zm-1.29,1.48-5.3,6.1-5.3-6.1,5.3-6.1ZM304,274.34l-5.31-6.1,5.31-6.11,5.3,6.11Zm-1.29,1.48-5.3,6.1-5.3-6.1,5.3-6.1Zm-11.89-1.48-5.3-6.1,5.3-6.11,5.31,6.11Zm-1.28,1.48-5.3,6.1-5.3-6.1,5.3-6.1Zm-11.89-1.48-5.3-6.1,5.3-6.11,5.3,6.11Zm5.3,9.06-5.3,6.11-5.3-6.11,5.3-6.1Zm0,15.17-5.3,6.1-5.3-6.1,5.3-6.11Zm0,15.16-5.3,6.11-5.3-6.11,5.3-6.1Zm0,15.17-5.3,6.1-5.3-6.1,5.3-6.11Zm0,15.16-5.3,6.11-5.3-6.11,5.3-6.1Zm-4-7.58,5.3-6.1,5.3,6.1-5.3,6.1ZM290.84,338l5.31,6.1-5.31,6.11-5.3-6.11Zm1.29-1.48,5.3-6.1,5.3,6.1-5.3,6.1ZM304,338l5.3,6.1-5.3,6.11-5.31-6.11Zm1.28-1.48,5.3-6.1,5.3,6.1-5.3,6.1ZM317.19,338l5.3,6.1-5.3,6.11-5.3-6.11Zm1.28-1.48,5.31-6.1,5.3,6.1-5.3,6.1ZM330.36,338l5.3,6.1-5.3,6.11-5.3-6.11Zm1.29-1.48,5.3-6.1,5.3,6.1-5.3,6.1Zm0-15.16,5.3-6.11,5.3,6.1-5.3,6.11Zm0-15.17,5.3-6.1,5.3,6.1-5.3,6.1Zm0-15.16,5.3-6.11,5.3,6.11-5.3,6.1Zm0-15.17,5.3-6.1,5.3,6.1-5.3,6.1Zm0-15.16,5.3-6.11,5.3,6.11-5.3,6.1Zm-1.29-1.48-5.3-6.11,5.3-6.1,5.3,6.1Zm-1.28,1.48-5.3,6.1-5.31-6.1,5.31-6.11Zm-11.89-1.48-5.3-6.11,5.3-6.1,5.3,6.1Zm-1.29,1.48-5.3,6.1-5.3-6.1,5.3-6.11ZM304,259.18l-5.31-6.11L304,247l5.3,6.1Zm-1.29,1.48-5.3,6.1-5.3-6.1,5.3-6.11Zm-11.89-1.48-5.3-6.11,5.3-6.1,5.31,6.1Zm-1.28,1.48-5.3,6.1-5.3-6.1,5.3-6.11Zm-11.89-1.48-5.3-6.11,5.3-6.1,5.3,6.1Zm-1.28,1.48-5.3,6.1-5.31-6.1,5.31-6.11Zm0,15.16-5.3,6.1-5.31-6.1,5.31-6.1Zm0,15.17-5.3,6.1-5.31-6.1,5.31-6.11Zm0,15.16-5.3,6.1-5.31-6.1,5.31-6.1Zm0,15.16-5.3,6.11-5.31-6.11,5.31-6.1Zm0,15.17-5.3,6.1-5.31-6.1,5.31-6.1Zm0,15.16-5.3,6.11-5.31-6.11,5.31-6.1Zm1.28,1.48,5.3,6.11-5.3,6.1-5.3-6.1Zm1.29-1.48,5.3-6.1,5.3,6.1-5.3,6.11Zm11.88,1.48,5.31,6.11-5.31,6.1-5.3-6.1Zm1.29-1.48,5.3-6.1,5.3,6.1-5.3,6.11ZM304,353.12l5.3,6.11-5.3,6.1-5.31-6.1Zm1.28-1.48,5.3-6.1,5.3,6.1-5.3,6.11Zm11.89,1.48,5.3,6.11-5.3,6.1-5.3-6.1Zm1.28-1.48,5.31-6.1,5.3,6.1-5.3,6.11Zm11.89,1.48,5.3,6.11-5.3,6.1-5.3-6.1Zm1.29-1.48,5.3-6.1,5.3,6.1-5.3,6.11Zm17.19-7.58-5.31,6.11-5.3-6.11,5.3-6.1Zm0-15.16-5.31,6.1-5.3-6.1,5.3-6.11Zm0-15.17-5.31,6.11-5.3-6.11,5.3-6.1Zm0-15.16-5.31,6.1-5.3-6.1,5.3-6.11Zm0-15.17-5.31,6.11-5.3-6.11,5.3-6.1Zm0-15.16-5.31,6.1-5.3-6.1,5.3-6.11Zm0-15.17-5.31,6.11-5.3-6.11,5.3-6.1Zm-5.31-21.27,5.31,6.11-5.31,6.1-5.3-6.1Zm-1.28,13.69-5.3,6.1-5.3-6.1,5.3-6.1ZM330.36,231.8l5.3,6.11-5.3,6.1-5.3-6.1Zm-1.28,13.69-5.3,6.1-5.31-6.1,5.31-6.1Zm-11.89-13.68,5.3,6.1-5.3,6.1-5.3-6.1Zm-1.29,13.68-5.3,6.1-5.3-6.1,5.3-6.1ZM304,231.8l5.3,6.11L304,244l-5.31-6.1Zm-1.29,13.69-5.3,6.1-5.3-6.1,5.3-6.1Zm-11.89-13.68,5.31,6.1-5.31,6.1-5.3-6.1Zm-1.28,13.68-5.3,6.1-5.3-6.1,5.3-6.1ZM277.67,231.8l5.3,6.11-5.3,6.1-5.3-6.1Zm-1.28,13.69-5.3,6.1-5.31-6.1,5.3-6.1Zm-17.19-7.58,5.3-6.11,5.3,6.11-5.3,6.1Zm0,15.16,5.3-6.1,5.3,6.1-5.3,6.11Zm0,15.17,5.3-6.11,5.3,6.11-5.3,6.1Zm0,15.16,5.3-6.1,5.3,6.1-5.3,6.11Zm0,15.17,5.3-6.11,5.3,6.11-5.3,6.1Zm0,15.16,5.3-6.1,5.3,6.1-5.3,6.11Zm0,15.17,5.3-6.11,5.3,6.11-5.3,6.1Zm0,15.16,5.3-6.1,5.3,6.1-5.3,6.11Zm0,15.17,5.3-6.11,5.3,6.11-5.3,6.1Zm5.3,21.27-5.3-6.11,5.3-6.1,5.3,6.1Zm1.28-13.69,5.31-6.1,5.3,6.1-5.31,6.1Zm11.89,13.69-5.3-6.11,5.3-6.1,5.3,6.1ZM279,366.81l5.3-6.1,5.3,6.1-5.3,6.1Zm11.88,13.69-5.3-6.11,5.3-6.1,5.31,6.1Zm1.29-13.69,5.3-6.1,5.3,6.1-5.3,6.1ZM304,380.5l-5.31-6.11,5.31-6.1,5.3,6.1Zm1.28-13.69,5.3-6.1,5.3,6.1-5.3,6.1Zm11.89,13.69-5.3-6.11,5.3-6.1,5.3,6.1Zm1.28-13.69,5.31-6.1,5.3,6.1-5.3,6.1Zm11.89,13.69-5.3-6.11,5.3-6.1,5.3,6.1Zm1.29-13.69,5.3-6.1,5.3,6.1-5.3,6.1Zm11.88,13.69-5.3-6.11,5.3-6.1,5.31,6.1Z" style="fill:#f5f5f5"></path><path d="M351.55,381.65H256.48v-151h95.07Zm-93.25-2.09h91.43V232.74H258.3Z" style="fill:#e6e6e6"></path><path d="M248,230.65h3.85a.41.41,0,0,1,.41.41V381.65a0,0,0,0,1,0,0h-4.66a0,0,0,0,1,0,0V231.06A.41.41,0,0,1,248,230.65Z" style="fill:#e6e6e6"></path><path d="M458.05,372.91l-5.31-6.1,5.3-6.1.52.59v-4.15l-.52.6-5.3-6.11,5.3-6.1.52.6V342l-.52.59-5.3-6.1,5.3-6.1.52.59v-4.15l-.52.6-5.3-6.11,5.3-6.1.52.6v-4.16l-.52.6-5.3-6.1,5.3-6.1.52.6v-4.16l-.52.6-5.3-6.1,5.3-6.11.52.6v-4.15l-.52.59-5.3-6.1,5.3-6.1.52.6v-4.16l-.52.6-5.3-6.1,5.3-6.11.52.6V251l-.52.59-5.3-6.1,5.31-6.1.51.6v-4.16l-.51.6-4.12-4.73H449l-4.11,4.73-4.11-4.73h-4.95l-4.11,4.73-4.11-4.73h-4.95l-4.11,4.73-4.11-4.73h-5l-4.11,4.73-4.11-4.73h-4.95l-4.11,4.73-4.11-4.73h-4.95L379,236.43l-4.11-4.73H370l-4.11,4.73-.52-.6V240l.52-.6,5.3,6.1-5.3,6.1-.52-.59v4.15l.52-.6,5.3,6.11-5.3,6.1-.52-.6v4.16l.52-.6,5.3,6.1-5.3,6.1-.52-.59v4.15l.52-.6,5.3,6.11-5.3,6.1-.52-.6v4.16l.52-.6,5.3,6.1-5.3,6.1-.52-.6v4.16l.52-.6,5.3,6.1-5.3,6.11-.52-.6V331l.52-.6,5.3,6.1-5.3,6.1-.52-.6v4.16l.52-.6,5.3,6.1-5.3,6.11-.52-.6v4.15l.52-.59,5.3,6.1-5.3,6.1-.52-.6v4.16l.52-.6L370,380.6h4.95l4.11-4.73,4.11,4.73h4.95l4.11-4.73,4.11,4.73h4.95l4.11-4.73,4.11,4.73h5l4.11-4.73,4.11,4.73h4.95l4.11-4.73,4.11,4.73h4.95l4.11-4.73L449,380.6h4.95l4.12-4.73.51.6v-4.15Zm-1.29-13.68-5.3,6.1-5.3-6.1,5.3-6.11Zm-52.69-45.5-5.3,6.11-5.3-6.11,5.3-6.1Zm-10.6-15.16,5.3-6.11,5.3,6.11-5.3,6.1Zm6.58,7.58,5.3-6.1,5.31,6.1-5.31,6.1Zm6.59-7.58,5.3-6.11,5.3,6.11-5.3,6.1Zm5.3,9.06,5.3,6.1-5.3,6.11-5.3-6.11Zm1.29-1.48,5.3-6.1,5.3,6.1-5.3,6.1Zm6.58-7.58,5.3-6.11,5.3,6.11-5.3,6.1Zm5.3,9.06,5.3,6.1-5.3,6.11-5.3-6.11Zm1.29-1.48,5.3-6.1,5.3,6.1-5.3,6.1Zm0-15.16,5.3-6.11L437,291l-5.3,6.1Zm-1.29-1.48-5.3-6.11,5.3-6.1,5.3,6.1ZM423.83,291l-5.3,6.1-5.31-6.1,5.31-6.11Zm-11.89-1.48-5.3-6.11,5.3-6.1,5.3,6.1ZM410.66,291l-5.31,6.1-5.3-6.1,5.3-6.11Zm-11.89-1.48-5.3-6.11,5.3-6.1,5.3,6.1ZM397.48,291l-5.3,6.1-5.3-6.1,5.3-6.11Zm0,15.16-5.3,6.1-5.3-6.1,5.3-6.1Zm0,15.17-5.3,6.1-5.3-6.1,5.3-6.11Zm1.29,1.47,5.3,6.11-5.3,6.1-5.3-6.1Zm1.28-1.47,5.3-6.11,5.31,6.1-5.31,6.11Zm11.89,1.47,5.3,6.11-5.3,6.1-5.3-6.1Zm1.28-1.48,5.31-6.1,5.3,6.11-5.3,6.1Zm11.89,1.48,5.3,6.11-5.3,6.1-5.3-6.1Zm1.29-1.47,5.3-6.11,5.3,6.11-5.3,6.1Zm11.89,1.47,5.3,6.11-5.3,6.1L433,328.9ZM433,313.73l5.31-6.1,5.3,6.1-5.3,6.11Zm0-15.16,5.31-6.11,5.3,6.11-5.3,6.1Zm0-15.17,5.31-6.1,5.3,6.1-5.3,6.11Zm0-15.16,5.31-6.11,5.3,6.11-5.3,6.1Zm4,7.58-5.3,6.1-5.3-6.1,5.3-6.1Zm-11.89-1.48-5.3-6.1,5.3-6.11,5.3,6.11Zm-1.28,1.48-5.3,6.1-5.31-6.1,5.31-6.1Zm-11.89-1.48-5.3-6.1,5.3-6.11,5.3,6.11Zm-1.28,1.48-5.31,6.1-5.3-6.1,5.3-6.1Zm-11.89-1.48-5.3-6.1,5.3-6.11,5.3,6.11Zm-1.29,1.48-5.3,6.1-5.3-6.1,5.3-6.1Zm-11.88-1.48-5.31-6.1,5.31-6.11,5.3,6.11Zm5.3,9.06-5.3,6.11-5.31-6.11,5.31-6.1Zm0,15.17-5.3,6.1-5.31-6.1,5.31-6.11Zm0,15.16-5.3,6.11-5.31-6.11,5.31-6.1Zm0,15.17-5.3,6.1-5.31-6.1,5.31-6.11Zm0,15.16-5.3,6.11-5.31-6.11,5.31-6.1Zm-4-7.58,5.3-6.1,5.3,6.1-5.3,6.1ZM398.77,338l5.3,6.1-5.3,6.11-5.3-6.11Zm1.28-1.48,5.3-6.1,5.31,6.1-5.31,6.1ZM411.94,338l5.3,6.1-5.3,6.11-5.3-6.11Zm1.28-1.48,5.31-6.1,5.3,6.1-5.3,6.1ZM425.11,338l5.3,6.1-5.3,6.11-5.3-6.11Zm1.29-1.48,5.3-6.1,5.3,6.1-5.3,6.1ZM438.29,338l5.3,6.1-5.3,6.11L433,344.06Zm1.28-1.48,5.3-6.1,5.3,6.1-5.3,6.1Zm0-15.16,5.3-6.11,5.3,6.1-5.3,6.11Zm0-15.17,5.3-6.1,5.3,6.1-5.3,6.1Zm0-15.16,5.3-6.11,5.3,6.11-5.3,6.1Zm0-15.17,5.3-6.1,5.3,6.1-5.3,6.1Zm0-15.16,5.3-6.11,5.3,6.11-5.3,6.1Zm-1.28-1.48L433,253.07l5.3-6.1,5.31,6.1ZM437,260.66l-5.3,6.1-5.3-6.1,5.3-6.11Zm-11.89-1.48-5.3-6.11,5.3-6.1,5.3,6.1Zm-1.28,1.48-5.3,6.1-5.3-6.1,5.3-6.11Zm-11.89-1.48-5.3-6.11,5.3-6.1,5.3,6.1Zm-1.28,1.48-5.31,6.1-5.3-6.1,5.3-6.11Zm-11.89-1.48-5.3-6.11,5.3-6.1,5.3,6.1Zm-1.29,1.48-5.3,6.1-5.3-6.1,5.3-6.11Zm-11.88-1.48-5.31-6.11,5.31-6.1,5.3,6.1Zm-1.29,1.48-5.3,6.1-5.3-6.1,5.3-6.11Zm0,15.16-5.3,6.1-5.3-6.1,5.3-6.1Zm0,15.17-5.3,6.1-5.3-6.1,5.3-6.11Zm0,15.16-5.3,6.1-5.3-6.1,5.3-6.1Zm0,15.16-5.3,6.11-5.3-6.11,5.3-6.1Zm0,15.17-5.3,6.1-5.3-6.1,5.3-6.1Zm0,15.16-5.3,6.11-5.3-6.11,5.3-6.1Zm1.29,1.48,5.3,6.11-5.3,6.1-5.31-6.1Zm1.28-1.48,5.3-6.1,5.3,6.1-5.3,6.11Zm11.89,1.48,5.3,6.11-5.3,6.1-5.3-6.1Zm1.28-1.48,5.3-6.1,5.31,6.1-5.31,6.11Zm11.89,1.48,5.3,6.11-5.3,6.1-5.3-6.1Zm1.29-1.48,5.3-6.1,5.3,6.1-5.3,6.11Zm11.88,1.48,5.3,6.11-5.3,6.1-5.3-6.1Zm1.29-1.48,5.3-6.1,5.3,6.1-5.3,6.11Zm11.89,1.48,5.3,6.11-5.31,6.1-5.3-6.1Zm1.28-1.48,5.3-6.1,5.3,6.1-5.3,6.11Zm17.19-7.58-5.3,6.11-5.3-6.11,5.3-6.1Zm0-15.16-5.3,6.1-5.3-6.1,5.3-6.11Zm0-15.17-5.3,6.11-5.3-6.11,5.3-6.1Zm0-15.16-5.3,6.1-5.3-6.1,5.3-6.11Zm0-15.17-5.3,6.11-5.3-6.11,5.3-6.1Zm0-15.16-5.3,6.1-5.3-6.1,5.3-6.11Zm0-15.17-5.3,6.11-5.3-6.11,5.3-6.1Zm-5.3-21.27,5.3,6.11-5.3,6.1-5.3-6.1Zm-1.29,13.69-5.3,6.1-5.3-6.1,5.3-6.1ZM438.29,231.8l5.3,6.11-5.31,6.1-5.3-6.1ZM437,245.49l-5.3,6.1-5.3-6.1,5.3-6.1Zm-11.89-13.68,5.3,6.1-5.3,6.1-5.3-6.1Zm-1.28,13.68-5.3,6.1-5.31-6.1,5.31-6.1ZM411.94,231.8l5.3,6.11-5.3,6.1-5.3-6.1Zm-1.28,13.69-5.31,6.1-5.3-6.1,5.3-6.1Zm-11.89-13.68,5.3,6.1-5.3,6.1-5.3-6.1Zm-1.29,13.68-5.3,6.1-5.3-6.1,5.3-6.1ZM385.6,231.8l5.3,6.11-5.3,6.1-5.31-6.1Zm-1.29,13.69-5.3,6.1-5.3-6.1,5.3-6.1Zm-17.19-7.58,5.3-6.11,5.3,6.11-5.3,6.1Zm0,15.16,5.3-6.1,5.3,6.1-5.3,6.11Zm0,15.17,5.3-6.11,5.3,6.11-5.3,6.1Zm0,15.16,5.3-6.1,5.3,6.1-5.3,6.11Zm0,15.17,5.3-6.11,5.3,6.11-5.3,6.1Zm0,15.16,5.3-6.1,5.3,6.1-5.3,6.11Zm0,15.17,5.3-6.11,5.3,6.11-5.3,6.1Zm0,15.16,5.3-6.1,5.3,6.1-5.3,6.11Zm0,15.17,5.3-6.11,5.3,6.11-5.3,6.1Zm5.3,21.27-5.3-6.11,5.3-6.1,5.3,6.1Zm1.29-13.69,5.3-6.1,5.3,6.1-5.3,6.1ZM385.6,380.5l-5.31-6.11,5.31-6.1,5.3,6.1Zm1.28-13.69,5.3-6.1,5.3,6.1-5.3,6.1Zm11.89,13.69-5.3-6.11,5.3-6.1,5.3,6.1Zm1.28-13.69,5.3-6.1,5.31,6.1-5.31,6.1Zm11.89,13.69-5.3-6.11,5.3-6.1,5.3,6.1Zm1.28-13.69,5.31-6.1,5.3,6.1-5.3,6.1Zm11.89,13.69-5.3-6.11,5.3-6.1,5.3,6.1Zm1.29-13.69,5.3-6.1,5.3,6.1-5.3,6.1Zm11.89,13.69L433,374.39l5.3-6.1,5.31,6.1Zm1.28-13.69,5.3-6.1,5.3,6.1-5.3,6.1Zm11.89,13.69-5.3-6.11,5.3-6.1,5.3,6.1Z" style="fill:#f5f5f5"></path><path d="M459.47,381.65H364.41v-151h95.06Zm-93.25-2.09h91.44V232.74H366.22Z" style="fill:#e6e6e6"></path><path d="M355.95,230.65h3.85a.41.41,0,0,1,.41.41V381.65a0,0,0,0,1,0,0h-4.66a0,0,0,0,1,0,0V231.06A.41.41,0,0,1,355.95,230.65Z" style="fill:#e6e6e6"></path><path d="M120.69,161h59.69c38,0,58.4-13.63,45.63-30.74s-25.87,2.8-25.87,2.8-5.59-16.72-19-16.72c-12,0-14.61,13.61-20,17.5-4.9,3.54-24,2.64-24,2.64l18.7,4-44.9,2.36L151.33,148s-10.84,0-16.05,7.91c0,0-3.64-5.06-10,.63C124.09,157.62,120.69,161,120.69,161Z" style="fill:#f5f5f5"></path><path d="M337.92,120.66h67.23c35.89,0,27.66-23.06,21.51-26.65-6.54-3.81-15,0-15,0s2.9-13.38-8.59-16c-9.5-2.16-14.65,10-14.65,10s-4.85-8.16-13.47-5.33c-9,2.94-6,13.46-9.56,16.65-3.75,3.34-19.68,7-19.68,7L359.16,109l-34,4.85,30.55,2.82Z" style="fill:#f5f5f5"></path><path d="M271.72,106.52h53.56c28.6,0,22-18.38,17.14-21.23-5.21-3-12,0-12,0s2.32-10.66-6.84-12.75c-7.57-1.73-11.67,8-11.67,8S308.07,74,301.2,76.26c-7.14,2.34-4.76,10.72-7.62,13.26s-15.68,5.59-15.68,5.59l10.74,2.13-27.07,3.86,24.34,2.25Z" style="fill:#f5f5f5"></path><path d="M353.19,189.09s34.56-.66,55.61-.66c38.16,0,19.44-33.56,8.64-23.25,0,0-3.6-18.45-21.05-4.27-4.41,3.57-22.7,2.16-22.7,2.16l12.44,3.15-30.78,1.08,29.7,4.84s-8.68-1.22-11.36,7.55c0,0-8.1-4.75-10.78,3.89C362.91,183.58,353.73,180.56,353.19,189.09Z" style="fill:#f5f5f5"></path><path d="M65.37,139.26s32-.61,51.5-.61c35.33,0,18-31.08,8-21.53,0,0-3.33-17.09-19.5-4-4.08,3.31-21,2-21,2l11.52,2.92-28.5,1,27.5,4.48s-8-1.13-10.52,7c0,0-7.49-4.4-10,3.6C74.37,134.15,65.87,131.35,65.37,139.26Z" style="fill:#f5f5f5"></path></g><g id="freepik--Shadow--inject-150"><ellipse id="freepik--path--inject-150" cx="250" cy="415.69" rx="193.89" ry="11.32" style="fill:#f5f5f5"></ellipse></g><g id="freepik--Flag--inject-150"><path d="M328.11,214.85C269.46,154,204.17,314.52,145.5,253.67q7.77-38.17,15.53-76.34c58.67,60.85,124-99.65,182.6-38.82Q335.88,176.69,328.11,214.85Z" style="fill:#407BFF"></path><path d="M166.23,194.72a35,35,0,0,1-7.14-7.85c.78-3.82,1.16-5.73,1.94-9.54a35,35,0,0,0,7.14,7.85C167.39,189,167,190.9,166.23,194.72Z" style="fill:#407BFF"></path><path d="M182.32,201.49a23.44,23.44,0,0,1-8.32-2c.77-3.82,1.16-5.73,1.94-9.55a23.23,23.23,0,0,0,8.32,2C183.49,195.76,183.1,197.67,182.32,201.49Z" style="fill:#407BFF"></path><path d="M200.37,198.64a43.77,43.77,0,0,1-9.23,2.45c.77-3.81,1.16-5.72,1.94-9.54a43.82,43.82,0,0,0,9.23-2.46C201.54,192.91,201.15,194.82,200.37,198.64Z" style="fill:#407BFF"></path><path d="M219.82,188.91a112.93,112.93,0,0,1-9.86,5.55c.77-3.81,1.16-5.72,1.94-9.54,3.89-2,5.87-3.1,9.86-5.55C221,183.19,220.6,185.1,219.82,188.91Z" style="fill:#407BFF"></path><path d="M240.11,175.07c-4.11,3-6.15,4.47-10.21,7.27.77-3.82,1.16-5.73,1.94-9.55,4.06-2.79,6.1-4.26,10.21-7.26C241.27,169.35,240.88,171.25,240.11,175.07Z" style="fill:#407BFF"></path><path d="M260.67,159.85c-4.1,3-6.16,4.55-10.28,7.61.78-3.82,1.17-5.72,1.94-9.54,4.12-3.07,6.18-4.61,10.28-7.61C261.84,154.13,261.45,156,260.67,159.85Z" style="fill:#407BFF"></path><path d="M281,146c-4,2.45-6,3.79-10.07,6.58.77-3.82,1.16-5.73,1.94-9.55,4.06-2.79,6.08-4.13,10.07-6.57C282.12,140.28,281.74,142.19,281,146Z" style="fill:#407BFF"></path><path d="M300.41,136.29a70.59,70.59,0,0,0-9.59,4.17c.78-3.82,1.17-5.72,1.94-9.54a70.69,70.69,0,0,1,9.59-4.18C301.57,130.56,301.18,132.47,300.41,136.29Z" style="fill:#407BFF"></path><path d="M318.46,133.44a29.65,29.65,0,0,0-8.82.39c.78-3.82,1.17-5.72,1.94-9.54a29.67,29.67,0,0,1,8.82-.4C319.62,127.71,319.24,129.62,318.46,133.44Z" style="fill:#407BFF"></path><path d="M334.55,140.2a24.94,24.94,0,0,0-7.76-4.75c.77-3.82,1.16-5.73,1.94-9.55a24.79,24.79,0,0,1,7.76,4.76C335.72,134.48,335.33,136.39,334.55,140.2Z" style="fill:#407BFF"></path><path d="M172.06,209a24.72,24.72,0,0,1-7.77-4.76c.77-3.82,1.16-5.72,1.94-9.54a24.72,24.72,0,0,0,7.77,4.76C173.22,203.29,172.83,205.2,172.06,209Z" style="fill:#407BFF"></path><path d="M189.2,210.63a29.32,29.32,0,0,1-8.82.4c.78-3.82,1.17-5.73,1.94-9.54a29.32,29.32,0,0,0,8.82-.4C190.36,204.91,190,206.82,189.2,210.63Z" style="fill:#407BFF"></path><path d="M208,204a71.86,71.86,0,0,1-9.59,4.17c.78-3.82,1.17-5.73,1.94-9.54a70.69,70.69,0,0,0,9.59-4.18C209.18,198.28,208.79,200.19,208,204Z" style="fill:#407BFF"></path><path d="M228,191.88c-4.06,2.79-6.08,4.13-10.07,6.58.78-3.82,1.17-5.73,1.94-9.55,4-2.44,6-3.78,10.08-6.57Z" style="fill:#407BFF"></path><path d="M248.45,177c-4.12,3.07-6.18,4.62-10.28,7.61.77-3.81,1.16-5.72,1.94-9.54,4.1-3,6.16-4.54,10.28-7.61C249.61,171.28,249.23,173.19,248.45,177Z" style="fill:#407BFF"></path><path d="M269,162.13c-4.07,2.79-6.11,4.27-10.22,7.27.78-3.82,1.17-5.73,1.94-9.55,4.11-3,6.16-4.47,10.22-7.26C270.11,156.4,269.72,158.31,269,162.13Z" style="fill:#407BFF"></path><path d="M288.88,150c-3.89,2-5.87,3.1-9.86,5.55.78-3.82,1.16-5.72,1.94-9.54,4-2.45,6-3.58,9.86-5.55C290.05,144.28,289.66,146.19,288.88,150Z" style="fill:#407BFF"></path><path d="M307.7,143.37a44.59,44.59,0,0,0-9.23,2.46c.77-3.82,1.16-5.73,1.94-9.54a44,44,0,0,1,9.23-2.46C308.87,137.65,308.48,139.56,307.7,143.37Z" style="fill:#407BFF"></path><path d="M324.85,145a23.55,23.55,0,0,0-8.33-2c.77-3.82,1.16-5.73,1.94-9.54a23.55,23.55,0,0,1,8.33,2C326,139.26,325.62,141.17,324.85,145Z" style="fill:#407BFF"></path><path d="M339.75,157.6a34.81,34.81,0,0,0-7.14-7.85c.78-3.82,1.17-5.73,1.94-9.55a34.88,34.88,0,0,1,7.14,7.86C340.92,151.87,340.53,153.78,339.75,157.6Z" style="fill:#407BFF"></path><path d="M162.35,213.8a34.6,34.6,0,0,1-7.14-7.85c.77-3.81,1.16-5.72,1.94-9.54a34.81,34.81,0,0,0,7.14,7.85C163.51,208.08,163.12,210,162.35,213.8Z" style="fill:#407BFF"></path><path d="M178.44,220.57a23.55,23.55,0,0,1-8.33-2l1.95-9.54a23.44,23.44,0,0,0,8.32,2C179.61,214.85,179.22,216.76,178.44,220.57Z" style="fill:#407BFF"></path><path d="M196.49,217.72a44.59,44.59,0,0,1-9.23,2.46c.77-3.82,1.16-5.73,1.94-9.55a43.93,43.93,0,0,0,9.23-2.45C197.66,212,197.27,213.9,196.49,217.72Z" style="fill:#407BFF"></path><path d="M215.94,208c-4,2.45-6,3.58-9.86,5.55.77-3.82,1.16-5.73,1.94-9.54,3.89-2,5.87-3.1,9.86-5.55C217.1,202.27,216.72,204.18,215.94,208Z" style="fill:#407BFF"></path><path d="M236.23,194.16c-4.11,3-6.15,4.47-10.22,7.26.78-3.82,1.17-5.72,1.94-9.54,4.07-2.79,6.11-4.27,10.22-7.27C237.39,188.43,237,190.34,236.23,194.16Z" style="fill:#407BFF"></path><path d="M256.79,178.94c-4.1,3-6.16,4.54-10.28,7.61.78-3.82,1.16-5.73,1.94-9.55,4.12-3.06,6.18-4.61,10.28-7.6C258,173.21,257.57,175.12,256.79,178.94Z" style="fill:#407BFF"></path><path d="M277.08,165.09c-4,2.45-6,3.79-10.07,6.58.77-3.81,1.16-5.72,1.94-9.54C273,159.34,275,158,279,155.55,278.24,159.37,277.86,161.28,277.08,165.09Z" style="fill:#407BFF"></path><path d="M296.53,155.37a70.69,70.69,0,0,0-9.59,4.18c.78-3.82,1.17-5.73,1.94-9.55a71.86,71.86,0,0,1,9.59-4.17C297.69,149.65,297.3,151.56,296.53,155.37Z" style="fill:#407BFF"></path><path d="M314.58,152.52a29.32,29.32,0,0,0-8.82.4c.78-3.82,1.17-5.73,1.94-9.55a29.65,29.65,0,0,1,8.82-.39C315.74,146.8,315.35,148.71,314.58,152.52Z" style="fill:#407BFF"></path><path d="M330.67,159.29a24.72,24.72,0,0,0-7.77-4.76l2-9.54a24.79,24.79,0,0,1,7.76,4.76C331.84,153.56,331.45,155.47,330.67,159.29Z" style="fill:#407BFF"></path><path d="M168.17,228.11a25,25,0,0,1-7.76-4.76c.77-3.82,1.16-5.73,1.94-9.55a24.79,24.79,0,0,0,7.76,4.76C169.34,222.38,169,224.29,168.17,228.11Z" style="fill:#407BFF"></path><path d="M185.32,229.72a29.67,29.67,0,0,1-8.82.4c.78-3.82,1.17-5.73,1.94-9.55a29.65,29.65,0,0,0,8.82-.39C186.48,224,186.09,225.9,185.32,229.72Z" style="fill:#407BFF"></path><path d="M204.14,223.09a69.36,69.36,0,0,1-9.59,4.17c.78-3.81,1.17-5.72,1.94-9.54a70.59,70.59,0,0,0,9.59-4.17C205.3,217.37,204.91,219.27,204.14,223.09Z" style="fill:#407BFF"></path><path d="M224.07,211c-4.06,2.8-6.08,4.13-10.07,6.58.78-3.81,1.16-5.72,1.94-9.54,4-2.45,6-3.79,10.07-6.58C225.24,205.24,224.85,207.15,224.07,211Z" style="fill:#407BFF"></path><path d="M244.57,196.09c-4.12,3.07-6.18,4.61-10.28,7.61.77-3.82,1.16-5.73,1.94-9.54,4.1-3,6.16-4.55,10.28-7.61C245.73,190.36,245.35,192.27,244.57,196.09Z" style="fill:#407BFF"></path><path d="M265.07,181.22c-4.07,2.79-6.11,4.26-10.22,7.26.78-3.82,1.17-5.72,1.94-9.54,4.11-3,6.15-4.48,10.22-7.27C266.23,175.49,265.84,177.4,265.07,181.22Z" style="fill:#407BFF"></path><path d="M285,169.09c-3.89,2-5.87,3.1-9.86,5.55.77-3.82,1.16-5.73,1.94-9.55,4-2.44,6-3.58,9.86-5.54C286.17,163.36,285.78,165.27,285,169.09Z" style="fill:#407BFF"></path><path d="M303.82,162.46a43.82,43.82,0,0,0-9.23,2.46c.77-3.82,1.16-5.73,1.94-9.55a43.93,43.93,0,0,1,9.23-2.45C305,156.73,304.6,158.64,303.82,162.46Z" style="fill:#407BFF"></path><path d="M321,164.07a23.44,23.44,0,0,0-8.32-2c.77-3.81,1.16-5.72,1.94-9.54a23.44,23.44,0,0,1,8.32,2C322.13,158.35,321.74,160.26,321,164.07Z" style="fill:#407BFF"></path><path d="M335.87,176.68a35,35,0,0,0-7.14-7.85c.78-3.81,1.17-5.72,1.94-9.54a35,35,0,0,1,7.14,7.85C337,171,336.65,172.87,335.87,176.68Z" style="fill:#407BFF"></path><path d="M158.47,232.89a35,35,0,0,1-7.14-7.85c.77-3.82,1.16-5.73,1.94-9.54a35,35,0,0,0,7.14,7.85C159.63,227.16,159.24,229.07,158.47,232.89Z" style="fill:#407BFF"></path><path d="M174.56,239.66a23.55,23.55,0,0,1-8.33-2c.78-3.82,1.17-5.73,1.94-9.54a23.76,23.76,0,0,0,8.33,2C175.72,233.93,175.34,235.84,174.56,239.66Z" style="fill:#407BFF"></path><path d="M192.61,236.81a43.93,43.93,0,0,1-9.23,2.45c.77-3.81,1.16-5.72,1.94-9.54a44,44,0,0,0,9.23-2.46C193.78,231.08,193.39,233,192.61,236.81Z" style="fill:#407BFF"></path><path d="M212.06,227.09c-4,2.44-6,3.58-9.86,5.54.77-3.81,1.16-5.72,1.94-9.54,3.89-2,5.87-3.1,9.86-5.55C213.22,221.36,212.84,223.27,212.06,227.09Z" style="fill:#407BFF"></path><path d="M232.35,213.24c-4.11,3-6.16,4.48-10.22,7.27.78-3.82,1.17-5.73,1.94-9.55,4.06-2.79,6.11-4.26,10.22-7.26C233.51,207.52,233.12,209.42,232.35,213.24Z" style="fill:#407BFF"></path><path d="M252.91,198c-4.1,3-6.16,4.55-10.28,7.61.77-3.81,1.16-5.72,1.94-9.54,4.12-3.07,6.18-4.61,10.28-7.61C254.08,192.3,253.69,194.21,252.91,198Z" style="fill:#407BFF"></path><path d="M273.2,184.18c-4,2.45-6,3.79-10.08,6.58l1.95-9.54c4.06-2.8,6.08-4.13,10.07-6.58C274.36,178.45,274,180.36,273.2,184.18Z" style="fill:#407BFF"></path><path d="M292.65,174.46a70.59,70.59,0,0,0-9.59,4.17c.78-3.82,1.17-5.72,1.94-9.54a69.36,69.36,0,0,1,9.59-4.17C293.81,168.73,293.42,170.64,292.65,174.46Z" style="fill:#407BFF"></path><path d="M310.7,171.61a29.63,29.63,0,0,0-8.82.39c.78-3.81,1.16-5.72,1.94-9.54a29.65,29.65,0,0,1,8.82-.4C311.86,165.88,311.47,167.79,310.7,171.61Z" style="fill:#407BFF"></path><path d="M326.79,178.38a24.83,24.83,0,0,0-7.77-4.76c.78-3.82,1.17-5.73,1.94-9.55a24.9,24.9,0,0,1,7.77,4.76C328,172.65,327.57,174.56,326.79,178.38Z" style="fill:#407BFF"></path><path d="M164.29,247.19a24.94,24.94,0,0,1-7.77-4.76l1.95-9.54a24.79,24.79,0,0,0,7.76,4.76C165.46,241.46,165.07,243.37,164.29,247.19Z" style="fill:#407BFF"></path><path d="M181.44,248.81a29.65,29.65,0,0,1-8.82.39c.78-3.82,1.16-5.73,1.94-9.54a29.34,29.34,0,0,0,8.82-.4C182.6,243.08,182.21,245,181.44,248.81Z" style="fill:#407BFF"></path><path d="M200.25,242.18a71.2,71.2,0,0,1-9.58,4.17c.78-3.82,1.16-5.73,1.94-9.54a70.69,70.69,0,0,0,9.59-4.18Z" style="fill:#407BFF"></path><path d="M220.19,230.05c-4.06,2.79-6.08,4.13-10.07,6.58.77-3.82,1.16-5.73,1.94-9.54,4-2.45,6-3.79,10.07-6.58C221.36,224.32,221,226.23,220.19,230.05Z" style="fill:#407BFF"></path><path d="M240.69,215.18c-4.12,3.06-6.18,4.61-10.29,7.6l1.95-9.54c4.1-3,6.16-4.54,10.28-7.61C241.85,209.45,241.46,211.36,240.69,215.18Z" style="fill:#407BFF"></path><path d="M261.18,200.3c-4.06,2.79-6.11,4.27-10.21,7.27.78-3.82,1.17-5.73,1.94-9.55,4.11-3,6.15-4.47,10.21-7.26C262.35,194.58,262,196.48,261.18,200.3Z" style="fill:#407BFF"></path><path d="M281.12,188.17c-3.89,2-5.87,3.1-9.86,5.55.77-3.81,1.16-5.72,1.94-9.54,4-2.45,6-3.58,9.86-5.55C282.28,182.45,281.9,184.36,281.12,188.17Z" style="fill:#407BFF"></path><path d="M299.94,181.55A43.85,43.85,0,0,0,290.7,184l1.95-9.54a44.43,44.43,0,0,1,9.23-2.46C301.1,175.82,300.72,177.73,299.94,181.55Z" style="fill:#407BFF"></path><path d="M317.08,183.16a23.44,23.44,0,0,0-8.32-2c.77-3.82,1.16-5.73,1.94-9.54a23.44,23.44,0,0,1,8.32,2C318.25,177.43,317.86,179.34,317.08,183.16Z" style="fill:#407BFF"></path><path d="M332,195.77a34.81,34.81,0,0,0-7.14-7.85c.78-3.82,1.16-5.73,1.94-9.54a34.6,34.6,0,0,1,7.14,7.85C333.15,190,332.77,192,332,195.77Z" style="fill:#407BFF"></path><path d="M154.58,252a34.8,34.8,0,0,1-7.13-7.85c.77-3.81,1.16-5.72,1.94-9.54a35,35,0,0,0,7.13,7.85C155.75,246.25,155.36,248.16,154.58,252Z" style="fill:#407BFF"></path><path d="M170.68,258.74a23.55,23.55,0,0,1-8.33-2c.78-3.81,1.17-5.72,1.94-9.54a23.55,23.55,0,0,0,8.33,2C171.84,253,171.46,254.93,170.68,258.74Z" style="fill:#407BFF"></path><path d="M188.73,255.89a43.9,43.9,0,0,1-9.24,2.46l1.95-9.54a44.59,44.59,0,0,0,9.23-2.46C189.89,250.17,189.51,252.08,188.73,255.89Z" style="fill:#407BFF"></path><path d="M208.18,246.17c-4,2.45-6,3.58-9.87,5.55.78-3.82,1.17-5.73,1.94-9.54,3.9-2,5.88-3.1,9.87-5.55C209.34,240.45,209,242.35,208.18,246.17Z" style="fill:#407BFF"></path><path d="M228.46,232.33c-4.1,3-6.15,4.47-10.21,7.26.78-3.81,1.17-5.72,1.94-9.54,4.06-2.79,6.11-4.27,10.21-7.27C229.63,226.6,229.24,228.51,228.46,232.33Z" style="fill:#407BFF"></path><path d="M249,217.11c-4.1,3-6.17,4.54-10.28,7.61.77-3.82,1.16-5.73,1.94-9.54,4.12-3.07,6.18-4.62,10.28-7.61C250.19,211.38,249.81,213.29,249,217.11Z" style="fill:#407BFF"></path><path d="M269.32,203.27c-4,2.44-6,3.78-10.08,6.57.78-3.81,1.17-5.72,1.94-9.54,4.07-2.79,6.08-4.13,10.08-6.58C270.48,197.54,270.09,199.45,269.32,203.27Z" style="fill:#407BFF"></path><path d="M288.76,193.54a70.58,70.58,0,0,0-9.58,4.18c.78-3.82,1.16-5.73,1.94-9.55A71.76,71.76,0,0,1,290.7,184C289.93,187.82,289.54,189.73,288.76,193.54Z" style="fill:#407BFF"></path><path d="M306.81,190.69a29.26,29.26,0,0,0-8.81.4c.78-3.82,1.16-5.73,1.94-9.54a29.31,29.31,0,0,1,8.82-.4Z" style="fill:#407BFF"></path><path d="M322.91,197.46a24.83,24.83,0,0,0-7.77-4.76c.78-3.81,1.17-5.72,1.94-9.54a24.83,24.83,0,0,1,7.77,4.76C324.07,191.74,323.69,193.64,322.91,197.46Z" style="fill:#407BFF"></path><path d="M160.41,266.28a25.13,25.13,0,0,1-7.77-4.76c.78-3.82,1.17-5.73,1.94-9.55a24.94,24.94,0,0,0,7.77,4.76C161.58,260.55,161.19,262.46,160.41,266.28Z" style="fill:#407BFF"></path><path d="M177.55,267.89a29.58,29.58,0,0,1-8.81.4c.77-3.82,1.16-5.73,1.94-9.55a29.57,29.57,0,0,0,8.81-.39C178.72,262.17,178.33,264.07,177.55,267.89Z" style="fill:#407BFF"></path><path d="M196.37,261.26a68.74,68.74,0,0,1-9.58,4.17c.78-3.81,1.16-5.72,1.94-9.54a70,70,0,0,0,9.58-4.17C197.54,255.54,197.15,257.44,196.37,261.26Z" style="fill:#407BFF"></path><path d="M216.31,249.14c-4.06,2.79-6.08,4.13-10.07,6.57.77-3.81,1.16-5.72,1.94-9.54,4-2.45,6-3.79,10.07-6.58C217.47,243.41,217.09,245.32,216.31,249.14Z" style="fill:#407BFF"></path><path d="M236.81,234.26c-4.12,3.07-6.18,4.61-10.29,7.61.78-3.82,1.17-5.73,1.94-9.54,4.11-3,6.17-4.55,10.29-7.61C238,228.54,237.58,230.44,236.81,234.26Z" style="fill:#407BFF"></path><path d="M257.3,219.39c-4.06,2.79-6.11,4.26-10.21,7.26.78-3.82,1.16-5.72,1.94-9.54,4.1-3,6.15-4.47,10.21-7.27C258.47,213.66,258.08,215.57,257.3,219.39Z" style="fill:#407BFF"></path><path d="M277.24,207.26c-3.9,2-5.87,3.1-9.86,5.55.77-3.82,1.16-5.73,1.94-9.54a112.93,112.93,0,0,1,9.86-5.55C278.4,201.53,278,203.44,277.24,207.26Z" style="fill:#407BFF"></path><path d="M296.06,200.63a43.9,43.9,0,0,0-9.24,2.46c.78-3.82,1.17-5.73,1.94-9.55a43.85,43.85,0,0,1,9.24-2.45C297.22,194.9,296.83,196.81,296.06,200.63Z" style="fill:#407BFF"></path><path d="M313.2,202.25a23.23,23.23,0,0,0-8.33-2c.78-3.82,1.17-5.73,1.94-9.55a23.44,23.44,0,0,1,8.33,2C314.37,196.52,314,198.43,313.2,202.25Z" style="fill:#407BFF"></path><path d="M328.11,214.85A35.27,35.27,0,0,0,321,207c.78-3.81,1.16-5.72,1.94-9.54a35,35,0,0,1,7.14,7.85C329.27,209.13,328.88,211,328.11,214.85Z" style="fill:#407BFF"></path><g style="opacity:0.7000000000000001"><path d="M166.23,194.72a35,35,0,0,1-7.14-7.85c.78-3.82,1.16-5.73,1.94-9.54a35,35,0,0,0,7.14,7.85C167.39,189,167,190.9,166.23,194.72Z" style="fill:#fff"></path><path d="M182.32,201.49a23.44,23.44,0,0,1-8.32-2c.77-3.82,1.16-5.73,1.94-9.55a23.23,23.23,0,0,0,8.32,2C183.49,195.76,183.1,197.67,182.32,201.49Z" style="fill:#fff"></path><path d="M200.37,198.64a43.77,43.77,0,0,1-9.23,2.45c.77-3.81,1.16-5.72,1.94-9.54a43.82,43.82,0,0,0,9.23-2.46C201.54,192.91,201.15,194.82,200.37,198.64Z" style="fill:#fff"></path><path d="M219.82,188.91a112.93,112.93,0,0,1-9.86,5.55c.77-3.81,1.16-5.72,1.94-9.54,3.89-2,5.87-3.1,9.86-5.55C221,183.19,220.6,185.1,219.82,188.91Z" style="fill:#fff"></path><path d="M240.11,175.07c-4.11,3-6.15,4.47-10.21,7.27.77-3.82,1.16-5.73,1.94-9.55,4.06-2.79,6.1-4.26,10.21-7.26C241.27,169.35,240.88,171.25,240.11,175.07Z" style="fill:#fff"></path><path d="M260.67,159.85c-4.1,3-6.16,4.55-10.28,7.61.78-3.82,1.17-5.72,1.94-9.54,4.12-3.07,6.18-4.61,10.28-7.61C261.84,154.13,261.45,156,260.67,159.85Z" style="fill:#fff"></path><path d="M281,146c-4,2.45-6,3.79-10.07,6.58.77-3.82,1.16-5.73,1.94-9.55,4.06-2.79,6.08-4.13,10.07-6.57C282.12,140.28,281.74,142.19,281,146Z" style="fill:#fff"></path><path d="M300.41,136.29a70.59,70.59,0,0,0-9.59,4.17c.78-3.82,1.17-5.72,1.94-9.54a70.69,70.69,0,0,1,9.59-4.18C301.57,130.56,301.18,132.47,300.41,136.29Z" style="fill:#fff"></path><path d="M318.46,133.44a29.65,29.65,0,0,0-8.82.39c.78-3.82,1.17-5.72,1.94-9.54a29.67,29.67,0,0,1,8.82-.4C319.62,127.71,319.24,129.62,318.46,133.44Z" style="fill:#fff"></path><path d="M334.55,140.2a24.94,24.94,0,0,0-7.76-4.75c.77-3.82,1.16-5.73,1.94-9.55a24.79,24.79,0,0,1,7.76,4.76C335.72,134.48,335.33,136.39,334.55,140.2Z" style="fill:#fff"></path><path d="M172.06,209a24.72,24.72,0,0,1-7.77-4.76c.77-3.82,1.16-5.72,1.94-9.54a24.72,24.72,0,0,0,7.77,4.76C173.22,203.29,172.83,205.2,172.06,209Z" style="fill:#fff"></path><path d="M189.2,210.63a29.32,29.32,0,0,1-8.82.4c.78-3.82,1.17-5.73,1.94-9.54a29.32,29.32,0,0,0,8.82-.4C190.36,204.91,190,206.82,189.2,210.63Z" style="fill:#fff"></path><path d="M208,204a71.86,71.86,0,0,1-9.59,4.17c.78-3.82,1.17-5.73,1.94-9.54a70.69,70.69,0,0,0,9.59-4.18C209.18,198.28,208.79,200.19,208,204Z" style="fill:#fff"></path><path d="M228,191.88c-4.06,2.79-6.08,4.13-10.07,6.58.78-3.82,1.17-5.73,1.94-9.55,4-2.44,6-3.78,10.08-6.57Z" style="fill:#fff"></path><path d="M248.45,177c-4.12,3.07-6.18,4.62-10.28,7.61.77-3.81,1.16-5.72,1.94-9.54,4.1-3,6.16-4.54,10.28-7.61C249.61,171.28,249.23,173.19,248.45,177Z" style="fill:#fff"></path><path d="M269,162.13c-4.07,2.79-6.11,4.27-10.22,7.27.78-3.82,1.17-5.73,1.94-9.55,4.11-3,6.16-4.47,10.22-7.26C270.11,156.4,269.72,158.31,269,162.13Z" style="fill:#fff"></path><path d="M288.88,150c-3.89,2-5.87,3.1-9.86,5.55.78-3.82,1.16-5.72,1.94-9.54,4-2.45,6-3.58,9.86-5.55C290.05,144.28,289.66,146.19,288.88,150Z" style="fill:#fff"></path><path d="M307.7,143.37a44.59,44.59,0,0,0-9.23,2.46c.77-3.82,1.16-5.73,1.94-9.54a44,44,0,0,1,9.23-2.46C308.87,137.65,308.48,139.56,307.7,143.37Z" style="fill:#fff"></path><path d="M324.85,145a23.55,23.55,0,0,0-8.33-2c.77-3.82,1.16-5.73,1.94-9.54a23.55,23.55,0,0,1,8.33,2C326,139.26,325.62,141.17,324.85,145Z" style="fill:#fff"></path><path d="M339.75,157.6a34.81,34.81,0,0,0-7.14-7.85c.78-3.82,1.17-5.73,1.94-9.55a34.88,34.88,0,0,1,7.14,7.86C340.92,151.87,340.53,153.78,339.75,157.6Z" style="fill:#fff"></path><path d="M162.35,213.8a34.6,34.6,0,0,1-7.14-7.85c.77-3.81,1.16-5.72,1.94-9.54a34.81,34.81,0,0,0,7.14,7.85C163.51,208.08,163.12,210,162.35,213.8Z" style="fill:#fff"></path><path d="M178.44,220.57a23.55,23.55,0,0,1-8.33-2l1.95-9.54a23.44,23.44,0,0,0,8.32,2C179.61,214.85,179.22,216.76,178.44,220.57Z" style="fill:#fff"></path><path d="M196.49,217.72a44.59,44.59,0,0,1-9.23,2.46c.77-3.82,1.16-5.73,1.94-9.55a43.93,43.93,0,0,0,9.23-2.45C197.66,212,197.27,213.9,196.49,217.72Z" style="fill:#fff"></path><path d="M215.94,208c-4,2.45-6,3.58-9.86,5.55.77-3.82,1.16-5.73,1.94-9.54,3.89-2,5.87-3.1,9.86-5.55C217.1,202.27,216.72,204.18,215.94,208Z" style="fill:#fff"></path><path d="M236.23,194.16c-4.11,3-6.15,4.47-10.22,7.26.78-3.82,1.17-5.72,1.94-9.54,4.07-2.79,6.11-4.27,10.22-7.27C237.39,188.43,237,190.34,236.23,194.16Z" style="fill:#fff"></path><path d="M256.79,178.94c-4.1,3-6.16,4.54-10.28,7.61.78-3.82,1.16-5.73,1.94-9.55,4.12-3.06,6.18-4.61,10.28-7.6C258,173.21,257.57,175.12,256.79,178.94Z" style="fill:#fff"></path><path d="M277.08,165.09c-4,2.45-6,3.79-10.07,6.58.77-3.81,1.16-5.72,1.94-9.54C273,159.34,275,158,279,155.55,278.24,159.37,277.86,161.28,277.08,165.09Z" style="fill:#fff"></path><path d="M296.53,155.37a70.69,70.69,0,0,0-9.59,4.18c.78-3.82,1.17-5.73,1.94-9.55a71.86,71.86,0,0,1,9.59-4.17C297.69,149.65,297.3,151.56,296.53,155.37Z" style="fill:#fff"></path><path d="M314.58,152.52a29.32,29.32,0,0,0-8.82.4c.78-3.82,1.17-5.73,1.94-9.55a29.65,29.65,0,0,1,8.82-.39C315.74,146.8,315.35,148.71,314.58,152.52Z" style="fill:#fff"></path><path d="M330.67,159.29a24.72,24.72,0,0,0-7.77-4.76l2-9.54a24.79,24.79,0,0,1,7.76,4.76C331.84,153.56,331.45,155.47,330.67,159.29Z" style="fill:#fff"></path><path d="M168.17,228.11a25,25,0,0,1-7.76-4.76c.77-3.82,1.16-5.73,1.94-9.55a24.79,24.79,0,0,0,7.76,4.76C169.34,222.38,169,224.29,168.17,228.11Z" style="fill:#fff"></path><path d="M185.32,229.72a29.67,29.67,0,0,1-8.82.4c.78-3.82,1.17-5.73,1.94-9.55a29.65,29.65,0,0,0,8.82-.39C186.48,224,186.09,225.9,185.32,229.72Z" style="fill:#fff"></path><path d="M204.14,223.09a69.36,69.36,0,0,1-9.59,4.17c.78-3.81,1.17-5.72,1.94-9.54a70.59,70.59,0,0,0,9.59-4.17C205.3,217.37,204.91,219.27,204.14,223.09Z" style="fill:#fff"></path><path d="M224.07,211c-4.06,2.8-6.08,4.13-10.07,6.58.78-3.81,1.16-5.72,1.94-9.54,4-2.45,6-3.79,10.07-6.58C225.24,205.24,224.85,207.15,224.07,211Z" style="fill:#fff"></path><path d="M244.57,196.09c-4.12,3.07-6.18,4.61-10.28,7.61.77-3.82,1.16-5.73,1.94-9.54,4.1-3,6.16-4.55,10.28-7.61C245.73,190.36,245.35,192.27,244.57,196.09Z" style="fill:#fff"></path><path d="M265.07,181.22c-4.07,2.79-6.11,4.26-10.22,7.26.78-3.82,1.17-5.72,1.94-9.54,4.11-3,6.15-4.48,10.22-7.27C266.23,175.49,265.84,177.4,265.07,181.22Z" style="fill:#fff"></path><path d="M285,169.09c-3.89,2-5.87,3.1-9.86,5.55.77-3.82,1.16-5.73,1.94-9.55,4-2.44,6-3.58,9.86-5.54C286.17,163.36,285.78,165.27,285,169.09Z" style="fill:#fff"></path><path d="M303.82,162.46a43.82,43.82,0,0,0-9.23,2.46c.77-3.82,1.16-5.73,1.94-9.55a43.93,43.93,0,0,1,9.23-2.45C305,156.73,304.6,158.64,303.82,162.46Z" style="fill:#fff"></path><path d="M321,164.07a23.44,23.44,0,0,0-8.32-2c.77-3.81,1.16-5.72,1.94-9.54a23.44,23.44,0,0,1,8.32,2C322.13,158.35,321.74,160.26,321,164.07Z" style="fill:#fff"></path><path d="M335.87,176.68a35,35,0,0,0-7.14-7.85c.78-3.81,1.17-5.72,1.94-9.54a35,35,0,0,1,7.14,7.85C337,171,336.65,172.87,335.87,176.68Z" style="fill:#fff"></path><path d="M158.47,232.89a35,35,0,0,1-7.14-7.85c.77-3.82,1.16-5.73,1.94-9.54a35,35,0,0,0,7.14,7.85C159.63,227.16,159.24,229.07,158.47,232.89Z" style="fill:#fff"></path><path d="M174.56,239.66a23.55,23.55,0,0,1-8.33-2c.78-3.82,1.17-5.73,1.94-9.54a23.76,23.76,0,0,0,8.33,2C175.72,233.93,175.34,235.84,174.56,239.66Z" style="fill:#fff"></path><path d="M192.61,236.81a43.93,43.93,0,0,1-9.23,2.45c.77-3.81,1.16-5.72,1.94-9.54a44,44,0,0,0,9.23-2.46C193.78,231.08,193.39,233,192.61,236.81Z" style="fill:#fff"></path><path d="M212.06,227.09c-4,2.44-6,3.58-9.86,5.54.77-3.81,1.16-5.72,1.94-9.54,3.89-2,5.87-3.1,9.86-5.55C213.22,221.36,212.84,223.27,212.06,227.09Z" style="fill:#fff"></path><path d="M232.35,213.24c-4.11,3-6.16,4.48-10.22,7.27.78-3.82,1.17-5.73,1.94-9.55,4.06-2.79,6.11-4.26,10.22-7.26C233.51,207.52,233.12,209.42,232.35,213.24Z" style="fill:#fff"></path><path d="M252.91,198c-4.1,3-6.16,4.55-10.28,7.61.77-3.81,1.16-5.72,1.94-9.54,4.12-3.07,6.18-4.61,10.28-7.61C254.08,192.3,253.69,194.21,252.91,198Z" style="fill:#fff"></path><path d="M273.2,184.18c-4,2.45-6,3.79-10.08,6.58l1.95-9.54c4.06-2.8,6.08-4.13,10.07-6.58C274.36,178.45,274,180.36,273.2,184.18Z" style="fill:#fff"></path><path d="M292.65,174.46a70.59,70.59,0,0,0-9.59,4.17c.78-3.82,1.17-5.72,1.94-9.54a69.36,69.36,0,0,1,9.59-4.17C293.81,168.73,293.42,170.64,292.65,174.46Z" style="fill:#fff"></path><path d="M310.7,171.61a29.63,29.63,0,0,0-8.82.39c.78-3.81,1.16-5.72,1.94-9.54a29.65,29.65,0,0,1,8.82-.4C311.86,165.88,311.47,167.79,310.7,171.61Z" style="fill:#fff"></path><path d="M326.79,178.38a24.83,24.83,0,0,0-7.77-4.76c.78-3.82,1.17-5.73,1.94-9.55a24.9,24.9,0,0,1,7.77,4.76C328,172.65,327.57,174.56,326.79,178.38Z" style="fill:#fff"></path><path d="M164.29,247.19a24.94,24.94,0,0,1-7.77-4.76l1.95-9.54a24.79,24.79,0,0,0,7.76,4.76C165.46,241.46,165.07,243.37,164.29,247.19Z" style="fill:#fff"></path><path d="M181.44,248.81a29.65,29.65,0,0,1-8.82.39c.78-3.82,1.16-5.73,1.94-9.54a29.34,29.34,0,0,0,8.82-.4C182.6,243.08,182.21,245,181.44,248.81Z" style="fill:#fff"></path><path d="M200.25,242.18a71.2,71.2,0,0,1-9.58,4.17c.78-3.82,1.16-5.73,1.94-9.54a70.69,70.69,0,0,0,9.59-4.18Z" style="fill:#fff"></path><path d="M220.19,230.05c-4.06,2.79-6.08,4.13-10.07,6.58.77-3.82,1.16-5.73,1.94-9.54,4-2.45,6-3.79,10.07-6.58C221.36,224.32,221,226.23,220.19,230.05Z" style="fill:#fff"></path><path d="M240.69,215.18c-4.12,3.06-6.18,4.61-10.29,7.6l1.95-9.54c4.1-3,6.16-4.54,10.28-7.61C241.85,209.45,241.46,211.36,240.69,215.18Z" style="fill:#fff"></path><path d="M261.18,200.3c-4.06,2.79-6.11,4.27-10.21,7.27.78-3.82,1.17-5.73,1.94-9.55,4.11-3,6.15-4.47,10.21-7.26C262.35,194.58,262,196.48,261.18,200.3Z" style="fill:#fff"></path><path d="M281.12,188.17c-3.89,2-5.87,3.1-9.86,5.55.77-3.81,1.16-5.72,1.94-9.54,4-2.45,6-3.58,9.86-5.55C282.28,182.45,281.9,184.36,281.12,188.17Z" style="fill:#fff"></path><path d="M299.94,181.55A43.85,43.85,0,0,0,290.7,184l1.95-9.54a44.43,44.43,0,0,1,9.23-2.46C301.1,175.82,300.72,177.73,299.94,181.55Z" style="fill:#fff"></path><path d="M317.08,183.16a23.44,23.44,0,0,0-8.32-2c.77-3.82,1.16-5.73,1.94-9.54a23.44,23.44,0,0,1,8.32,2C318.25,177.43,317.86,179.34,317.08,183.16Z" style="fill:#fff"></path><path d="M332,195.77a34.81,34.81,0,0,0-7.14-7.85c.78-3.82,1.16-5.73,1.94-9.54a34.6,34.6,0,0,1,7.14,7.85C333.15,190,332.77,192,332,195.77Z" style="fill:#fff"></path><path d="M154.58,252a34.8,34.8,0,0,1-7.13-7.85c.77-3.81,1.16-5.72,1.94-9.54a35,35,0,0,0,7.13,7.85C155.75,246.25,155.36,248.16,154.58,252Z" style="fill:#fff"></path><path d="M170.68,258.74a23.55,23.55,0,0,1-8.33-2c.78-3.81,1.17-5.72,1.94-9.54a23.55,23.55,0,0,0,8.33,2C171.84,253,171.46,254.93,170.68,258.74Z" style="fill:#fff"></path><path d="M188.73,255.89a43.9,43.9,0,0,1-9.24,2.46l1.95-9.54a44.59,44.59,0,0,0,9.23-2.46C189.89,250.17,189.51,252.08,188.73,255.89Z" style="fill:#fff"></path><path d="M208.18,246.17c-4,2.45-6,3.58-9.87,5.55.78-3.82,1.17-5.73,1.94-9.54,3.9-2,5.88-3.1,9.87-5.55C209.34,240.45,209,242.35,208.18,246.17Z" style="fill:#fff"></path><path d="M228.46,232.33c-4.1,3-6.15,4.47-10.21,7.26.78-3.81,1.17-5.72,1.94-9.54,4.06-2.79,6.11-4.27,10.21-7.27C229.63,226.6,229.24,228.51,228.46,232.33Z" style="fill:#fff"></path><path d="M249,217.11c-4.1,3-6.17,4.54-10.28,7.61.77-3.82,1.16-5.73,1.94-9.54,4.12-3.07,6.18-4.62,10.28-7.61C250.19,211.38,249.81,213.29,249,217.11Z" style="fill:#fff"></path><path d="M269.32,203.27c-4,2.44-6,3.78-10.08,6.57.78-3.81,1.17-5.72,1.94-9.54,4.07-2.79,6.08-4.13,10.08-6.58C270.48,197.54,270.09,199.45,269.32,203.27Z" style="fill:#fff"></path><path d="M288.76,193.54a70.58,70.58,0,0,0-9.58,4.18c.78-3.82,1.16-5.73,1.94-9.55A71.76,71.76,0,0,1,290.7,184C289.93,187.82,289.54,189.73,288.76,193.54Z" style="fill:#fff"></path><path d="M306.81,190.69a29.26,29.26,0,0,0-8.81.4c.78-3.82,1.16-5.73,1.94-9.54a29.31,29.31,0,0,1,8.82-.4Z" style="fill:#fff"></path><path d="M322.91,197.46a24.83,24.83,0,0,0-7.77-4.76c.78-3.81,1.17-5.72,1.94-9.54a24.83,24.83,0,0,1,7.77,4.76C324.07,191.74,323.69,193.64,322.91,197.46Z" style="fill:#fff"></path><path d="M160.41,266.28a25.13,25.13,0,0,1-7.77-4.76c.78-3.82,1.17-5.73,1.94-9.55a24.94,24.94,0,0,0,7.77,4.76C161.58,260.55,161.19,262.46,160.41,266.28Z" style="fill:#fff"></path><path d="M177.55,267.89a29.58,29.58,0,0,1-8.81.4c.77-3.82,1.16-5.73,1.94-9.55a29.57,29.57,0,0,0,8.81-.39C178.72,262.17,178.33,264.07,177.55,267.89Z" style="fill:#fff"></path><path d="M196.37,261.26a68.74,68.74,0,0,1-9.58,4.17c.78-3.81,1.16-5.72,1.94-9.54a70,70,0,0,0,9.58-4.17C197.54,255.54,197.15,257.44,196.37,261.26Z" style="fill:#fff"></path><path d="M216.31,249.14c-4.06,2.79-6.08,4.13-10.07,6.57.77-3.81,1.16-5.72,1.94-9.54,4-2.45,6-3.79,10.07-6.58C217.47,243.41,217.09,245.32,216.31,249.14Z" style="fill:#fff"></path><path d="M236.81,234.26c-4.12,3.07-6.18,4.61-10.29,7.61.78-3.82,1.17-5.73,1.94-9.54,4.11-3,6.17-4.55,10.29-7.61C238,228.54,237.58,230.44,236.81,234.26Z" style="fill:#fff"></path><path d="M257.3,219.39c-4.06,2.79-6.11,4.26-10.21,7.26.78-3.82,1.16-5.72,1.94-9.54,4.1-3,6.15-4.47,10.21-7.27C258.47,213.66,258.08,215.57,257.3,219.39Z" style="fill:#fff"></path><path d="M277.24,207.26c-3.9,2-5.87,3.1-9.86,5.55.77-3.82,1.16-5.73,1.94-9.54a112.93,112.93,0,0,1,9.86-5.55C278.4,201.53,278,203.44,277.24,207.26Z" style="fill:#fff"></path><path d="M296.06,200.63a43.9,43.9,0,0,0-9.24,2.46c.78-3.82,1.17-5.73,1.94-9.55a43.85,43.85,0,0,1,9.24-2.45C297.22,194.9,296.83,196.81,296.06,200.63Z" style="fill:#fff"></path><path d="M313.2,202.25a23.23,23.23,0,0,0-8.33-2c.78-3.82,1.17-5.73,1.94-9.55a23.44,23.44,0,0,1,8.33,2C314.37,196.52,314,198.43,313.2,202.25Z" style="fill:#fff"></path><path d="M328.11,214.85A35.27,35.27,0,0,0,321,207c.78-3.81,1.16-5.72,1.94-9.54a35,35,0,0,1,7.14,7.85C329.27,209.13,328.88,211,328.11,214.85Z" style="fill:#fff"></path></g><path d="M309.05,311.94h0a1,1,0,0,1-.78-1.18l34.87-171.47a1,1,0,0,1,1.18-.78h0a1,1,0,0,1,.78,1.18L310.23,311.16A1,1,0,0,1,309.05,311.94Z" style="fill:#407BFF"></path></g><g id="freepik--Car--inject-150"><path d="M185.09,300.89H190c4.6,0,8.81,3.16,10.86,8.15l16.41,40.1H185.09Z" style="fill:#407BFF"></path><path d="M185.09,300.89H190c4.6,0,8.81,3.16,10.86,8.15l16.41,40.1H185.09Z" style="opacity:0.30000000000000004"></path><rect x="254.49" y="309.52" width="13.78" height="4.65" transform="translate(58.12 -40.65) rotate(10)" style="fill:#263238"></rect><rect x="257.94" y="309.81" width="17.73" height="5.98" transform="translate(58.37 -41.58) rotate(10)" style="fill:#263238"></rect><path d="M251.51,326.51h0a1.83,1.83,0,0,1-1.48-2.12l5.21-29.57a1.83,1.83,0,0,1,2.12-1.48h0a1.82,1.82,0,0,1,1.48,2.12L253.63,325A1.83,1.83,0,0,1,251.51,326.51Z" style="fill:#263238"></path><path d="M218.32,287c-1.58,3.82-1.94,5.44,3.74,8.45,0,0,2.2,5.55-5.36,12C202.94,297.54,204.17,292,204.17,292c4.72-2.62,5.72-10.78,6.07-16.47Z" style="fill:#ffb573"></path><path d="M217.32,290.09a11.9,11.9,0,0,1,1-3.08l-4.45-6.35a7.73,7.73,0,0,0-1.6,3C212.1,286.27,215.1,289.11,217.32,290.09Z" style="isolation:isolate;opacity:0.2"></path><path d="M206.92,267.49a11,11,0,0,1,15.73-10.29c7.75,3.55,8.27,15.62,6.19,22.79-2.31,7.95-12.23,9.86-18.07,3.33-3.87-4.34-3.75-7.75-3.85-15.84Z" style="fill:#ffb573"></path><path d="M221.52,269c.42,0,.76.53.72,1.23s-.41,1.22-.84,1.19-.74-.57-.71-1.23S221.1,269,221.52,269Z" style="fill:#2e353a"></path><path d="M228.94,269.41c.42,0,.74.52.71,1.21s-.41,1.23-.83,1.2-.75-.57-.72-1.24S228.52,269.39,228.94,269.41Z" style="fill:#2e353a"></path><path d="M224.54,276.35a2.85,2.85,0,0,0,2.36-.33,17.7,17.7,0,0,1-2.15-4.36Z" style="fill:#ed893e"></path><path d="M220.34,276.39a.19.19,0,0,1,.07-.26.2.2,0,0,1,.26.07,5.2,5.2,0,0,0,4.14,2.23.21.21,0,0,1,.2.2h0a.21.21,0,0,1-.22.18,7.87,7.87,0,0,1-1-.12A5.44,5.44,0,0,1,220.34,276.39Z" style="fill:#2e353a"></path><path d="M216.66,268.53h0a.38.38,0,0,1-.15-.52,5.24,5.24,0,0,1,3.8-2.19h0a.39.39,0,0,1,.06.77,4.53,4.53,0,0,0-3.18,1.8.39.39,0,0,1-.42.18A.21.21,0,0,1,216.66,268.53Z" style="fill:#2e353a"></path><path d="M229.21,267.13a3.09,3.09,0,0,0-2.67-.81h0a.38.38,0,0,1-.46-.27h0a.36.36,0,0,1,.27-.44,3.83,3.83,0,0,1,3.47,1,.39.39,0,0,1,.05.54.45.45,0,0,1-.38.13A.42.42,0,0,1,229.21,267.13Z" style="fill:#2e353a"></path><path d="M227,318.69c1.17-6.94-4.67-22.75-4.67-22.75s-8.55-7.75-15.14-9.34-15.52,12.89-12.42,23.72-1.13,39.74-1.13,39.74l33.19.71C224.12,342.32,225.84,325.64,227,318.69Z" style="fill:#407BFF;isolation:isolate"></path><path d="M227,318.69c1.17-6.94-4.67-22.75-4.67-22.75s-8.55-7.75-15.14-9.34-15.52,12.89-12.42,23.72-1.13,39.74-1.13,39.74l33.19.71C224.12,342.32,225.84,325.64,227,318.69Z" style="fill:#fff;isolation:isolate;opacity:0.5"></path><path d="M225.91,316.09c9.05,1.91,20.56-2.88,20.56-2.88l.83-8.29s0-.07,0-.1a1.65,1.65,0,0,1,1.9-1.33l1.67.26a1.87,1.87,0,0,1,1.16.69l3.41,4.34a1.68,1.68,0,0,1,0,2.14L250,317.17c-12.73,8-27.22,8.57-27.22,8.57Z" style="fill:#ffb573"></path><path d="M221.15,327.67c-5.48,0-16-8.31-23-21.82-4.17-8.15-2.18-11.84.91-13,3.95-1.51,9.82.19,14.64,9.95,5.26,10.82,6.69,11.85,10.77,12.68,4.43.9,12.73,1,18-1.74l2.79,7.76S226.07,327.65,221.15,327.67Z" style="fill:#407BFF;isolation:isolate"></path><path d="M221.15,327.67c-5.48,0-16-8.31-23-21.82-4.17-8.15-2.18-11.84.91-13,3.95-1.51,9.82.19,14.64,9.95,5.26,10.82,6.69,11.85,10.77,12.68,4.43.9,12.73,1,18-1.74l2.79,7.76S226.07,327.65,221.15,327.67Z" style="fill:#fff;isolation:isolate;opacity:0.7000000000000001"></path><path d="M205.54,272.39v0a2.6,2.6,0,0,1,2.76-2.44c2,.18,3.07,2.78,3.21,4.51.13,1.94-1.21,3.5-3,2.5a5.81,5.81,0,0,1-2.79-3.45A2.64,2.64,0,0,1,205.54,272.39Z" style="fill:#ffb573"></path><path d="M206.28,287s-.81-4.24.86-3.76S223,290,223.48,291.63s-.61,1.37-1.15,4.31S206.28,287,206.28,287Z" style="fill:#407BFF"></path><path d="M206.28,287s-.81-4.24.86-3.76S223,290,223.48,291.63s-.61,1.37-1.15,4.31S206.28,287,206.28,287Z" style="fill:#fff;opacity:0.7000000000000001"></path><path d="M245.71,313.25l.76-.29.9-9s0-.07,0-.11a1.79,1.79,0,0,1,2.07-1.45l1.81.29a2,2,0,0,1,1.27.75l3.72,4.73a1.82,1.82,0,0,1,0,2.32l-6,6.82c-.64.4-1.28.79-1.93,1.15a.91.91,0,0,1-1.27-.38l-1.84-3.49A.93.93,0,0,1,245.71,313.25Z" style="fill:#407BFF"></path><path d="M245.71,313.25l.76-.29.9-9s0-.07,0-.11a1.79,1.79,0,0,1,2.07-1.45l1.81.29a2,2,0,0,1,1.27.75l3.72,4.73a1.82,1.82,0,0,1,0,2.32l-6,6.82c-.64.4-1.28.79-1.93,1.15a.91.91,0,0,1-1.27-.38l-1.84-3.49A.93.93,0,0,1,245.71,313.25Z" style="opacity:0.4"></path><path d="M217.76,267.67a6.66,6.66,0,0,1-1.1.86,22.32,22.32,0,0,1-4.7.49v3a33.36,33.36,0,0,1,4.67-.29,10.65,10.65,0,0,1,1.57.48Z" style="fill:#263238"></path><polygon points="224.34 267.89 225.72 267.89 226.07 270.15 224.09 270.15 224.34 267.89" style="fill:#263238"></polygon><path d="M222.59,273.29h-3.34a1.71,1.71,0,0,1-1.7-1.46L217,268.5a1.72,1.72,0,0,1,.39-1.39,1.74,1.74,0,0,1,1.31-.6h4.38a1.72,1.72,0,0,1,1.31.6,1.76,1.76,0,0,1,.4,1.39l-.53,3.33A1.71,1.71,0,0,1,222.59,273.29Zm-3.86-5.78a.73.73,0,0,0-.55.25.7.7,0,0,0-.16.59l.52,3.33a.73.73,0,0,0,.71.61h3.34a.71.71,0,0,0,.71-.61l.53-3.33a.74.74,0,0,0-.17-.59.73.73,0,0,0-.55-.25Z"></path><path d="M230,273.29h-2.43a1.71,1.71,0,0,1-1.7-1.46l-.53-3.33a1.76,1.76,0,0,1,.4-1.39,1.71,1.71,0,0,1,1.31-.6h3.47a1.74,1.74,0,0,1,1.31.6,1.72,1.72,0,0,1,.39,1.39l-.52,3.33A1.71,1.71,0,0,1,230,273.29ZM227,267.51a.7.7,0,0,0-.55.25.74.74,0,0,0-.17.59l.53,3.33a.71.71,0,0,0,.71.61H230a.72.72,0,0,0,.71-.61l.52-3.33a.7.7,0,0,0-.16-.59.73.73,0,0,0-.55-.25Z"></path><g style="opacity:0.6000000000000001"><path d="M222.59,273.29h-3.34a1.71,1.71,0,0,1-1.7-1.46L217,268.5a1.72,1.72,0,0,1,.39-1.39,1.74,1.74,0,0,1,1.31-.6h4.38a1.72,1.72,0,0,1,1.31.6,1.76,1.76,0,0,1,.4,1.39l-.53,3.33A1.71,1.71,0,0,1,222.59,273.29Zm-3.86-5.78a.73.73,0,0,0-.55.25.7.7,0,0,0-.16.59l.52,3.33a.73.73,0,0,0,.71.61h3.34a.71.71,0,0,0,.71-.61l.53-3.33a.74.74,0,0,0-.17-.59.73.73,0,0,0-.55-.25Z" style="fill:#fff"></path><path d="M230,273.29h-2.43a1.71,1.71,0,0,1-1.7-1.46l-.53-3.33a1.76,1.76,0,0,1,.4-1.39,1.71,1.71,0,0,1,1.31-.6h3.47a1.74,1.74,0,0,1,1.31.6,1.72,1.72,0,0,1,.39,1.39l-.52,3.33A1.71,1.71,0,0,1,230,273.29ZM227,267.51a.7.7,0,0,0-.55.25.74.74,0,0,0-.17.59l.53,3.33a.71.71,0,0,0,.71.61H230a.72.72,0,0,0,.71-.61l.52-3.33a.7.7,0,0,0-.16-.59.73.73,0,0,0-.55-.25Z" style="fill:#fff"></path></g><path d="M214.05,263.48s-2.47,12.35,2.23,18.58a.88.88,0,0,1-.54,1.41l-1.79.28a.89.89,0,0,1-.84-.33c-.59-.79-2-2.4-3.59-2.16a.89.89,0,0,1-.9-.41c-1.16-2-4.85-8.9-4.07-14.2Z" style="fill:#263238"></path><path d="M204.37,270.06s11.65-6.74,30.68-3.94l-3.85-2s-1.68-14.93-17-12.12C201.23,254.4,204.37,270.06,204.37,270.06Z" style="fill:#407BFF"></path><path d="M204.37,270.06s11.65-6.74,30.68-3.94l-3.85-2s-1.68-14.93-17-12.12C201.23,254.4,204.37,270.06,204.37,270.06Z" style="opacity:0.2"></path><path d="M211.29,267.38a57,57,0,0,1,23.76-1.26l-3.85-2S218.27,262.34,211.29,267.38Z" style="fill:#407BFF"></path><polygon points="209.13 271.82 208.03 271.82 204.44 272.39 204.44 275.5 206.88 278.81 207.98 278.81 211.29 278.33 211.51 274.42 209.13 271.82"></polygon><polygon points="204.44 272.39 208.03 271.82 210.41 274.42 210.19 278.33 206.88 278.81 204.44 275.5 204.44 272.39" style="fill:#263238"></polygon><polygon points="204.44 272.39 208.03 271.82 210.41 274.42 210.19 278.33 206.88 278.81 204.44 275.5 204.44 272.39" style="fill:#fff;opacity:0.2"></polygon><path d="M214.7,285.59a.81.81,0,0,1-.73-.68l-.11-.65a.83.83,0,0,1,.68-.94l1.66-.28a.82.82,0,0,1,.61.15.8.8,0,0,1,.34.53l.1.65a.79.79,0,0,1-.14.61.81.81,0,0,1-.53.33l-1.67.28A.74.74,0,0,1,214.7,285.59Zm1.66-2h-.06l-1.67.28a.22.22,0,0,0-.18.26l.11.65a.22.22,0,0,0,.25.18l1.67-.28a.24.24,0,0,0,.15-.09.23.23,0,0,0,0-.16l-.11-.65a.21.21,0,0,0-.09-.15A.15.15,0,0,0,216.36,283.63Z" style="fill:#263238"></path><g style="opacity:0.5"><path d="M214.7,285.59a.81.81,0,0,1-.73-.68l-.11-.65a.83.83,0,0,1,.68-.94l1.66-.28a.82.82,0,0,1,.61.15.8.8,0,0,1,.34.53l.1.65a.79.79,0,0,1-.14.61.81.81,0,0,1-.53.33l-1.67.28A.74.74,0,0,1,214.7,285.59Zm1.66-2h-.06l-1.67.28a.22.22,0,0,0-.18.26l.11.65a.22.22,0,0,0,.25.18l1.67-.28a.24.24,0,0,0,.15-.09.23.23,0,0,0,0-.16l-.11-.65a.21.21,0,0,0-.09-.15A.15.15,0,0,0,216.36,283.63Z" style="fill:#fff"></path></g><path d="M213,261.42a4.21,4.21,0,0,1-3.84,3.9c-1.9,0-3.25-1.75-3-3.9a4.21,4.21,0,0,1,3.85-3.91C211.82,257.51,213.17,259.26,213,261.42Z" style="fill:#407BFF"></path><path d="M213,261.42a4.21,4.21,0,0,1-3.84,3.9c-1.9,0-3.25-1.75-3-3.9a4.21,4.21,0,0,1,3.85-3.91C211.82,257.51,213.17,259.26,213,261.42Z" style="fill:#fff;opacity:0.9"></path><path d="M210.86,262.56h-.63l-.31.92H209l.32-.92h-2.08l.23-.68,2.77-2.79h.94l-2.59,2.64h1l.28-.82h.84l-.28.82h.63Z" style="fill:#263238"></path><path d="M98.89,381.34h46.49a0,0,0,0,1,0,0v8.52a0,0,0,0,1,0,0H98.89A2.89,2.89,0,0,1,96,387v-2.73A2.89,2.89,0,0,1,98.89,381.34Z" style="fill:#263238"></path><path d="M98.89,381.34h46.49a0,0,0,0,1,0,0v8.52a0,0,0,0,1,0,0H98.89A2.89,2.89,0,0,1,96,387v-2.73A2.89,2.89,0,0,1,98.89,381.34Z" style="fill:#fff;opacity:0.5"></path><path d="M96.06,384.13h49.32v-2.79H97.89C96.65,381.34,96.2,382.51,96.06,384.13Z" style="opacity:0.2"></path><path d="M97.33,381.45c-1.11.41-1.33,2.11-1.33,4.15s.22,3.74,1.33,4.16c1.1-.42,1.32-2.12,1.32-4.16S98.43,381.86,97.33,381.45Z" style="fill:#263238"></path><path d="M432.32,345.57C392.9,332.83,331.16,309.92,270,301.84l-13,31c-2.53,6-7.91,9.87-13.83,9.87H209.74c-6.91,0-13-5.21-14.76-12.72l-7.27-30.17C124.45,303.94,77.22,322.32,68.58,359c-1.73,7.36,2.16,14.91,8.61,17.15,25,8.67,106.62,25.43,349.45,11.38,3.54-.2,6.49-3.13,7.11-7.07l4-25.08C438.4,351,436.07,346.79,432.32,345.57Z" style="fill:#407BFF"></path><path d="M183.29,366.82c-62,0-93.84,2.93-109.48,7.46a12.39,12.39,0,0,0,3.38,1.82c25,8.67,106.62,25.43,349.45,11.38a7.71,7.71,0,0,0,6.62-5.21C407.35,373.5,276.87,366.82,183.29,366.82Z" style="opacity:0.30000000000000004"></path><path d="M430.83,380.51h0a2.86,2.86,0,0,1-2.38-3.27l3.07-19.44a2.86,2.86,0,0,1,3.27-2.38h0a1.64,1.64,0,0,1,1.37,1.88l-3.45,21.84A1.65,1.65,0,0,1,430.83,380.51Z" style="fill:#263238"></path><g style="opacity:0.4"><path d="M76.93,354.21h0a1.35,1.35,0,0,1-.65-1.82c7.92-15.93,24.46-28.26,49.21-36.67a1.35,1.35,0,0,1,1.72.85h0a1.35,1.35,0,0,1-.86,1.7c-24,8.17-40,20-47.64,35.3A1.35,1.35,0,0,1,76.93,354.21Z" style="fill:#263238"></path><path d="M82.8,356.61h0a1.35,1.35,0,0,1-.56-1.85c8-14.16,23.07-25.35,45-33.29a1.36,1.36,0,0,1,1.74.83h0a1.34,1.34,0,0,1-.82,1.71c-21.26,7.71-35.89,18.48-43.53,32.05A1.35,1.35,0,0,1,82.8,356.61Z" style="fill:#263238"></path><path d="M88.66,359h0a1.36,1.36,0,0,1-.44-1.88c8-12.41,21.67-22.45,40.72-29.89a1.36,1.36,0,0,1,1.76.78h0a1.35,1.35,0,0,1-.78,1.73c-18.5,7.23-31.75,16.91-39.42,28.82A1.36,1.36,0,0,1,88.66,359Z" style="fill:#263238"></path></g><path d="M273.55,308.25l-5.26-21.47a2.2,2.2,0,0,1,3.3-2.39l2.24,1.4a2.18,2.18,0,0,1,.61.56l11.73,16a2.21,2.21,0,0,1-.86,3.3l-8.69,4A2.21,2.21,0,0,1,273.55,308.25Z" style="fill:#407BFF"></path><path d="M273.55,308.25l-5.26-21.47a2.2,2.2,0,0,1,3.3-2.39l2.24,1.4a2.18,2.18,0,0,1,.61.56l11.73,16a2.21,2.21,0,0,1-.86,3.3l-8.69,4A2.21,2.21,0,0,1,273.55,308.25Z" style="fill:#fff;opacity:0.6000000000000001"></path><path d="M200.14,359.2h19c7.77,0,14.06,1.22,14.06,2.72s-6.29,2.71-14.06,2.71h-19Z" style="fill:#263238"></path><path d="M200.14,375h19c7.77,0,14.06,1.22,14.06,2.72s-6.29,2.71-14.06,2.71h-19Z" style="fill:#263238"></path><g style="opacity:0.5"><path d="M200.14,359.2h19c7.77,0,14.06,1.22,14.06,2.72s-6.29,2.71-14.06,2.71h-19Z" style="fill:#fff"></path><path d="M200.14,375h19c7.77,0,14.06,1.22,14.06,2.72s-6.29,2.71-14.06,2.71h-19Z" style="fill:#fff"></path></g><circle cx="291.31" cy="357.92" r="27.04" transform="translate(-123.96 559.2) rotate(-76.72)" style="fill:#407BFF"></circle><circle cx="291.31" cy="357.92" r="27.04" transform="translate(-123.96 559.2) rotate(-76.72)" style="fill:#fff;opacity:0.9"></circle><path d="M302.82,365.83h-4.95l-1.71,6.38h-6.85l1.71-6.38H274.66l1.26-4.74,19.49-19.26h7.38L284.61,360.1h8.16l1.52-5.69h6.64l-1.52,5.69h4.95Z" style="fill:#263238"></path><path d="M381,364.18c0,10.87-4.78,20.53-10.69,21.57s-79,5.12-79-5.75,73.12-32.59,79-33.63S381,353.3,381,364.18Z" style="opacity:0.2"></path><circle cx="384.87" cy="371.51" r="37.8" transform="translate(-18.77 722.54) rotate(-85)" style="fill:#263238"></circle><circle cx="384.87" cy="371.51" r="25.25" transform="translate(-18.77 722.54) rotate(-85)" style="fill:#fff;opacity:0.5"></circle><circle cx="384.87" cy="371.51" r="21.75" transform="translate(-18.77 722.54) rotate(-85)" style="fill:#fff;opacity:0.5"></circle><g style="opacity:0.5"><path d="M370.23,383.8a19.15,19.15,0,0,1,.07-24.66,2.8,2.8,0,0,1,4.25.07l1,1.24a2.84,2.84,0,0,1,0,3.62A11.92,11.92,0,0,0,381,382.78a2.81,2.81,0,0,1,1.9,3l-.22,1.6A2.81,2.81,0,0,1,379,389.7,19.08,19.08,0,0,1,370.23,383.8Z" style="fill:#fff"></path></g><g style="opacity:0.5"><path d="M389.59,386.87l-.47-1.55a2.85,2.85,0,0,1,1.42-3.33l0,0a2.85,2.85,0,0,1,3.58.61l1,1.24a2.79,2.79,0,0,1-.67,4.19l-1,.57A2.8,2.8,0,0,1,389.59,386.87Z" style="fill:#fff"></path></g><g style="opacity:0.5"><path d="M398.76,375.5a2.84,2.84,0,0,1-2-3,11.91,11.91,0,0,0-7.93-12.24,2.82,2.82,0,0,1-1.89-3l.23-1.6a2.82,2.82,0,0,1,3.68-2.27,19.13,19.13,0,0,1,13.05,20.14,2.82,2.82,0,0,1-3.57,2.45Z" style="fill:#fff"></path></g><path d="M388.88,376.29a6.24,6.24,0,1,1,.77-8.79A6.24,6.24,0,0,1,388.88,376.29Z" style="fill:#263238"></path><path d="M388.88,376.29a6.24,6.24,0,1,1,.77-8.79A6.24,6.24,0,0,1,388.88,376.29Z" style="fill:#fff;opacity:0.5"></path><path d="M343.63,367.9h0a41.4,41.4,0,0,1,44.85-37.63h0a7.92,7.92,0,0,1-7.06,7.21A34.25,34.25,0,0,0,352,362.2,7.91,7.91,0,0,1,343.63,367.9Z" style="fill:#407BFF"></path><g style="opacity:0.4"><path d="M343.63,367.9h0a41.4,41.4,0,0,1,44.85-37.63h0a7.92,7.92,0,0,1-7.06,7.21A34.25,34.25,0,0,0,352,362.2,7.91,7.91,0,0,1,343.63,367.9Z" style="fill:#fff"></path></g><rect x="179.02" y="279.11" width="6.07" height="24.6" rx="2.2" style="fill:#263238"></rect><rect x="179.02" y="279.11" width="6.07" height="24.6" rx="2.2" style="fill:#fff;opacity:0.4"></rect><path d="M270.75,320a4.94,4.94,0,1,0,0-9.87Z" style="fill:#263238"></path><path d="M277.49,318.88l-2.7-2.61v-2.09l4.31,2.6a1.32,1.32,0,0,1,.64,1.14h0A1.33,1.33,0,0,1,277.49,318.88Z" style="fill:#263238"></path><path d="M270.75,322.44h0a2.28,2.28,0,0,1-2.28-2.28V310a2.28,2.28,0,0,1,2.28-2.28h0A2.28,2.28,0,0,1,273,310v10.16A2.28,2.28,0,0,1,270.75,322.44Z" style="fill:#263238"></path><path d="M270.75,322.44h0a2.28,2.28,0,0,1-2.28-2.28V310a2.28,2.28,0,0,1,2.28-2.28h0A2.28,2.28,0,0,1,273,310v10.16A2.28,2.28,0,0,1,270.75,322.44Z" style="fill:#fff;opacity:0.5"></path><path d="M173.06,303.29l-15.85-33.18h-27.6l8,39.63a3.69,3.69,0,0,0,4.32,2.59l28.37-4.67C172.64,307.29,174,305.17,173.06,303.29Zm-16.58-26.55,8.26,17.3c.35.72-.67,1.35-1.34.83l-12.2-9.31a.68.68,0,0,1-.22-.84l3.94-8A.9.9,0,0,1,156.48,276.74Zm-8,6.71-11.68-8.92c-.58-.45-.22-1.29.56-1.29h16.09a.75.75,0,0,1,.77,1l-4.4,8.92A.91.91,0,0,1,148.44,283.45ZM136,276l12.11,9.25a.66.66,0,0,1,.22.84l-7.25,14.69a.88.88,0,0,1-1.61-.16l-4.86-23.94C134.47,276,135.4,275.57,136,276Zm33.67,28.56-28.37,4.66-.1-.06-.63-3.08a.62.62,0,0,1,.06-.42l8.91-18a.9.9,0,0,1,1.33-.26l16.69,12.74a.82.82,0,0,1,.22.27l1.95,4.09Z" style="fill:#263238"></path><path d="M173.06,303.29l-15.85-33.18h-27.6l8,39.63a3.69,3.69,0,0,0,4.32,2.59l28.37-4.67C172.64,307.29,174,305.17,173.06,303.29Zm-16.58-26.55,8.26,17.3c.35.72-.67,1.35-1.34.83l-12.2-9.31a.68.68,0,0,1-.22-.84l3.94-8A.9.9,0,0,1,156.48,276.74Zm-8,6.71-11.68-8.92c-.58-.45-.22-1.29.56-1.29h16.09a.75.75,0,0,1,.77,1l-4.4,8.92A.91.91,0,0,1,148.44,283.45ZM136,276l12.11,9.25a.66.66,0,0,1,.22.84l-7.25,14.69a.88.88,0,0,1-1.61-.16l-4.86-23.94C134.47,276,135.4,275.57,136,276Zm33.67,28.56-28.37,4.66-.1-.06-.63-3.08a.62.62,0,0,1,.06-.42l8.91-18a.9.9,0,0,1,1.33-.26l16.69,12.74a.82.82,0,0,1,.22.27l1.95,4.09Z" style="fill:#fff;opacity:0.5"></path><path d="M129.61,270.11l1.26,6.19,3.74.28A.85.85,0,0,1,136,276l.94.72,3,.22-3.19-2.44c-.58-.45-.22-1.29.56-1.29h16.09a.75.75,0,0,1,.77,1l-1.75,3.54,1.9.13.59-1.2a.9.9,0,0,1,1.56,0l.65,1.37c1.57.09,2.91.17,4,.22l-3.93-8.22Z" style="opacity:0.2"></path><path d="M165.28,270.11c.51,2.54-1.43,4.59-4.35,4.59s-55.21-3.62-55.73-6.15,51-3,53.87-3S164.77,267.58,165.28,270.11Z" style="fill:#407BFF"></path><path d="M163.3,271.79c-2.75,0-33.54-1.32-57.76-2.92,4.52,2.51,52.6,5.83,55.39,5.83,2.3,0,4-1.28,4.35-3.06A13.73,13.73,0,0,1,163.3,271.79Z" style="opacity:0.2"></path><path d="M243.19,343.71H209.74c-7.35,0-13.82-5.55-15.73-13.49L187,301a1,1,0,0,1,.74-1.2h0a1,1,0,0,1,1.21.74l7,29.19c1.7,7,7.36,12,13.79,12h33.45c5.48,0,10.55-3.63,12.91-9.26l12.62-30.08a1,1,0,0,1,1.31-.54h0a1,1,0,0,1,.53,1.31l-12.62,30.09C255.27,339.6,249.48,343.71,243.19,343.71Z" style="fill:#263238"></path><circle cx="163.89" cy="371.51" r="37.8" transform="translate(-236.69 305.04) rotate(-56.77)" style="fill:#263238"></circle><circle cx="163.89" cy="371.51" r="25.25" transform="translate(-123.88 85.04) rotate(-21.33)" style="fill:#fff;opacity:0.5"></circle><circle cx="163.89" cy="371.51" r="21.75" transform="translate(-211.77 217.38) rotate(-43.89)" style="fill:#fff;opacity:0.5"></circle><g style="opacity:0.5"><path d="M149.25,383.8a19.15,19.15,0,0,1,.07-24.66,2.8,2.8,0,0,1,4.25.07l1,1.24a2.85,2.85,0,0,1,0,3.62A11.91,11.91,0,0,0,160,382.78a2.81,2.81,0,0,1,1.9,3l-.22,1.6A2.81,2.81,0,0,1,158,389.7,19.08,19.08,0,0,1,149.25,383.8Z" style="fill:#fff"></path></g><g style="opacity:0.5"><path d="M168.62,386.87l-.48-1.55a2.85,2.85,0,0,1,1.42-3.33l0,0a2.85,2.85,0,0,1,3.58.61l1,1.24a2.79,2.79,0,0,1-.67,4.19c-.34.2-.7.39-1.05.57A2.78,2.78,0,0,1,168.62,386.87Z" style="fill:#fff"></path></g><g style="opacity:0.5"><path d="M177.78,375.5a2.84,2.84,0,0,1-2-3,11.91,11.91,0,0,0-7.93-12.24,2.8,2.8,0,0,1-1.88-3l.22-1.6a2.82,2.82,0,0,1,3.68-2.27,19.13,19.13,0,0,1,13.05,20.14,2.82,2.82,0,0,1-3.57,2.45Z" style="fill:#fff"></path></g><path d="M167.9,376.29a6.24,6.24,0,1,1,.77-8.79A6.24,6.24,0,0,1,167.9,376.29Z" style="fill:#263238"></path><path d="M167.9,376.29a6.24,6.24,0,1,1,.77-8.79A6.24,6.24,0,0,1,167.9,376.29Z" style="fill:#fff;opacity:0.5"></path><path d="M192.51,342.89a8.54,8.54,0,0,1-10.74,1.05,32.91,32.91,0,0,0-35.76,0,8.54,8.54,0,0,1-10.74-1.05l-1.61-1.61a42.76,42.76,0,0,1,60.46,0Z" style="fill:#407BFF"></path><g style="opacity:0.4"><path d="M192.51,342.89a8.54,8.54,0,0,1-10.74,1.05,32.91,32.91,0,0,0-35.76,0,8.54,8.54,0,0,1-10.74-1.05l-1.61-1.61a42.76,42.76,0,0,1,60.46,0Z" style="fill:#fff"></path></g></g></svg>